<svg width="25" height="24" viewBox="0 0 25 24" fill="none" xmlns="http://www.w3.org/2000/svg">
<path fill-rule="evenodd" clip-rule="evenodd" d="M12.3335 1.25C8.05333 1.25 4.58354 4.71979 4.58354 9V9.7041C4.58354 10.401 4.37725 11.0824 3.99066 11.6622L2.84206 13.3851C1.50896 15.3848 2.52667 18.1028 4.84526 18.7351C5.60088 18.9412 6.36287 19.1155 7.12928 19.2581L7.13117 19.2632C7.90017 21.3151 9.95548 22.75 12.3335 22.75C14.7115 22.75 16.7668 21.3151 17.5358 19.2632L17.5377 19.2581C18.3041 19.1155 19.0662 18.9412 19.8218 18.7351C22.1404 18.1028 23.1581 15.3848 21.825 13.3851L20.6764 11.6622C20.2898 11.0824 20.0835 10.401 20.0835 9.7041V9C20.0835 4.71979 16.6137 1.25 12.3335 1.25ZM15.7099 19.537C13.467 19.805 11.1999 19.8049 8.95699 19.5369C9.66794 20.5585 10.9045 21.25 12.3335 21.25C13.7624 21.25 14.999 20.5585 15.7099 19.537ZM6.08354 9C6.08354 5.54822 8.88176 2.75 12.3335 2.75C15.7853 2.75 18.5835 5.54822 18.5835 9V9.7041C18.5835 10.6972 18.8775 11.668 19.4283 12.4943L20.5769 14.2172C21.3421 15.3649 20.758 16.925 19.4271 17.288C14.7829 18.5546 9.88419 18.5546 5.23994 17.288C3.90911 16.925 3.32496 15.3649 4.09014 14.2172L5.23874 12.4943C5.78959 11.668 6.08354 10.6972 6.08354 9.7041V9Z" fill="#1E1E1E"/>
</svg>
