<svg width="25" height="24" viewBox="0 0 25 24" fill="none" xmlns="http://www.w3.org/2000/svg">
<path d="M12.6665 22C18.1894 22 22.6665 17.5228 22.6665 12C22.6665 6.47715 18.1894 2 12.6665 2C7.14366 2 2.6665 6.47715 2.6665 12C2.6665 17.5228 7.14366 22 12.6665 22Z" stroke="#1E1E1E" stroke-width="1.5"/>
<path d="M8.6665 12C8.6665 18 12.6665 22 12.6665 22C12.6665 22 16.6665 18 16.6665 12C16.6665 6 12.6665 2 12.6665 2C12.6665 2 8.6665 6 8.6665 12Z" stroke="#1E1E1E" stroke-width="1.5" stroke-linejoin="round"/>
<path d="M21.6665 15H3.6665" stroke="#1E1E1E" stroke-width="1.5" stroke-linecap="round" stroke-linejoin="round"/>
<path d="M21.6665 9H3.6665" stroke="#1E1E1E" stroke-width="1.5" stroke-linecap="round" stroke-linejoin="round"/>
</svg>
