<svg width="157" height="40" viewBox="0 0 157 40" fill="none" xmlns="http://www.w3.org/2000/svg">
<path d="M63.3963 11.682C63.2105 11.4612 62.7592 11.3376 62.0335 11.3376H61.3433C60.8238 11.2947 60.304 11.4151 59.8566 11.682C59.4986 12.077 59.2648 12.5683 59.1841 13.0948L57.0779 22.6754C57.0085 23.055 56.8542 23.4141 56.6266 23.7261C56.5338 23.8239 56.4209 23.9006 56.2957 23.9509C56.1705 24.0012 56.0358 24.0239 55.901 24.0175C55.5486 24.0433 55.1974 23.9534 54.901 23.7614C54.643 23.4502 54.4747 23.0748 54.4143 22.6754L52.3082 13.0948C52.2305 12.5638 51.9893 12.0701 51.618 11.682C51.1763 11.417 50.6626 11.2966 50.149 11.3376H49.4145C48.6888 11.3376 48.2552 11.4612 48.0694 11.682C47.8701 12.1285 47.851 12.6346 48.0163 13.0948L50.3348 23.1433C50.5104 23.9726 50.7744 24.7807 51.1224 25.5539C51.2896 25.9408 51.5133 26.3008 51.7861 26.6224C52.1431 26.9716 52.5714 27.24 53.0417 27.4091C53.5121 27.5783 54.0134 27.6442 54.5117 27.6025C54.9524 27.626 55.3942 27.5813 55.8214 27.47C55.6425 28.3075 55.2137 29.0713 54.5913 29.6608C53.9689 30.2503 53.1822 30.6379 52.3347 30.7725C51.872 30.816 51.441 31.0264 51.1224 31.3641C50.9384 31.8171 50.9384 32.3239 51.1224 32.7769V32.927C51.16 33.4394 51.3688 33.9245 51.7153 34.3045C52.2048 34.4884 52.7388 34.5192 53.2462 34.3928C54.9139 34.1889 56.4683 33.4443 57.6708 32.2736C58.938 30.8492 59.7809 29.0998 60.1044 27.2228L60.4849 25.5539L63.3521 13.0948C63.5532 12.6481 63.5691 12.1403 63.3963 11.682Z" fill="#1E1E1E"/>
<path d="M65.1838 25.4395V13.1216C65.1191 12.6175 65.2453 12.1073 65.5378 11.6912C65.9539 11.4045 66.4604 11.279 66.9625 11.338H67.5377C67.7834 11.2656 68.0442 11.2606 68.2925 11.3237C68.5408 11.3867 68.7674 11.5154 68.9486 11.6962C69.1298 11.8769 69.2587 12.1031 69.3219 12.3509C69.3851 12.5986 69.3801 12.8588 69.3076 13.104V25.4219C69.3833 25.6673 69.3906 25.9288 69.3286 26.178C69.2665 26.4273 69.1376 26.655 68.9556 26.8366C68.7736 27.0182 68.5454 27.1469 68.2956 27.2088C68.0457 27.2707 67.7837 27.2634 67.5377 27.1879H66.9625C66.4615 27.2486 65.9554 27.1263 65.5378 26.8435C65.2532 26.4337 65.1275 25.9348 65.1838 25.4395Z" fill="#1E1E1E"/>
<path d="M88.2716 25.4393V13.1214C88.2101 12.6186 88.3327 12.1107 88.6167 11.6909C89.0368 11.4059 89.5454 11.2806 90.0503 11.3377H90.6255C91.1303 11.2806 91.6389 11.4059 92.0591 11.6909C92.3431 12.1107 92.4656 12.6186 92.4042 13.1214V25.4393C92.4799 25.6847 92.4872 25.9462 92.4252 26.1955C92.3631 26.4447 92.2342 26.6724 92.0522 26.854C91.8702 27.0357 91.642 27.1643 91.3921 27.2262C91.1423 27.2881 90.8803 27.2809 90.6343 27.2053H90.0591C89.8131 27.2809 89.5511 27.2881 89.3013 27.2262C89.0515 27.1643 88.8233 27.0357 88.6413 26.854C88.4592 26.6724 88.3303 26.4447 88.2683 26.1955C88.2063 25.9462 88.2135 25.6847 88.2893 25.4393H88.2716Z" fill="#1E1E1E"/>
<path d="M98.9701 17.3774V25.4392C99.0332 25.9433 98.9071 26.4528 98.6162 26.8697C98.1986 27.1525 97.6925 27.2748 97.1914 27.2141H96.5808C96.3348 27.2896 96.0728 27.2969 95.823 27.235C95.5732 27.1731 95.345 27.0444 95.163 26.8628C94.981 26.6812 94.852 26.4535 94.79 26.2042C94.728 25.955 94.7352 25.6935 94.811 25.4481V17.3774C94.7532 16.5076 94.8759 15.6352 95.1713 14.8147C95.4666 13.9943 95.9284 13.2435 96.5277 12.6092C97.9467 11.4241 99.77 10.8324 101.616 10.958C103.846 10.958 105.412 11.6379 106.333 12.9889C107.306 11.6408 108.864 10.9639 111.005 10.958C113.294 10.958 114.993 11.4878 116.102 12.5474C117.211 13.607 117.76 15.217 117.748 17.3774V25.4392C117.824 25.6847 117.831 25.9461 117.769 26.1954C117.707 26.4447 117.578 26.6724 117.396 26.854C117.214 27.0356 116.986 27.1643 116.736 27.2262C116.486 27.288 116.224 27.2808 115.978 27.2052H115.377C115.131 27.2808 114.869 27.288 114.619 27.2262C114.369 27.1643 114.141 27.0356 113.959 26.854C113.777 26.6724 113.648 26.4447 113.586 26.1954C113.524 25.9461 113.531 25.6847 113.607 25.4392V17.3774C113.686 16.6763 113.493 15.9715 113.067 15.4083C112.481 14.9785 111.754 14.786 111.032 14.8697C110.273 14.7817 109.508 14.9732 108.881 15.4083C108.448 15.9681 108.251 16.6748 108.333 17.3774V25.4392C108.408 25.6847 108.416 25.9461 108.354 26.1954C108.292 26.4447 108.163 26.6724 107.981 26.854C107.799 27.0356 107.57 27.1643 107.321 27.2262C107.071 27.288 106.809 27.2808 106.563 27.2052H106.085C105.839 27.2808 105.577 27.288 105.327 27.2262C105.077 27.1643 104.849 27.0356 104.667 26.854C104.485 26.6724 104.356 26.4447 104.294 26.1954C104.232 25.9461 104.239 25.6847 104.315 25.4392V17.3774C104.395 16.6735 104.195 15.9664 103.758 15.4083C103.152 14.9774 102.408 14.7855 101.669 14.8697C100.936 14.7913 100.201 14.9898 99.6073 15.426C99.3763 15.6926 99.201 16.0025 99.0916 16.3376C98.9822 16.6727 98.9409 17.0262 98.9701 17.3774Z" fill="#1E1E1E"/>
<path d="M85.9088 16.7417C85.9195 15.9031 85.7219 15.0749 85.3336 14.3311C84.0858 12.0618 81.2895 10.9757 78.7586 10.9668C76.2277 10.958 73.511 12.0618 72.2632 14.3311C71.8722 15.0742 71.6715 15.9024 71.6792 16.7417V21.8808C71.6792 25.7925 74.0331 27.7704 78.8294 27.7792C79.6074 27.7784 80.3837 27.7045 81.1479 27.5585C80.9117 28.5942 80.2758 29.4953 79.378 30.0662C79.1826 30.2144 78.9684 30.3361 78.7409 30.4282C78.3964 30.5785 78.0377 30.6938 77.6701 30.7726C77.2061 30.8185 76.775 31.032 76.4578 31.373C76.2738 31.8261 76.2738 32.3328 76.4578 32.7858V32.9271C76.4933 33.44 76.7024 33.9257 77.0507 34.3046C77.5381 34.4979 78.0751 34.5289 78.5816 34.3929C79.6423 34.258 80.6653 33.9127 81.5903 33.3774C82.1182 33.0792 82.6009 32.7076 83.0239 32.2737C85.1212 30.1192 85.7761 27.0905 85.8114 24.1854C85.8114 23.4172 85.8114 22.649 85.8114 21.8808L85.9088 16.7417ZM75.8383 21.8808V16.7417C75.8124 16.4288 75.8615 16.1143 75.9815 15.8241C76.1015 15.5339 76.289 15.2764 76.5286 15.0728C77.2097 14.6645 78.0019 14.4792 78.794 14.543C79.5887 14.4809 80.3832 14.666 81.0682 15.0728C81.3078 15.2764 81.4953 15.5339 81.6153 15.8241C81.7353 16.1143 81.7844 16.4288 81.7585 16.7417V21.8808C81.7882 22.2068 81.7431 22.5352 81.6265 22.8412C81.51 23.1472 81.3251 23.4227 81.0859 23.6468C80.3999 24.0676 79.5961 24.2565 78.794 24.1854C77.9945 24.2578 77.1932 24.0687 76.5109 23.6468C76.2701 23.4239 76.0841 23.1486 75.9674 22.8423C75.8508 22.536 75.8066 22.2069 75.8383 21.8808Z" fill="#1E1E1E"/>
<path d="M82.4308 6.47244L82.36 6.3753C82.0768 5.87199 81.8025 5.61593 81.5636 5.55412C81.1875 5.54617 80.8207 5.67128 80.5282 5.90731C80.029 6.24731 79.4494 6.45125 78.8468 6.49892C78.2096 6.49033 77.5908 6.28351 77.077 5.90731C76.7814 5.67066 76.4117 5.5456 76.0328 5.55412C75.7938 5.61593 75.5195 5.87199 75.2452 6.3753L75.1656 6.47244C74.8966 6.78912 74.7437 7.18773 74.7319 7.60268C74.9031 7.97536 75.1881 8.28444 75.5461 8.48568C76.2317 9.01066 77.0132 9.39754 77.8469 9.62476C78.4735 9.78822 79.1317 9.78822 79.7583 9.62476C80.592 9.39754 81.3735 9.01066 82.0591 8.48568C82.4189 8.28399 82.7066 7.97531 82.8821 7.60268C82.8634 7.186 82.7043 6.78781 82.4308 6.47244Z" fill="#1E1E1E"/>
<g opacity="0.6">
<path d="M121.978 19.073V14.8787C121.978 13.6161 122.642 12.9803 123.969 12.9803C124.514 12.9367 125.054 13.1079 125.474 13.4571C125.649 13.6477 125.782 13.8724 125.866 14.1171C125.95 14.3618 125.982 14.6211 125.96 14.8787V15.7617C126 16.0193 125.979 16.2825 125.898 16.5304C125.818 16.7784 125.681 17.0042 125.498 17.1902C125.315 17.3761 125.092 17.517 124.845 17.6016C124.598 17.6863 124.334 17.7124 124.076 17.6779C123.8 17.7141 123.519 17.67 123.268 17.551C123.017 17.4319 122.806 17.2429 122.66 17.0068V19.1083C122.674 19.1489 122.676 19.1926 122.666 19.2344C122.656 19.2762 122.635 19.3144 122.605 19.3448C122.574 19.3751 122.536 19.3963 122.494 19.406C122.452 19.4158 122.408 19.4136 122.368 19.3997H122.27C122.187 19.4075 122.103 19.389 122.031 19.3467C122.005 19.3069 121.986 19.2622 121.977 19.2152C121.968 19.1682 121.969 19.1199 121.978 19.073ZM125.27 15.7353V14.8523C125.304 14.5042 125.203 14.1563 124.987 13.8809C124.698 13.6562 124.334 13.5517 123.969 13.5896C123.605 13.5545 123.242 13.6586 122.952 13.8809C122.731 14.1542 122.626 14.5028 122.66 14.8523V15.7353C122.626 16.0847 122.731 16.4334 122.952 16.7066C123.242 16.9289 123.605 17.0331 123.969 16.998C124.331 17.0353 124.693 16.9308 124.978 16.7066C125.193 16.4307 125.291 16.0823 125.252 15.7353H125.27Z" fill="#1E1E1E"/>
<path d="M130.341 14.4109V16.1769C130.36 16.3821 130.328 16.5889 130.25 16.7795C130.171 16.9701 130.048 17.139 129.89 17.2718C129.454 17.5354 128.946 17.6558 128.438 17.6162C127.99 17.6452 127.544 17.524 127.173 17.2718C127.022 17.1514 126.902 16.9959 126.825 16.8189C126.748 16.6419 126.716 16.4488 126.73 16.2563C126.714 16.0629 126.747 15.8685 126.826 15.691C126.905 15.5136 127.027 15.3588 127.182 15.2409C127.606 15.0008 128.093 14.8931 128.58 14.9318H129.659V14.3844C129.669 14.2623 129.648 14.1398 129.597 14.0284C129.546 13.9171 129.467 13.8208 129.367 13.7486C129.095 13.6055 128.79 13.5384 128.483 13.5543C128.146 13.5509 127.811 13.5864 127.483 13.6603C127.409 13.6898 127.326 13.6898 127.252 13.6603C127.227 13.6315 127.209 13.5977 127.198 13.5611C127.188 13.5245 127.185 13.4861 127.191 13.4484V13.3778C127.183 13.3003 127.202 13.2227 127.244 13.157C127.308 13.1075 127.384 13.0769 127.465 13.0687C127.788 12.9999 128.117 12.9673 128.447 12.9716C129.71 12.9657 130.341 13.4454 130.341 14.4109ZM129.659 16.1769V15.4881H128.598C128.291 15.4686 127.985 15.5327 127.713 15.6736C127.617 15.7418 127.541 15.8341 127.493 15.9412C127.445 16.0482 127.426 16.1661 127.438 16.2828C127.438 16.795 127.775 17.051 128.456 17.051C128.784 17.0791 129.113 17.0117 129.403 16.8568C129.498 16.7729 129.571 16.6671 129.616 16.5486C129.66 16.4301 129.675 16.3025 129.659 16.1769Z" fill="#1E1E1E"/>
<path d="M131.712 13.3777L132.597 16.5035C132.626 16.6534 132.693 16.7934 132.792 16.9097C132.899 16.9817 133.026 17.0159 133.155 17.0068C133.271 17.0137 133.385 16.9758 133.473 16.9009C133.571 16.7884 133.636 16.6507 133.659 16.5035L134.42 13.3777C134.429 13.287 134.47 13.2024 134.535 13.1393C134.614 13.0895 134.708 13.0677 134.801 13.0775H134.88C135.013 13.0775 135.084 13.0775 135.119 13.1304C135.148 13.2104 135.148 13.2977 135.119 13.3777L134.075 17.5543C133.765 18.7728 133.19 19.4174 132.243 19.4792C132.172 19.5064 132.093 19.5064 132.022 19.4792C131.968 19.4164 131.931 19.3402 131.916 19.2585V19.179C131.916 19.073 131.916 19.0024 131.916 18.9759C131.982 18.9269 132.063 18.902 132.146 18.9053C132.438 18.8836 132.71 18.7508 132.907 18.5344C133.14 18.2413 133.307 17.9007 133.394 17.5366C133.254 17.6057 133.099 17.639 132.942 17.6337C132.825 17.6428 132.707 17.6262 132.597 17.585C132.487 17.5438 132.388 17.4791 132.305 17.3953C132.115 17.1522 131.985 16.8679 131.925 16.5653L131.04 13.413C131.011 13.333 131.011 13.2457 131.04 13.1658C131.108 13.1209 131.189 13.1021 131.27 13.1128H131.341C131.432 13.1055 131.524 13.1239 131.606 13.1658C131.661 13.2252 131.697 13.2986 131.712 13.3777Z" fill="#1E1E1E"/>
<path d="M136.597 14.7283V17.3067C136.603 17.3908 136.581 17.4745 136.535 17.5451C136.467 17.5892 136.386 17.608 136.305 17.5981H136.199C136.119 17.6065 136.038 17.5879 135.969 17.5451C135.923 17.4745 135.901 17.3908 135.907 17.3067V14.7283C135.874 14.4914 135.898 14.25 135.976 14.0239C136.054 13.7979 136.185 13.5935 136.358 13.4273C136.53 13.2612 136.74 13.1381 136.969 13.0681C137.198 12.998 137.441 12.983 137.677 13.0242C137.959 12.9878 138.246 13.0417 138.495 13.1781C138.745 13.3146 138.945 13.5265 139.066 13.7835C139.194 13.5277 139.397 13.3174 139.649 13.1815C139.901 13.0456 140.189 12.9906 140.473 13.0242C140.706 12.9888 140.945 13.0083 141.169 13.0812C141.393 13.1541 141.597 13.2782 141.765 13.4438C141.933 13.6093 142.059 13.8117 142.134 14.0348C142.21 14.2578 142.232 14.4953 142.199 14.7283V17.3067C142.209 17.3911 142.187 17.4764 142.137 17.5451C142.069 17.5892 141.987 17.608 141.907 17.5981H141.809C141.726 17.6086 141.642 17.5899 141.57 17.5451C141.528 17.4732 141.51 17.3898 141.517 17.3067V14.7283C141.544 14.4371 141.459 14.1465 141.278 13.916C141.132 13.7366 140.931 13.6098 140.706 13.555C140.481 13.5002 140.244 13.5203 140.032 13.6124C139.819 13.7044 139.643 13.8633 139.529 14.0648C139.415 14.2663 139.371 14.4993 139.402 14.7283V17.3067C139.41 17.3898 139.392 17.4732 139.349 17.5451C139.278 17.5899 139.194 17.6086 139.11 17.5981H139.022C138.939 17.6086 138.854 17.5899 138.783 17.5451C138.741 17.4732 138.722 17.3898 138.73 17.3067V14.7283C138.757 14.4371 138.671 14.1465 138.491 13.916C138.25 13.7546 137.967 13.6685 137.677 13.6685C137.387 13.6685 137.103 13.7546 136.863 13.916C136.673 14.1426 136.578 14.4336 136.597 14.7283Z" fill="#1E1E1E"/>
<path d="M146.942 14.7992C146.954 14.9639 146.954 15.1291 146.942 15.2937C146.938 15.3735 146.91 15.4503 146.862 15.5145C146.787 15.5569 146.701 15.5754 146.615 15.5675H143.836V15.8412C143.822 16.0041 143.846 16.1679 143.904 16.3207C143.962 16.4735 144.054 16.6114 144.172 16.7242C144.497 16.9278 144.879 17.0207 145.261 16.9891C145.677 16.9883 146.091 16.9288 146.491 16.8125C146.606 16.8125 146.677 16.8125 146.721 16.8125C146.746 16.8448 146.764 16.8817 146.775 16.9211C146.785 16.9605 146.788 17.0016 146.783 17.0421V17.1215C146.805 17.1904 146.805 17.2646 146.783 17.3335C146.718 17.3913 146.638 17.4309 146.553 17.4483C146.148 17.5693 145.727 17.6289 145.305 17.6248C144.734 17.6743 144.164 17.5142 143.703 17.1745C143.521 16.983 143.381 16.7547 143.294 16.5049C143.207 16.2552 143.175 15.9897 143.199 15.7264V14.8434C143.169 14.5901 143.197 14.3333 143.281 14.0923C143.365 13.8513 143.502 13.6323 143.682 13.4515C143.863 13.2708 144.082 13.1329 144.323 13.0483C144.564 12.9636 144.821 12.9343 145.075 12.9626C145.326 12.9455 145.578 12.9781 145.816 13.0584C146.055 13.1387 146.275 13.2652 146.464 13.4306C146.636 13.612 146.768 13.8278 146.85 14.0638C146.933 14.2997 146.964 14.5504 146.942 14.7992ZM143.836 14.7286V15.0288H146.296V14.7286C146.296 13.9869 145.889 13.616 145.066 13.616C144.243 13.616 143.836 13.9604 143.836 14.7286Z" fill="#1E1E1E"/>
<path d="M148.606 14.7286V17.307C148.614 17.39 148.595 17.4734 148.553 17.5454C148.482 17.5901 148.397 17.6088 148.314 17.5984H148.216C148.136 17.6082 148.054 17.5895 147.986 17.5454C147.936 17.4766 147.914 17.3914 147.924 17.307V14.7286C147.924 13.5895 148.562 13.0244 149.827 13.0244C150.341 12.9826 150.852 13.1337 151.261 13.4482C151.424 13.6165 151.55 13.8178 151.63 14.0387C151.709 14.2595 151.74 14.4948 151.721 14.7286V17.307C151.729 17.39 151.71 17.4734 151.668 17.5454C151.597 17.5901 151.512 17.6088 151.429 17.5984H151.322C151.239 17.6088 151.155 17.5901 151.084 17.5454C151.041 17.4734 151.023 17.39 151.03 17.307V14.7286C151.047 14.5814 151.031 14.4325 150.983 14.2921C150.936 14.1518 150.858 14.0235 150.756 13.9162C150.499 13.7327 150.186 13.6452 149.871 13.669C149.536 13.6403 149.202 13.7276 148.924 13.9162C148.817 14.0217 148.733 14.1485 148.678 14.2885C148.623 14.4285 148.599 14.5784 148.606 14.7286Z" fill="#1E1E1E"/>
<path d="M152.384 13.4747V13.4305C152.376 13.3558 152.395 13.2805 152.438 13.2186C152.492 13.1721 152.561 13.147 152.632 13.148L153.145 13.0773L153.252 12.1414C153.248 12.1065 153.252 12.0712 153.262 12.0378C153.273 12.0044 153.29 11.9735 153.314 11.9471C153.372 11.9048 153.445 11.8859 153.517 11.8941H153.588C153.657 11.8855 153.727 11.9046 153.783 11.9471C153.783 11.9471 153.827 12.0442 153.827 12.1414V13.0773H155.305C155.344 13.0631 155.387 13.0604 155.428 13.0695C155.469 13.0787 155.506 13.0993 155.536 13.1289C155.566 13.1585 155.587 13.196 155.596 13.2369C155.605 13.2778 155.602 13.3205 155.588 13.3599V13.4394C155.598 13.517 155.579 13.5956 155.535 13.6601C155.535 13.7043 155.42 13.7219 155.305 13.7219H153.836V16.0266C153.814 16.2886 153.889 16.5496 154.048 16.7595C154.13 16.8404 154.229 16.9028 154.337 16.9424C154.446 16.9821 154.561 16.9979 154.676 16.989C154.95 16.9934 155.224 16.9638 155.491 16.9007C155.524 16.8844 155.56 16.8759 155.597 16.8759C155.634 16.8759 155.67 16.8844 155.703 16.9007C155.747 16.9653 155.766 17.0439 155.756 17.1215V17.2098C155.761 17.2815 155.742 17.3528 155.703 17.4129C155.642 17.4736 155.565 17.5163 155.482 17.5365C155.22 17.5959 154.953 17.6255 154.685 17.6248C153.668 17.6248 153.154 17.0862 153.154 16.0177V13.7131H152.641C152.57 13.7209 152.499 13.7054 152.438 13.669C152.401 13.6109 152.382 13.5433 152.384 13.4747Z" fill="#1E1E1E"/>
<path d="M121.793 25.775V25.6955C121.784 25.6167 121.806 25.5377 121.854 25.4747C121.891 25.4581 121.93 25.4495 121.97 25.4495C122.009 25.4495 122.049 25.4581 122.085 25.4747C122.521 25.5892 122.97 25.6485 123.421 25.6513C123.683 25.6706 123.946 25.6314 124.191 25.5366C124.264 25.5009 124.324 25.4436 124.364 25.3726C124.403 25.3015 124.42 25.2201 124.412 25.1392C124.417 25.075 124.408 25.0105 124.387 24.9497C124.366 24.8889 124.332 24.8332 124.288 24.786C124.154 24.6589 123.998 24.5572 123.828 24.4858L122.713 23.956C122.458 23.8502 122.233 23.6834 122.058 23.4703C121.923 23.2638 121.857 23.0192 121.872 22.7728C121.855 22.6046 121.882 22.4349 121.95 22.2802C122.019 22.1254 122.126 21.9909 122.262 21.8898C122.632 21.6777 123.057 21.5822 123.483 21.616C123.874 21.6075 124.263 21.6673 124.633 21.7926C124.716 21.8144 124.792 21.8569 124.854 21.9162C124.896 21.9787 124.915 22.0535 124.907 22.1282V22.2165C124.907 22.3313 124.907 22.4019 124.837 22.4284C124.766 22.4549 124.722 22.4284 124.615 22.4284C124.247 22.3105 123.861 22.2539 123.474 22.2606C123.232 22.2431 122.99 22.2824 122.766 22.3754C122.698 22.414 122.643 22.471 122.607 22.5399C122.571 22.6088 122.556 22.6865 122.562 22.7639C122.57 22.9011 122.62 23.0326 122.705 23.1402C122.791 23.2478 122.908 23.3261 123.04 23.3644L124.2 23.8942C124.469 24.0012 124.708 24.1707 124.899 24.3887C125.051 24.5983 125.126 24.8541 125.111 25.1127C125.124 25.2841 125.092 25.456 125.017 25.6109C124.943 25.7659 124.828 25.8986 124.686 25.9957C124.29 26.2163 123.837 26.3146 123.385 26.2783C122.952 26.2819 122.52 26.2254 122.102 26.1105C122.014 26.0944 121.934 26.0512 121.872 25.9869C121.845 25.9587 121.825 25.9254 121.811 25.889C121.797 25.8526 121.791 25.8138 121.793 25.775Z" fill="#1E1E1E"/>
<path d="M126.403 22.0134L127.288 25.1481C127.318 25.2949 127.385 25.4316 127.483 25.5454C127.588 25.6201 127.717 25.6546 127.845 25.6426C127.964 25.6499 128.081 25.6121 128.173 25.5366C128.264 25.4234 128.328 25.2903 128.359 25.1481L129.111 22.0134C129.123 21.9239 129.164 21.8405 129.226 21.775C129.305 21.7265 129.398 21.7048 129.491 21.7132H129.571C129.704 21.7132 129.783 21.7132 129.81 21.775C129.836 21.8368 129.81 21.8898 129.81 22.0134L128.713 26.2077C128.403 27.4262 127.828 28.0708 126.881 28.1326C126.809 28.1582 126.731 28.1582 126.66 28.1326C126.601 28.0724 126.564 27.9949 126.553 27.9119V27.8324C126.553 27.7264 126.553 27.6646 126.553 27.6293C126.616 27.5803 126.695 27.5552 126.775 27.5587C127.069 27.5349 127.343 27.4026 127.544 27.1878C127.776 26.8932 127.941 26.5532 128.031 26.19C127.888 26.2581 127.73 26.2914 127.571 26.2871C127.454 26.2962 127.336 26.2796 127.226 26.2384C127.116 26.1972 127.016 26.1325 126.934 26.0487C126.75 25.8048 126.621 25.525 126.553 25.2275L125.668 22.0664C125.668 21.9428 125.668 21.8633 125.668 21.828C125.668 21.828 125.775 21.7662 125.899 21.7662H125.969C126.016 21.7574 126.063 21.7583 126.109 21.7689C126.155 21.7796 126.198 21.7997 126.235 21.828C126.273 21.8563 126.304 21.8921 126.327 21.9332C126.35 21.9743 126.363 22.0196 126.368 22.0664L126.403 22.0134Z" fill="#1E1E1E"/>
<path d="M130.456 25.775V25.6955C130.451 25.6558 130.454 25.6154 130.467 25.5773C130.479 25.5391 130.499 25.5041 130.527 25.4747C130.527 25.4747 130.642 25.4747 130.748 25.4747C131.184 25.5892 131.633 25.6485 132.084 25.6513C132.346 25.6706 132.609 25.6314 132.854 25.5366C132.929 25.5022 132.991 25.4455 133.032 25.3744C133.074 25.3032 133.092 25.221 133.084 25.1392C133.087 25.0744 133.077 25.0097 133.054 24.949C133.031 24.8882 132.996 24.8328 132.951 24.786C132.819 24.6567 132.663 24.5547 132.491 24.4858L131.376 23.956C131.123 23.8472 130.899 23.6809 130.721 23.4703C130.586 23.2638 130.521 23.0192 130.536 22.7728C130.519 22.6046 130.546 22.4349 130.614 22.2802C130.682 22.1254 130.789 21.9909 130.925 21.8898C131.295 21.6777 131.721 21.5822 132.146 21.616C132.53 21.6067 132.914 21.6635 133.279 21.7838C133.363 21.8031 133.44 21.846 133.5 21.9074C133.542 21.9699 133.56 22.0447 133.553 22.1193V22.2076C133.553 22.3224 133.553 22.3931 133.482 22.4196C133.412 22.4461 133.367 22.4196 133.261 22.4196C132.895 22.3027 132.513 22.246 132.128 22.2518C131.884 22.2338 131.638 22.2731 131.412 22.3666C131.345 22.4067 131.291 22.4641 131.256 22.5325C131.22 22.601 131.203 22.678 131.208 22.7551C131.215 22.8923 131.265 23.0238 131.351 23.1313C131.437 23.2389 131.554 23.3173 131.686 23.3555L132.845 23.8853C133.117 23.9924 133.359 24.1618 133.553 24.3798C133.699 24.5924 133.77 24.8468 133.757 25.1039C133.77 25.2753 133.737 25.4471 133.663 25.6021C133.588 25.7571 133.474 25.8898 133.332 25.9869C132.936 26.2074 132.483 26.3058 132.031 26.2695C131.598 26.2725 131.166 26.2161 130.748 26.1017C130.661 26.0835 130.581 26.0406 130.518 25.9781C130.476 25.9188 130.454 25.8476 130.456 25.775Z" fill="#1E1E1E"/>
<path d="M134.367 22.1103V22.0662C134.36 21.9916 134.379 21.9167 134.42 21.8543C134.477 21.8128 134.545 21.7883 134.615 21.7836L135.137 21.713L135.234 20.777C135.232 20.7071 135.254 20.6387 135.296 20.5828C135.358 20.5399 135.434 20.521 135.509 20.5298H135.571C135.605 20.525 135.64 20.5273 135.673 20.5364C135.707 20.5455 135.738 20.5613 135.765 20.5828C135.808 20.638 135.827 20.7078 135.818 20.777V21.713H137.296C137.374 21.7029 137.453 21.7217 137.518 21.766C137.562 21.8339 137.581 21.9152 137.571 21.9955V22.075C137.581 22.1554 137.562 22.2367 137.518 22.3046C137.453 22.3488 137.374 22.3677 137.296 22.3576H135.818V24.6622C135.799 24.9227 135.871 25.1819 136.022 25.3951C136.106 25.4763 136.206 25.5388 136.316 25.5784C136.426 25.6179 136.543 25.6337 136.659 25.6247C136.93 25.6342 137.202 25.6044 137.464 25.5364C137.498 25.5218 137.534 25.5143 137.571 25.5143C137.607 25.5143 137.643 25.5218 137.677 25.5364C137.721 25.5364 137.739 25.6512 137.739 25.766V25.8454C137.744 25.9212 137.722 25.9964 137.677 26.0574C137.616 26.1168 137.539 26.1568 137.456 26.1722C137.198 26.2365 136.933 26.2662 136.668 26.2604C135.642 26.2604 135.137 25.7307 135.137 24.6534V22.3488H134.615C134.552 22.3696 134.484 22.3696 134.42 22.3488C134.394 22.3155 134.376 22.2768 134.367 22.2356C134.357 22.1943 134.358 22.1515 134.367 22.1103Z" fill="#1E1E1E"/>
<path d="M142.093 23.435C142.104 23.5996 142.104 23.7649 142.093 23.9295C142.088 24.0134 142.057 24.0938 142.004 24.1591C141.933 24.2025 141.849 24.2211 141.765 24.2121H139.013V24.4858C138.998 24.6488 139.021 24.813 139.079 24.966C139.137 25.119 139.23 25.2568 139.349 25.3688C139.671 25.5705 140.05 25.6634 140.429 25.6337C140.848 25.6356 141.265 25.5792 141.668 25.4659C141.783 25.4659 141.854 25.4659 141.898 25.4659C141.942 25.4659 141.96 25.5719 141.96 25.6867V25.775C141.965 25.8455 141.95 25.9161 141.916 25.9781C141.849 26.0409 141.766 26.0837 141.677 26.1017C141.272 26.2209 140.851 26.2775 140.429 26.2695C139.861 26.3176 139.295 26.1575 138.836 25.8191C138.653 25.6279 138.513 25.3997 138.426 25.1498C138.339 24.9 138.307 24.6344 138.332 24.371V23.488C138.295 23.2278 138.319 22.9626 138.402 22.7133C138.486 22.4641 138.626 22.2376 138.813 22.0517C138.999 21.8659 139.226 21.7258 139.476 21.6425C139.725 21.5593 139.991 21.5351 140.252 21.5719C140.758 21.5359 141.257 21.701 141.641 22.0311C141.813 22.2188 141.943 22.4415 142.021 22.6838C142.099 22.9261 142.123 23.1824 142.093 23.435ZM138.987 23.3379V23.6381H141.447V23.3379C141.447 22.5962 141.031 22.2341 140.217 22.2341C139.402 22.2341 138.987 22.5962 138.987 23.3379Z" fill="#1E1E1E"/>
<path d="M143.756 23.3199V25.8983C143.77 25.9389 143.772 25.9826 143.763 26.0244C143.753 26.0662 143.732 26.1044 143.701 26.1347C143.671 26.1651 143.633 26.1863 143.591 26.196C143.549 26.2057 143.505 26.2035 143.464 26.1897H143.367C143.284 26.1975 143.2 26.179 143.128 26.1367C143.083 26.0658 143.064 25.9815 143.075 25.8983V23.3199C143.042 23.0833 143.065 22.8421 143.144 22.6162C143.222 22.3904 143.353 22.1863 143.526 22.0208C143.698 21.8553 143.908 21.733 144.137 21.6642C144.367 21.5953 144.609 21.5817 144.845 21.6246C145.128 21.5855 145.415 21.6371 145.667 21.772C145.918 21.907 146.12 22.1182 146.243 22.3751C146.369 22.1208 146.572 21.9119 146.822 21.7775C147.073 21.643 147.359 21.5896 147.641 21.6246C147.877 21.5817 148.119 21.5953 148.349 21.6642C148.578 21.733 148.788 21.8553 148.961 22.0208C149.133 22.1863 149.264 22.3904 149.343 22.6162C149.421 22.8421 149.444 23.0833 149.411 23.3199V25.8983C149.422 25.9815 149.403 26.0658 149.358 26.1367C149.286 26.179 149.202 26.1975 149.119 26.1897H149.022C148.938 26.1988 148.854 26.1801 148.783 26.1367C148.738 26.0658 148.719 25.9815 148.73 25.8983V23.3199C148.757 23.0287 148.671 22.7381 148.491 22.5076C148.379 22.417 148.25 22.3493 148.112 22.3084C147.974 22.2675 147.829 22.2542 147.685 22.2692C147.388 22.2376 147.089 22.3231 146.854 22.5076C146.679 22.7405 146.597 23.03 146.624 23.3199V25.8983C146.624 26.0219 146.624 26.1014 146.562 26.1367C146.494 26.1808 146.412 26.1996 146.332 26.1897H146.234C146.154 26.1996 146.072 26.1808 146.004 26.1367C145.959 26.0658 145.94 25.9815 145.951 25.8983V23.3199C145.976 23.0275 145.887 22.7368 145.703 22.5076C145.46 22.3517 145.178 22.2688 144.889 22.2688C144.6 22.2688 144.318 22.3517 144.075 22.5076C143.866 22.726 143.751 23.0179 143.756 23.3199Z" fill="#1E1E1E"/>
</g>
<path d="M39.6802 15.9734C38.7678 11.5623 36.3904 7.58728 32.9329 4.69167C29.4753 1.79607 25.1398 0.149216 20.6277 0.0175781C20.2826 0.0175781 19.9375 0.0175781 19.5835 0.0175781C19.3977 0.0175781 19.1941 0.0175781 18.9995 0.0175781C15.9542 0.177067 12.9857 1.0284 10.3203 2.50664C7.65484 3.98488 5.36296 6.05099 3.61942 8.54738C3.54024 8.62763 3.47451 8.72005 3.42473 8.82111C1.63624 11.4784 0.512765 14.5251 0.148642 17.7054C-0.215481 20.8856 0.190377 24.1066 1.33213 27.098C2.47389 30.0893 4.31822 32.7637 6.71027 34.8965C9.10233 37.0294 11.9723 38.5584 15.0792 39.3553H15.2297C15.6013 39.4525 15.9818 39.5319 16.3624 39.6026C17.4971 39.8203 18.6492 39.9355 19.8047 39.9469H20.0437C20.5835 39.9469 21.1233 39.9469 21.6719 39.8851C26.0136 39.52 30.1185 37.7556 33.3671 34.8582C36.6156 31.9608 38.8314 28.0877 39.6802 23.8233C39.9299 22.5642 40.0544 21.2835 40.0519 19.9999C40.0596 18.6489 39.9351 17.3003 39.6802 15.9734ZM24.4683 34.8785L23.8931 35.0374C24.5471 33.7816 25.0236 32.4414 25.309 31.0551L25.7603 29.0684L29.1761 14.2163C29.3773 13.6676 29.355 13.0622 29.1142 12.5297C28.907 12.3374 28.6432 12.2166 28.362 12.1853C27.5109 12.1153 26.6556 12.1153 25.8045 12.1853C25.4853 12.2302 25.1818 12.3514 24.9196 12.5386L24.8311 12.6357L24.7072 12.777C24.4348 13.2132 24.243 13.6947 24.1409 14.1986L21.6277 25.6776C21.5488 26.132 21.3639 26.5616 21.0879 26.9315C20.96 27.0682 20.7982 27.1687 20.6189 27.2229H20.3622H20.2118C19.7917 27.2519 19.3733 27.1468 19.0171 26.9227C18.7129 26.5489 18.5143 26.1007 18.4419 25.6246L15.9199 14.1456C15.8319 13.5105 15.5437 12.9198 15.0969 12.4591C14.5632 12.1445 13.9449 12.0026 13.3271 12.0529H12.4421C11.8755 11.9739 11.3005 12.1197 10.8404 12.4591C10.7604 12.5709 10.7116 12.7019 10.6988 12.8388C10.6897 12.8884 10.6897 12.9393 10.6988 12.9889C10.6855 13.124 10.6855 13.26 10.6988 13.3951C10.691 13.5156 10.691 13.6365 10.6988 13.7571C10.6988 13.8807 10.7431 14.0132 10.7696 14.1456L13.6014 26.2074C13.8112 27.1974 14.1256 28.1623 14.5394 29.086C14.6014 29.2361 14.6722 29.3774 14.7429 29.5099L14.8137 29.6423L14.9199 29.8013C15.0427 29.998 15.1819 30.184 15.3358 30.3575C15.4427 30.4805 15.5613 30.5929 15.6898 30.6931C15.8192 30.8002 15.9584 30.8948 16.1057 30.9756C16.5506 31.2273 17.0407 31.3894 17.5482 31.4525H17.7871C18.0546 31.4811 18.3234 31.4958 18.5924 31.4966C18.8844 31.4966 19.141 31.4966 19.3534 31.4966H19.5658C19.752 31.4811 19.9359 31.4455 20.1145 31.3906C19.9302 32.2836 19.502 33.1084 18.8773 33.7738C18.2527 34.4392 17.4558 34.9193 16.5747 35.1611C12.8962 34.312 9.65324 32.1556 7.45187 29.0947C5.2505 26.0338 4.24131 22.2779 4.61285 18.5287C4.98439 14.7794 6.71124 11.2935 9.47076 8.72205C12.2303 6.15064 15.8337 4.66971 19.6076 4.55598C23.3816 4.44225 27.068 5.70349 29.978 8.10405C32.888 10.5046 34.8226 13.8803 35.4202 17.6003C36.0178 21.3203 35.2376 25.1301 33.2253 28.318C31.2131 31.5059 28.1065 33.8536 24.486 34.9227L24.4683 34.8785Z" fill="#FFC404"/>
</svg>
