<svg width="189" height="61" viewBox="0 0 189 61" fill="none" xmlns="http://www.w3.org/2000/svg">
<path d="M0 33.7414V26.7561C0 16.7616 0 11.7644 1.95309 8.18309C3.69252 4.99354 6.34555 2.57751 9.68348 1.14326C13.4314 -0.46716 18.4855 0.00647163 28.5937 0.953735C49.419 2.90532 77.4349 5.09792 97.832 5.056C118.414 5.0137 144.965 2.7913 164.279 0.852058C169.968 0.280894 172.812 -0.0046885 174.919 0.347082C181.707 1.4801 186.845 6.57034 188.041 13.3466C188.413 15.4504 188.16 18.2248 187.656 23.7736V23.7738C187.578 24.6314 187.539 25.0602 187.511 25.4892C187.426 26.8152 187.424 28.1452 187.505 29.4714C187.531 29.8999 187.569 30.3283 187.644 31.1839L187.644 31.1873L187.712 31.9672C188.487 40.7931 188.874 45.2061 187.476 48.7296C186.119 52.1496 183.576 55.0418 180.357 56.8247C177.041 58.6616 172.653 58.8398 163.877 59.1964C143.407 60.0279 114.928 61 93.6622 61C72.0972 61 44.0168 60.0004 24.2466 59.1614C15.8097 58.8033 11.5912 58.6243 8.31617 56.8312C5.45302 55.2636 3.09742 52.8059 1.65263 49.8789C0 46.5308 0 42.2677 0 33.7414Z" fill="#FFC404" fill-opacity="0.4"/>
</svg>
