<svg width="25" height="24" viewBox="0 0 25 24" fill="none" xmlns="http://www.w3.org/2000/svg">
<path d="M21.2762 16.8354C20.6199 12.8866 18.5767 9.94613 16.8005 8.219C16.2836 7.71642 16.0252 7.46513 15.4543 7.23257C14.8834 7 14.3927 7 13.4113 7H11.2557C10.2743 7 9.78359 7 9.21271 7.23257C8.64183 7.46513 8.3834 7.71642 7.86653 8.219C6.09031 9.94613 4.0471 12.8866 3.39076 16.8354C2.90242 19.7734 5.61276 22 8.64181 22H16.0252C19.0542 22 21.7646 19.7734 21.2762 16.8354Z" stroke="#1E1E1E" stroke-width="1.5" stroke-linecap="round" stroke-linejoin="round"/>
<path d="M7.59012 4.44287C7.38381 4.14258 7.08478 3.73499 7.70249 3.64205C8.33742 3.54651 8.99671 3.98114 9.64205 3.97221C10.2259 3.96413 10.5233 3.70519 10.8424 3.33548C11.1784 2.94617 11.6987 2 12.3335 2C12.9683 2 13.4886 2.94617 13.8246 3.33548C14.1437 3.70519 14.4411 3.96413 15.0249 3.97221C15.6703 3.98114 16.3296 3.54651 16.9645 3.64205C17.5822 3.73499 17.2832 4.14258 17.0769 4.44287L16.144 5.80064C15.745 6.38146 15.5455 6.67187 15.1279 6.83594C14.7104 7 14.1708 7 13.0917 7H11.5753C10.4962 7 9.9566 7 9.53906 6.83594C9.12152 6.67187 8.922 6.38146 8.52295 5.80064L7.59012 4.44287Z" stroke="#1E1E1E" stroke-width="1.5" stroke-linejoin="round"/>
<path d="M13.9602 12.9186C13.744 12.1205 12.6436 11.4003 11.3227 11.9391C10.0018 12.4778 9.79197 14.2113 11.79 14.3955C12.693 14.4787 13.2818 14.2989 13.8208 14.8076C14.3599 15.3162 14.46 16.7308 13.082 17.112C11.704 17.4932 10.3395 16.8976 10.1909 16.0517M12.1752 10.9927V11.7531M12.1752 17.2293V17.9927" stroke="#1E1E1E" stroke-width="1.5" stroke-linecap="round" stroke-linejoin="round"/>
</svg>
