<svg width="24" height="24" viewBox="0 0 24 24" fill="none" xmlns="http://www.w3.org/2000/svg">
<g clip-path="url(#clip0_2396_3611)">
<path d="M23.52 12C23.52 18.3521 18.3521 23.52 12 23.52C5.6479 23.52 0.47998 18.3521 0.47998 12C0.47998 11.6023 0.80206 11.28 1.19998 11.28C1.5979 11.28 1.91998 11.6023 1.91998 12C1.91998 17.5581 6.44182 22.08 12 22.08C17.5581 22.08 22.08 17.5581 22.08 12C22.08 6.44182 17.5581 1.91998 12 1.91998C9.32134 1.91998 6.83374 2.96134 4.9627 4.79998H7.67998C8.0779 4.79998 8.39998 5.1223 8.39998 5.51998C8.39998 5.91766 8.0779 6.23998 7.67998 6.23998H3.35998C2.96206 6.23998 2.63998 5.91766 2.63998 5.51998V1.19998C2.63998 0.8023 2.96206 0.47998 3.35998 0.47998C3.7579 0.47998 4.07998 0.8023 4.07998 1.19998V3.6559C6.20422 1.62838 8.99542 0.47998 12 0.47998C18.3521 0.47998 23.52 5.6479 23.52 12ZM12.72 11.28H11.28C10.8828 11.28 10.56 10.9569 10.56 10.56C10.56 10.163 10.8828 9.83998 11.28 9.83998H14.16C14.5579 9.83998 14.88 9.51766 14.88 9.11998C14.88 8.7223 14.5579 8.39998 14.16 8.39998H12.72V7.67998C12.72 7.2823 12.3979 6.95998 12 6.95998C11.6021 6.95998 11.28 7.2823 11.28 7.67998V8.39998C10.0889 8.39998 9.11998 9.36886 9.11998 10.56C9.11998 11.7511 10.0889 12.72 11.28 12.72H12.72C13.1172 12.72 13.44 13.043 13.44 13.44C13.44 13.8369 13.1172 14.16 12.72 14.16H9.83998C9.44206 14.16 9.11998 14.4823 9.11998 14.88C9.11998 15.2777 9.44206 15.6 9.83998 15.6H11.28V16.32C11.28 16.7177 11.6021 17.04 12 17.04C12.3979 17.04 12.72 16.7177 12.72 16.32V15.6C13.9111 15.6 14.88 14.6311 14.88 13.44C14.88 12.2489 13.9111 11.28 12.72 11.28Z" fill="#1E1E1E"/>
</g>
<defs>
<clipPath id="clip0_2396_3611">
<rect width="24" height="24" fill="white"/>
</clipPath>
</defs>
</svg>
