<svg width="33" height="32" viewBox="0 0 33 32" fill="none" xmlns="http://www.w3.org/2000/svg">
<path fill-rule="evenodd" clip-rule="evenodd" d="M24.6137 7.77372C23.5716 7.66771 22.2268 7.6665 20.3333 7.6665L12.3333 7.6665C10.4399 7.6665 9.0951 7.66771 8.053 7.77372C7.02761 7.87803 6.40676 8.07548 5.92586 8.3968C5.45271 8.71296 5.04645 9.11921 4.7303 9.59237C4.40897 10.0733 4.21153 10.6941 4.10722 11.7195C4.00121 12.7616 4 14.1064 4 15.9998C4 17.8933 4.00121 19.2381 4.10722 20.2802C4.21153 21.3056 4.40897 21.9264 4.7303 22.4073C5.04645 22.8805 5.45271 23.2867 5.92586 23.6029C6.40676 23.9242 7.02761 24.1216 8.053 24.226C9.09511 24.332 10.4399 24.3332 12.3333 24.3332H20.3333C22.2268 24.3332 23.5716 24.332 24.6137 24.226C25.6391 24.1216 26.2599 23.9242 26.7408 23.6029C27.214 23.2867 27.6202 22.8805 27.9364 22.4073C28.2577 21.9264 28.4551 21.3056 28.5594 20.2802C28.6655 19.2381 28.6667 17.8933 28.6667 15.9998C28.6667 14.1064 28.6655 12.7616 28.5594 11.7195C28.4551 10.6941 28.2577 10.0733 27.9364 9.59237C27.6202 9.11921 27.214 8.71296 26.7408 8.3968C26.2599 8.07548 25.6391 7.87803 24.6137 7.77372ZM24.8161 5.78399C25.9996 5.90439 26.9877 6.15636 27.8519 6.73386C28.5435 7.19593 29.1372 7.78969 29.5993 8.48123C30.1768 9.34552 30.4288 10.3336 30.5492 11.5171C30.6667 12.6722 30.6667 14.1188 30.6667 15.9444V16.0552C30.6667 17.8809 30.6667 19.3274 30.5492 20.4826C30.4288 21.6661 30.1768 22.6542 29.5993 23.5184C29.1372 24.21 28.5435 24.8037 27.8519 25.2658C26.9877 25.8433 25.9996 26.0953 24.8161 26.2157C23.6609 26.3332 22.2144 26.3332 20.3888 26.3332H12.2779C10.4523 26.3332 9.00573 26.3332 7.85059 26.2157C6.66707 26.0953 5.67902 25.8433 4.81472 25.2658C4.12319 24.8037 3.52943 24.21 3.06736 23.5184C2.48986 22.6542 2.23789 21.6661 2.11749 20.4826C1.99998 19.3274 1.99999 17.8809 2 16.0553V15.9444C1.99999 14.1188 1.99998 12.6722 2.11749 11.5171C2.23789 10.3336 2.48986 9.34552 3.06736 8.48123C3.52943 7.78969 4.12318 7.19593 4.81472 6.73386C5.67902 6.15636 6.66707 5.90439 7.85059 5.78399C9.00573 5.66648 10.4523 5.66649 12.2779 5.6665L20.3888 5.6665C22.2144 5.66649 23.6609 5.66648 24.8161 5.78399ZM7.66667 10.9998C8.21895 10.9998 8.66667 11.4476 8.66667 11.9998L8.66667 19.9998C8.66667 20.5521 8.21895 20.9998 7.66667 20.9998C7.11438 20.9998 6.66667 20.5521 6.66667 19.9998L6.66667 11.9998C6.66667 11.4476 7.11438 10.9998 7.66667 10.9998ZM16.3333 12.9998C14.6765 12.9998 13.3333 14.343 13.3333 15.9998C13.3333 17.6567 14.6765 18.9998 16.3333 18.9998C17.9902 18.9998 19.3333 17.6567 19.3333 15.9998C19.3333 14.343 17.9902 12.9998 16.3333 12.9998ZM11.3333 15.9998C11.3333 13.2384 13.5719 10.9998 16.3333 10.9998C19.0948 10.9998 21.3333 13.2384 21.3333 15.9998C21.3333 18.7613 19.0948 20.9998 16.3333 20.9998C13.5719 20.9998 11.3333 18.7613 11.3333 15.9998ZM25 10.9998C25.5523 10.9998 26 11.4476 26 11.9998V19.9998C26 20.5521 25.5523 20.9998 25 20.9998C24.4477 20.9998 24 20.5521 24 19.9998V11.9998C24 11.4476 24.4477 10.9998 25 10.9998Z" fill="#1E1E1E"/>
</svg>
