<svg width="25" height="24" viewBox="0 0 25 24" fill="none" xmlns="http://www.w3.org/2000/svg">
<path fill-rule="evenodd" clip-rule="evenodd" d="M8.46022 3.56039C8.1028 3.24269 7.56419 3.24269 7.20677 3.56039C6.32125 4.34752 5.00634 4.38173 4.0835 3.66301V20.3368C5.00634 19.6181 6.32125 19.6523 7.20677 20.4395C7.56419 20.7572 8.1028 20.7572 8.46022 20.4395C9.38597 19.6166 10.781 19.6166 11.7068 20.4395C12.0642 20.7572 12.6028 20.7572 12.9602 20.4395C13.886 19.6166 15.281 19.6166 16.2068 20.4395C16.5642 20.7572 17.1028 20.7572 17.4602 20.4395C18.3457 19.6523 19.6607 19.6181 20.5835 20.3368V3.66301C19.6607 4.38173 18.3457 4.34752 17.4602 3.56039C17.1028 3.24269 16.5642 3.24269 16.2068 3.56039C15.281 4.38328 13.886 4.38328 12.9602 3.56039C12.6028 3.24269 12.0642 3.24269 11.7068 3.56039C10.781 4.38328 9.38597 4.38328 8.46022 3.56039ZM6.21022 2.43928C7.13597 1.61639 8.53102 1.61639 9.45677 2.43928C9.81419 2.75699 10.3528 2.75699 10.7102 2.43928C11.636 1.61639 13.031 1.61639 13.9568 2.43928C14.3142 2.75699 14.8528 2.75699 15.2102 2.43928C16.136 1.61639 17.531 1.61639 18.4568 2.43928C18.8142 2.75699 19.3528 2.75699 19.7102 2.43928C20.6298 1.62187 22.0835 2.27467 22.0835 3.50504V20.4948C22.0835 21.7252 20.6298 22.378 19.7102 21.5606C19.3528 21.2429 18.8142 21.2429 18.4568 21.5606C17.531 22.3835 16.136 22.3835 15.2102 21.5606C14.8528 21.2429 14.3142 21.2429 13.9568 21.5606C13.031 22.3835 11.636 22.3835 10.7102 21.5606C10.3528 21.2429 9.81419 21.2429 9.45677 21.5606C8.53102 22.3835 7.13597 22.3835 6.21022 21.5606C5.8528 21.2429 5.31419 21.2429 4.95677 21.5606C4.03718 22.378 2.5835 21.7252 2.5835 20.4948V3.50504C2.5835 2.27467 4.03718 1.62187 4.95677 2.43928C5.31419 2.75699 5.8528 2.75699 6.21022 2.43928ZM7.0835 8.50001C7.0835 8.0858 7.41928 7.75001 7.8335 7.75001H16.8335C17.2477 7.75001 17.5835 8.0858 17.5835 8.50001C17.5835 8.91423 17.2477 9.25001 16.8335 9.25001H7.8335C7.41928 9.25001 7.0835 8.91423 7.0835 8.50001ZM7.0835 12C7.0835 11.5858 7.41928 11.25 7.8335 11.25H16.8335C17.2477 11.25 17.5835 11.5858 17.5835 12C17.5835 12.4142 17.2477 12.75 16.8335 12.75H7.8335C7.41928 12.75 7.0835 12.4142 7.0835 12ZM7.0835 15.5C7.0835 15.0858 7.41928 14.75 7.8335 14.75H16.8335C17.2477 14.75 17.5835 15.0858 17.5835 15.5C17.5835 15.9142 17.2477 16.25 16.8335 16.25H7.8335C7.41928 16.25 7.0835 15.9142 7.0835 15.5Z" fill="#1E1E1E"/>
</svg>
