<svg width="32" height="32" viewBox="0 0 32 32" fill="none" xmlns="http://www.w3.org/2000/svg">
<path d="M20.9494 22.3637L9.63567 11.05C9.24911 10.6635 9.24911 10.0224 9.63567 9.63582C10.0222 9.24927 10.6633 9.24927 11.0499 9.63582L22.3636 20.9495C22.7501 21.3361 22.7501 21.9772 22.3636 22.3637C21.977 22.7503 21.3359 22.7503 20.9494 22.3637Z" fill="white"/>
<path d="M9.63592 22.3637C9.24937 21.9772 9.24937 21.3361 9.63592 20.9495L20.9496 9.63582C21.3362 9.24927 21.9773 9.24927 22.3638 9.63582C22.7504 10.0224 22.7504 10.6635 22.3638 11.05L11.0501 22.3637C10.6636 22.7503 10.0225 22.7503 9.63592 22.3637Z" fill="white"/>
</svg>
