<svg width="20" height="20" viewBox="0 0 20 20" fill="none" xmlns="http://www.w3.org/2000/svg">
<g clip-path="url(#clip0_2347_2698)">
<path d="M20 9.99996C20 8.77676 19.78 7.605 19.378 6.52172L10 6.08691L0.621992 6.52168C0.220039 7.605 0 8.77676 0 9.99996C0 11.2232 0.220039 12.3949 0.621992 13.4782L10 13.913L19.378 13.4782C19.78 12.3949 20 11.2232 20 9.99996Z" fill="#D80027"/>
<path d="M10.0001 19.9998C14.2997 19.9998 17.9652 17.286 19.3781 13.478H0.62207C2.035 17.286 5.70043 19.9998 10.0001 19.9998Z" fill="#6DA544"/>
<path d="M0.62207 6.52176H19.3781C17.9652 2.71375 14.2997 0 10.0001 0C5.70043 0 2.035 2.71375 0.62207 6.52176Z" fill="#338AF3"/>
<path d="M10.2175 12.8259C8.65676 12.8259 7.39145 11.5605 7.39145 9.99977C7.39145 8.43898 8.65676 7.17367 10.2175 7.17367C10.7042 7.17367 11.1621 7.29672 11.5619 7.51336C10.9347 6.90004 10.077 6.52148 9.13059 6.52148C7.20957 6.52148 5.65234 8.07875 5.65234 9.99973C5.65234 11.9207 7.20961 13.478 9.13059 13.478C10.0771 13.478 10.9347 13.0994 11.5619 12.4861C11.1621 12.7028 10.7042 12.8259 10.2175 12.8259Z" fill="#F0F0F0"/>
<path d="M12.3911 8.04346L12.7654 9.09623L13.7746 8.61647L13.2948 9.62561L14.3476 9.99998L13.2948 10.3744L13.7746 11.3835L12.7654 10.9037L12.3911 11.9565L12.0168 10.9037L11.0076 11.3835L11.4874 10.3744L10.4346 9.99998L11.4874 9.62561L11.0076 8.61647L12.0168 9.09623L12.3911 8.04346Z" fill="#F0F0F0"/>
</g>
<defs>
<clipPath id="clip0_2347_2698">
<rect width="20" height="20" fill="white"/>
</clipPath>
</defs>
</svg>
