<svg width="20" height="20" viewBox="0 0 20 20" fill="none" xmlns="http://www.w3.org/2000/svg">
<g clip-path="url(#clip0_2347_2756)">
<path d="M10 20C15.5223 20 20 15.5223 20 10C20 4.47773 15.5223 0 10 0C4.47773 0 0 4.47773 0 10C0 15.5223 4.47773 20 10 20Z" fill="#F0F0F0"/>
<path d="M19.3777 13.4765C20.2074 11.2322 20.2074 8.76526 19.3777 6.521H0.62227C-0.207423 8.76526 -0.207423 11.2322 0.62227 13.4765L10 14.3503L19.3777 13.4765Z" fill="#0052B4"/>
<path d="M9.9998 20C14.2998 20 17.9662 17.2891 19.3775 13.4766H0.62207C2.03496 17.2891 5.6998 20 9.9998 20Z" fill="#D80027"/>
</g>
<defs>
<clipPath id="clip0_2347_2756">
<rect width="20" height="20" fill="white"/>
</clipPath>
</defs>
</svg>
