<svg width="28" height="22" viewBox="0 0 28 22" fill="none" xmlns="http://www.w3.org/2000/svg">
<path fill-rule="evenodd" clip-rule="evenodd" d="M2.2286 1.89511C0.666504 3.4572 0.666504 5.97136 0.666504 10.9997C0.666504 16.028 0.666504 18.5421 2.2286 20.1042C3.7907 21.6663 6.30486 21.6663 11.3332 21.6663H16.6665C21.6948 21.6663 24.209 21.6663 25.7711 20.1042C27.3332 18.5421 27.3332 16.028 27.3332 10.9997C27.3332 5.97136 27.3332 3.4572 25.7711 1.89511C24.209 0.333008 21.6948 0.333008 16.6665 0.333008H11.3332C6.30486 0.333008 3.7907 0.333008 2.2286 1.89511ZM22.7681 5.02616C23.1216 5.45043 23.0643 6.081 22.64 6.43456L19.7114 8.8751C18.5296 9.85998 17.5717 10.6582 16.7263 11.202C15.8456 11.7684 14.9879 12.1262 13.9998 12.1262C13.0117 12.1262 12.1541 11.7684 11.2734 11.202C10.428 10.6582 9.47012 9.85998 8.28831 8.87511L5.35965 6.43456C4.93538 6.081 4.87805 5.45043 5.23162 5.02616C5.58518 4.60188 6.21574 4.54456 6.64002 4.89812L9.51855 7.29689C10.7625 8.33351 11.6261 9.05089 12.3553 9.51985C13.0611 9.97379 13.5397 10.1262 13.9998 10.1262C14.4599 10.1262 14.9386 9.97379 15.6444 9.51985C16.3735 9.05089 17.2372 8.33351 18.4811 7.29689L21.3597 4.89812C21.7839 4.54456 22.4145 4.60188 22.7681 5.02616Z" fill="white"/>
</svg>
