<svg width="181" height="55" viewBox="0 0 181 55" fill="none" xmlns="http://www.w3.org/2000/svg">
<path d="M88.4396 25.1252C88.9179 25.4447 89.6353 25.6843 90.3528 25.6843C91.4688 25.6843 92.1066 25.1252 92.1066 24.2467C92.1066 23.448 91.6283 23.0486 90.5122 22.5694C89.1571 22.0902 88.2802 21.3714 88.2802 20.1733C88.2802 18.8954 89.3962 17.937 90.9905 17.937C91.8674 17.937 92.4254 18.0967 92.824 18.3364L92.5051 19.2149C92.266 19.0552 91.708 18.8156 90.9108 18.8156C89.7948 18.8156 89.3165 19.5344 89.3165 20.0935C89.3165 20.8922 89.7948 21.2915 90.9905 21.6909C92.4254 22.2499 93.0632 22.8889 93.0632 24.1668C93.0632 25.4447 92.1066 26.5629 90.1934 26.5629C89.3962 26.5629 88.5193 26.3232 88.041 26.0038L88.4396 25.1252Z" fill="#1A1A1A"/>
<path d="M95.2941 23.6074C95.2941 25.0451 96.2507 25.684 97.3668 25.684C98.1639 25.684 98.6422 25.5243 99.0408 25.3645L99.2002 26.1632C98.8017 26.323 98.1639 26.5626 97.2073 26.5626C95.3738 26.5626 94.2578 25.3645 94.2578 23.5276C94.2578 21.6906 95.3738 20.2529 97.0479 20.2529C98.9611 20.2529 99.5191 22.01 99.5191 23.0483C99.5191 23.2879 99.5191 23.4477 99.5191 23.6074H95.2941ZM98.4828 22.8886C98.4828 22.1698 98.1639 21.1315 96.9682 21.1315C95.8521 21.1315 95.3738 22.1698 95.2941 22.8886H98.4828Z" fill="#1A1A1A"/>
<path d="M105.18 26.2433C104.861 26.403 104.223 26.5628 103.426 26.5628C101.593 26.5628 100.477 25.3648 100.477 23.5278C100.477 21.6908 101.752 20.333 103.665 20.333C104.303 20.333 104.861 20.4927 105.18 20.6525L104.941 21.4512C104.702 21.2914 104.303 21.1317 103.665 21.1317C102.31 21.1317 101.513 22.17 101.513 23.4479C101.513 24.8057 102.39 25.6842 103.586 25.6842C104.223 25.6842 104.622 25.5245 104.941 25.3648L105.18 26.2433Z" fill="#1A1A1A"/>
<path d="M111.397 24.8057C111.397 25.4446 111.397 26.0037 111.477 26.403H110.52L110.441 25.4446C110.201 25.9238 109.484 26.5628 108.448 26.5628C107.491 26.5628 106.375 26.0037 106.375 23.9271V20.4129H107.491V23.6875C107.491 24.8057 107.89 25.6044 108.846 25.6044C109.564 25.6044 110.122 25.1251 110.281 24.5661C110.361 24.4063 110.361 24.2466 110.361 24.007V20.333H111.477V24.8057" fill="#1A1A1A"/>
<path d="M113.23 22.3295C113.23 21.6106 113.23 21.0515 113.15 20.4925H114.107L114.187 21.6905C114.426 20.8918 115.143 20.4126 115.861 20.4126C115.94 20.4126 116.1 20.4126 116.18 20.4126V21.4509C116.02 21.4509 115.94 21.4509 115.781 21.4509C114.984 21.4509 114.506 22.01 114.346 22.8087C114.346 22.9684 114.346 23.1281 114.346 23.3677V26.5625H113.23V22.3295Z" fill="#1A1A1A"/>
<path d="M117.854 19.3747C117.456 19.3747 117.137 19.0552 117.137 18.6558C117.137 18.2565 117.456 17.937 117.854 17.937C118.253 17.937 118.572 18.2565 118.572 18.6558C118.572 19.0552 118.332 19.3747 117.854 19.3747ZM118.412 26.483H117.376V20.4928H118.492V26.483H118.412Z" fill="#1A1A1A"/>
<path d="M121.522 19.0547V20.4923H123.117V21.291H121.522V24.5656C121.522 25.2845 121.761 25.7637 122.319 25.7637C122.638 25.7637 122.798 25.7637 122.957 25.6838L123.037 26.4825C122.798 26.5624 122.479 26.6422 122.08 26.6422C121.602 26.6422 121.203 26.4825 120.884 26.163C120.566 25.8435 120.486 25.2845 120.486 24.5656V21.291H119.529V20.4923H120.486V19.3742L121.522 19.0547Z" fill="#1A1A1A"/>
<path d="M124.871 20.4925L126.146 24.0067C126.306 24.406 126.465 24.8853 126.545 25.2047C126.625 24.8853 126.784 24.406 126.943 23.9268L128.139 20.4126H129.255L127.581 24.7255C126.784 26.8021 126.306 27.8404 125.509 28.4794C124.951 28.9586 124.472 29.1183 124.153 29.1982L123.914 28.3196C124.153 28.2398 124.552 28.08 124.871 27.7605C125.19 27.5209 125.509 27.1216 125.748 26.5625C125.827 26.4826 125.827 26.4028 125.827 26.3229C125.827 26.243 125.827 26.1632 125.748 26.0833L123.516 20.5723H124.871" fill="#1A1A1A"/>
<path d="M88.4396 37.5046C88.9179 37.8241 89.6353 38.0637 90.3528 38.0637C91.4688 38.0637 92.1066 37.5046 92.1066 36.6261C92.1066 35.8274 91.6283 35.428 90.5122 34.9488C89.1571 34.4696 88.2802 33.7508 88.2802 32.5527C88.2802 31.2748 89.3962 30.3164 90.9905 30.3164C91.8674 30.3164 92.4254 30.4761 92.824 30.7158L92.5051 31.5943C92.266 31.4346 91.708 31.195 90.9108 31.195C89.7948 31.195 89.3165 31.9138 89.3165 32.4729C89.3165 33.2716 89.7948 33.6709 90.9905 34.0702C92.4254 34.6293 93.0632 35.2683 93.0632 36.5462C93.0632 37.8241 92.1066 38.9423 90.1934 38.9423C89.3962 38.9423 88.5193 38.7026 88.041 38.3832L88.4396 37.5046Z" fill="#1A1A1A"/>
<path d="M95.8542 31.4346V32.8722H97.4486V33.6709H95.8542V36.8657C95.8542 37.5845 96.0934 38.0637 96.6514 38.0637C96.9703 38.0637 97.1297 38.0637 97.2891 37.9838L97.3689 38.7825C97.1297 38.8624 96.8108 38.9422 96.4123 38.9422C95.934 38.9422 95.5354 38.7825 95.2165 38.463C94.8976 38.1436 94.8179 37.5845 94.8179 36.8657V33.591H93.8613V32.7923H94.8179V31.6742L95.8542 31.4346Z" fill="#1A1A1A"/>
<path d="M102.868 37.4249C102.868 37.984 102.868 38.4632 102.947 38.8625H101.991L101.911 38.1437C101.592 38.6229 100.955 39.0223 100.078 39.0223C98.8819 39.0223 98.2441 38.1437 98.2441 37.2651C98.2441 35.8275 99.5196 35.0288 101.831 35.0288V34.8691C101.831 34.3899 101.672 33.4314 100.476 33.5113C99.9182 33.5113 99.3602 33.671 98.8819 33.9905L98.6427 33.2717C99.121 32.9522 99.8385 32.7925 100.636 32.7925C102.469 32.7925 102.947 34.0704 102.947 35.2684V37.4249M101.831 35.8275C100.636 35.8275 99.2805 35.9872 99.2805 37.1853C99.2805 37.9041 99.7588 38.2236 100.317 38.2236C101.114 38.2236 101.592 37.7444 101.752 37.1853C101.752 37.1054 101.831 36.9457 101.831 36.8658V35.8275Z" fill="#1A1A1A"/>
<path d="M104.621 34.4695C104.621 33.8306 104.621 33.3514 104.541 32.8721H105.498L105.577 33.8306C105.896 33.2715 106.534 32.7124 107.57 32.7124C108.367 32.7124 109.723 33.1916 109.723 35.2682V38.8623H108.607V35.4279C108.607 34.4695 108.208 33.6708 107.251 33.6708C106.534 33.6708 105.976 34.15 105.816 34.789C105.737 34.9487 105.737 35.1085 105.737 35.2682V38.8623H104.621V34.4695Z" fill="#1A1A1A"/>
<path d="M116.659 30.0771V37.3452C116.659 37.9043 116.659 38.4634 116.738 38.8627H115.782L115.702 37.8244C115.383 38.4634 114.666 39.0225 113.709 39.0225C112.274 39.0225 111.158 37.8244 111.158 35.9874C111.158 33.9907 112.434 32.7927 113.869 32.7927C114.825 32.7927 115.383 33.192 115.702 33.6713V30.0771H116.659ZM115.543 35.2686C115.543 35.1089 115.543 34.9492 115.463 34.7894C115.303 34.0706 114.745 33.5115 113.869 33.5115C112.753 33.5115 112.035 34.4699 112.035 35.8277C112.035 37.0257 112.673 38.064 113.789 38.064C114.506 38.064 115.144 37.5848 115.383 36.7861C115.463 36.6264 115.463 36.4667 115.463 36.3069V35.2686H115.543Z" fill="#1A1A1A"/>
<path d="M122.717 37.4249C122.717 37.984 122.717 38.4632 122.797 38.8625H121.84L121.761 38.1437C121.442 38.6229 120.804 39.0223 119.927 39.0223C118.731 39.0223 118.094 38.1437 118.094 37.2651C118.094 35.8275 119.369 35.0288 121.681 35.0288V34.8691C121.681 34.3899 121.522 33.4314 120.326 33.5113C119.768 33.5113 119.21 33.671 118.731 33.9905L118.492 33.2717C118.971 32.9522 119.688 32.7925 120.485 32.7925C122.319 32.7925 122.797 34.0704 122.797 35.2684V37.4249M121.601 35.8275C120.406 35.8275 119.05 35.9872 119.05 37.1853C119.05 37.9041 119.529 38.2236 120.087 38.2236C120.884 38.2236 121.362 37.7444 121.522 37.1853C121.522 37.1054 121.601 36.9457 121.601 36.8658V35.8275Z" fill="#1A1A1A"/>
<path d="M124.47 34.7093C124.47 33.9905 124.47 33.4314 124.391 32.8724H125.347L125.427 34.0704H125.507C125.746 33.2717 126.463 32.7925 127.181 32.7925C127.26 32.7925 127.34 32.7925 127.5 32.7925V33.8308C127.34 33.8308 127.26 33.8308 127.101 33.8308C126.304 33.8308 125.826 34.3899 125.666 35.1885C125.666 35.3483 125.666 35.508 125.666 35.7476V38.9424H124.55L124.47 34.7093Z" fill="#1A1A1A"/>
<path d="M133.561 30.0771V37.3452C133.561 37.9043 133.561 38.4634 133.64 38.8627H132.684L132.604 37.8244C132.285 38.4634 131.568 39.0225 130.531 39.0225C129.096 39.0225 127.98 37.8244 127.98 35.9874C127.98 33.9907 129.176 32.7927 130.691 32.7927C131.647 32.7927 132.205 33.192 132.524 33.6713V30.0771H133.561ZM132.524 35.2686C132.524 35.1089 132.524 34.9492 132.445 34.7894C132.285 34.0706 131.647 33.5115 130.85 33.5115C129.734 33.5115 129.096 34.4699 129.096 35.8277C129.096 37.0257 129.734 38.064 130.85 38.064C131.568 38.064 132.285 37.5848 132.445 36.7861C132.445 36.6264 132.524 36.4667 132.524 36.3069V35.2686Z" fill="#1A1A1A"/>
<path d="M135.233 37.7441C135.552 37.9838 136.11 38.1435 136.668 38.1435C137.465 38.1435 137.784 37.7441 137.784 37.2649C137.784 36.7058 137.465 36.4662 136.668 36.1468C135.552 35.7474 135.074 35.1883 135.074 34.4695C135.074 33.5111 135.871 32.7124 137.146 32.7124C137.784 32.7124 138.263 32.8721 138.581 33.1117L138.342 33.9104C138.103 33.7507 137.705 33.591 137.146 33.591C136.509 33.591 136.19 33.9903 136.19 34.3896C136.19 34.8689 136.509 35.1085 137.306 35.4279C138.342 35.8273 138.9 36.3065 138.9 37.2649C138.9 38.3032 138.103 39.1019 136.668 39.1019C136.03 39.1019 135.393 38.9422 134.994 38.7026L135.233 37.7441Z" fill="#1A1A1A"/>
<path d="M148.784 38.623C148.385 38.7827 147.588 39.0223 146.552 39.0223C144.24 39.0223 142.406 37.5048 142.406 34.7893C142.406 32.1536 144.16 30.3965 146.791 30.3965C147.827 30.3965 148.465 30.6361 148.784 30.7958L148.544 31.6744C148.146 31.5147 147.588 31.3549 146.87 31.3549C144.877 31.3549 143.602 32.6328 143.602 34.7893C143.602 36.8659 144.798 38.1438 146.791 38.1438C147.428 38.1438 148.146 37.984 148.544 37.8243L148.784 38.623Z" fill="#1A1A1A"/>
<path d="M152.374 39.022C150.779 39.022 149.504 37.824 149.504 35.9072C149.504 33.9104 150.859 32.7124 152.453 32.7124C154.207 32.7124 155.323 33.9903 155.323 35.7474C155.323 37.9838 153.809 39.022 152.374 39.022ZM152.374 38.1435C153.41 38.1435 154.207 37.1851 154.207 35.8273C154.207 34.789 153.729 33.5111 152.374 33.5111C151.098 33.5111 150.54 34.7091 150.54 35.8273C150.62 37.1851 151.337 38.1435 152.374 38.1435Z" fill="#1A1A1A"/>
<path d="M161.698 37.1851C161.698 37.824 161.698 38.3831 161.778 38.7824H160.821L160.741 37.824C160.502 38.3032 159.785 38.9422 158.748 38.9422C157.792 38.9422 156.676 38.3831 156.676 36.3065V32.7923H157.792V36.0669C157.792 37.1851 158.111 37.9838 159.147 37.9838C159.864 37.9838 160.343 37.5045 160.582 36.9455C160.662 36.7857 160.662 36.626 160.662 36.3864V32.7124H161.778V37.1851" fill="#1A1A1A"/>
<path d="M163.531 34.4695C163.531 33.8306 163.531 33.3514 163.451 32.8721H164.408L164.487 33.8306C164.806 33.2715 165.444 32.7124 166.48 32.7124C167.278 32.7124 168.633 33.1916 168.633 35.2682V38.8623H167.517V35.4279C167.517 34.4695 167.118 33.6708 166.162 33.6708C165.444 33.6708 164.886 34.15 164.727 34.789C164.647 34.9487 164.647 35.1085 164.647 35.2682V38.8623H163.531V34.4695Z" fill="#1A1A1A"/>
<path d="M174.694 38.6227C174.375 38.7824 173.817 38.9422 172.94 38.9422C171.106 38.9422 169.99 37.7441 169.99 35.9072C169.99 34.0702 171.266 32.7124 173.179 32.7124C173.817 32.7124 174.375 32.8721 174.694 33.0319L174.454 33.8306C174.215 33.6708 173.817 33.5111 173.179 33.5111C171.824 33.5111 171.027 34.5494 171.027 35.8273C171.027 37.1851 171.903 38.0636 173.099 38.0636C173.737 38.0636 174.136 37.9039 174.454 37.7441L174.694 38.6227Z" fill="#1A1A1A"/>
<path d="M176.446 31.754C176.047 31.754 175.729 31.4346 175.729 31.0352C175.729 30.6359 176.047 30.3164 176.446 30.3164C176.845 30.3164 177.163 30.6359 177.163 31.0352C177.163 31.4346 176.924 31.754 176.446 31.754ZM177.004 38.8624H175.888V32.8722H177.004V38.8624Z" fill="#1A1A1A"/>
<path d="M179.954 30.0771H178.838V38.8627H179.954V30.0771Z" fill="#1A1A1A"/>
<path d="M180.194 19.9339C180.194 21.2917 179.078 22.4099 177.643 22.4099C176.208 22.4099 175.092 21.2917 175.092 19.9339C175.092 18.5762 176.208 17.458 177.643 17.458C179.078 17.458 180.194 18.5762 180.194 19.9339ZM175.889 19.9339C175.889 20.9722 176.686 21.7709 177.643 21.7709C178.679 21.7709 179.396 20.9722 179.396 19.9339C179.396 18.8956 178.599 18.097 177.563 18.097C176.606 18.097 175.889 18.8956 175.889 19.9339ZM177.324 21.132H176.606V18.8158C176.766 18.8158 177.164 18.7359 177.643 18.7359C178.121 18.7359 178.36 18.8158 178.52 18.8956C178.679 18.9755 178.759 19.1353 178.759 19.3749C178.759 19.6145 178.52 19.7742 178.201 19.8541C178.44 19.9339 178.599 20.0937 178.679 20.4132C178.759 20.7326 178.759 20.8924 178.838 20.9722H178.041C177.962 20.8924 177.962 20.6528 177.882 20.493C177.802 20.2534 177.722 20.1736 177.483 20.1736H177.244V21.132H177.324ZM177.404 19.8541H177.643C177.882 19.8541 178.041 19.7742 178.041 19.6145C178.041 19.4547 177.882 19.295 177.643 19.295C177.563 19.295 177.483 19.295 177.404 19.295V19.8541Z" fill="#1A1A1A"/>
<path d="M82.8594 34.8696L69.5449 39.0552V17.2183H61.1748L61.1748 39.103L69.3955 39.103L18.8467 54.9966L0.193359 4.11963L67.3945 0.366699L82.8594 34.8696ZM50.334 16.8989C48.2615 16.8989 46.3484 17.1387 44.5947 17.6978C42.841 18.2568 41.3262 19.0558 40.0508 20.0142C38.7754 21.0524 37.819 22.2503 37.1016 23.6079C36.3841 25.0456 36.0645 26.5635 36.0645 28.2407C36.0645 29.9178 36.3839 31.4351 37.0215 32.8726C37.6592 34.2303 38.6161 35.4288 39.8916 36.3872C41.167 37.3455 42.6813 38.0645 44.5146 38.6235C46.2684 39.1826 48.3415 39.4224 50.6533 39.4224C52.3271 39.4223 53.7618 39.2625 55.0371 39.0229C56.3126 38.7833 56.4726 38.7038 57.748 38.3843V32.8726C56.7118 33.3517 55.6753 33.592 54.7188 33.8315C53.7622 34.0711 52.7252 34.1509 51.7686 34.1509C50.8121 34.1508 49.9354 33.991 49.0586 33.7515C48.1817 33.5119 47.4639 33.1125 46.8262 32.6333C46.1886 32.1541 45.71 31.5151 45.3115 30.7964C44.913 29.9977 44.7539 29.119 44.7539 28.1606C44.7539 26.164 45.3121 24.7263 46.5078 23.688C47.7035 22.7297 49.2179 22.1705 51.1309 22.1704C52.2468 22.1704 53.3631 22.3305 54.3994 22.6499C55.4357 22.8895 56.3923 23.2889 57.1895 23.7681V17.937C56.1535 17.5378 56.1529 17.5377 54.7979 17.2183C53.4428 16.9787 51.9282 16.8989 50.334 16.8989ZM13.0264 39.0229L21.3164 39.0229V32.4731H22.5918C24.4253 32.4731 26.0202 32.3141 27.4551 31.9946C28.8897 31.6752 30.165 31.1959 31.2012 30.5571C32.2375 29.9182 33.0348 29.039 33.5928 28.0806C34.1508 27.0423 34.4697 25.9239 34.4697 24.646C34.4696 22.1703 33.4337 20.2531 31.3613 19.0552C29.2888 17.8572 26.4187 17.2183 22.752 17.2183H13.0264V39.0229ZM22.2734 21.8511C25.0633 21.8511 26.4979 22.8094 26.498 24.7261C26.498 25.7644 26.0993 26.5631 25.3818 26.9624C24.6644 27.4416 23.5485 27.6812 22.1934 27.6812H21.2373V21.8511L22.2734 21.8511ZM65.4004 5.55713C63.9656 5.55713 62.77 5.957 61.8135 6.83545C60.8569 7.71401 60.3779 8.83259 60.3779 10.3501C60.378 11.7876 60.857 12.9851 61.8135 13.7837C62.7701 14.6622 63.9655 15.062 65.4004 15.062C66.8353 15.062 68.0307 14.5824 68.9873 13.7837C69.9438 12.9851 70.4228 11.7876 70.4229 10.3501C70.4229 8.83259 69.9439 7.63414 68.9873 6.83545C68.0307 5.95701 66.8352 5.55713 65.4004 5.55713Z" fill="#02797E"/>
</svg>
