<svg width="22" height="28" viewBox="0 0 22 28" fill="none" xmlns="http://www.w3.org/2000/svg">
<path fill-rule="evenodd" clip-rule="evenodd" d="M11.069 0.666993H10.9314C8.69108 0.666973 6.91658 0.666958 5.52783 0.856928C4.09859 1.05244 2.94178 1.46436 2.02949 2.39257C1.1172 3.32077 0.712332 4.49776 0.520176 5.95193C0.333463 7.3649 0.333478 9.17033 0.333496 11.4497V16.5509C0.333478 18.8303 0.333463 20.6358 0.520176 22.0487C0.712332 23.5029 1.1172 24.6799 2.02949 25.6081C2.94178 26.5363 4.09859 26.9482 5.52783 27.1437C6.91658 27.3337 8.69105 27.3337 10.9313 27.3337H11.0689C13.3092 27.3337 15.0838 27.3337 16.4725 27.1437C17.9017 26.9482 19.0585 26.5363 19.9708 25.6081C20.8831 24.6799 21.288 23.5029 21.4802 22.0487C21.6669 20.6358 21.6668 18.8303 21.6668 16.551V11.4497C21.6668 9.17037 21.6669 7.3649 21.4802 5.95193C21.288 4.49776 20.8831 3.32077 19.9708 2.39257C19.0585 1.46436 17.9017 1.05244 16.4725 0.856928C15.0837 0.666958 13.3093 0.666973 11.069 0.666993ZM6.42874 22.6825C6.42874 22.1687 6.83808 21.7523 7.34302 21.7523H14.6573C15.1623 21.7523 15.5716 22.1687 15.5716 22.6825C15.5716 23.1963 15.1623 23.6127 14.6573 23.6127H7.34302C6.83808 23.6127 6.42874 23.1963 6.42874 22.6825Z" fill="white"/>
</svg>
