<svg width="33" height="32" viewBox="0 0 33 32" fill="none" xmlns="http://www.w3.org/2000/svg">
<path d="M22.2361 24.6078C22.6369 24.8002 23.1339 25.2973 23.3745 25.6982C23.4546 26.2593 23.8555 24.0948 25.8115 22.8121M29.3334 24.0013C29.3334 26.9468 26.9455 29.3346 24.0001 29.3346C21.0546 29.3346 18.6667 26.9468 18.6667 24.0013C18.6667 21.0557 21.0546 18.668 24.0001 18.668C26.9455 18.668 29.3334 21.0557 29.3334 24.0013Z" stroke="#1E1E1E" stroke-width="2" stroke-linecap="round"/>
<path d="M15.3439 18.6678C16.8167 18.6678 18.0106 17.4739 18.0106 16.0011C18.0106 14.5284 16.8167 13.3345 15.3439 13.3345C13.8712 13.3345 12.6772 14.5284 12.6772 16.0011C12.6772 17.4739 13.8712 18.6678 15.3439 18.6678Z" stroke="#1E1E1E" stroke-width="2"/>
<path d="M10.6769 24.0012C11.9435 22.8012 13.0102 22.1345 15.3769 22.0012M26.6769 15.3345C26.6769 14.2678 26.7103 11.0011 26.5436 9.66781C26.4436 8.56781 26.1436 7.06781 24.7769 6.20114C23.9436 5.76781 23.1436 5.36781 19.3103 5.33447M11.2769 5.33447C8.4102 5.33447 6.17687 5.56781 5.07688 6.93447C4.14355 8.21002 4.1991 9.66781 4.1102 10.1345C3.9102 12.6345 4.04354 21.3678 4.04354 22.8345C4.04354 24.3678 3.94354 27.4845 6.04354 28.5345C7.84354 29.4345 9.7102 29.3012 16.0436 29.3345" stroke="#1E1E1E" stroke-width="2" stroke-linecap="round"/>
<path d="M15.1436 2.66806C14.3436 2.66806 13.6769 2.66806 13.0102 3.36806C12.4435 3.9014 12.5315 4.37237 12.3102 5.2014C11.9988 6.36806 11.8432 6.98337 12.2769 7.46806C12.6744 7.98846 13.3426 7.99016 13.9327 7.99164L13.9435 7.99168C14.5103 8.0318 16.4149 8.01342 16.9769 7.99168C17.5807 7.96829 18.0667 7.93473 18.4769 7.4014C18.8436 6.92473 18.6261 6.13148 18.4103 5.3014C18.1972 4.48241 18.2769 4.06806 17.7103 3.36806C16.9103 2.56806 15.9436 2.66806 15.1436 2.66806Z" stroke="#1E1E1E" stroke-width="2" stroke-linecap="round"/>
</svg>
