<svg width="112" height="37" viewBox="0 0 112 37" fill="none" xmlns="http://www.w3.org/2000/svg">
<path d="M72.5268 0.964844C64.6539 0.964844 57.6183 5.05393 57.6183 12.6088C57.6183 21.2729 70.0962 21.8713 70.0962 26.2239C70.0962 28.0566 68.0003 29.6971 64.4205 29.6971C59.3401 29.6971 55.543 27.4048 55.543 27.4048L53.9183 35.0285C53.9183 35.0285 58.2925 36.9648 64.0999 36.9648C72.7075 36.9648 79.4806 32.675 79.4806 24.9909C79.4806 15.8358 66.9508 15.2551 66.9508 11.2152C66.9508 9.77956 68.6713 8.20652 72.2409 8.20652C76.2684 8.20652 79.5543 9.87367 79.5543 9.87367L81.1444 2.51043C81.1444 2.51043 77.569 0.964844 72.5268 0.964844V0.964844ZM0.497275 1.52056L0.306641 2.63199C0.306641 2.63199 3.61879 3.23942 6.60191 4.4511C10.4429 5.84053 10.7166 6.64939 11.3634 9.16166L18.4126 36.3918H27.862L42.4196 1.52056H32.9918L23.6377 25.2297L19.8207 5.13272C19.4706 2.83264 17.6975 1.52056 15.5271 1.52056H0.497275V1.52056ZM46.2106 1.52056L38.8148 36.3918H47.805L55.1747 1.52056L46.2106 1.52056V1.52056ZM96.3518 1.52056C94.1839 1.52056 93.0353 2.68358 92.1925 4.71593L79.0214 36.3918H88.4491L90.2732 31.1125H101.759L102.868 36.3918H111.187L103.93 1.52056H96.3518V1.52056ZM97.5779 10.9417L100.372 24.0271H92.8857L97.5779 10.9417V10.9417Z" fill="#28509A"/>
</svg>
