<svg width="32" height="32" viewBox="0 0 32 32" fill="none" xmlns="http://www.w3.org/2000/svg">
<path d="M31.989 15.2794C31.8384 11.1927 30.1007 7.3216 27.1388 4.47444C24.1769 1.6273 20.2199 0.0242393 16.0938 4.37459e-06H16.0158C13.2372 -0.00204063 10.506 0.712934 8.09086 2.07457C5.6757 3.43622 3.65984 5.3976 2.24163 7.76575C0.823426 10.1339 0.0517419 12.8272 0.00251392 15.5807C-0.0467284 18.3341 0.628197 21.0528 1.96085 23.4692L0.545776 31.8617C0.543475 31.8788 0.544899 31.8964 0.549947 31.913C0.555009 31.9296 0.563566 31.945 0.575086 31.9581C0.586605 31.9712 0.6008 31.9817 0.616735 31.9889C0.63267 31.9962 0.64997 32 0.667487 32H0.691835L9.06705 30.1536C11.231 31.1833 13.6008 31.7177 16.0012 31.7169C16.1538 31.7169 16.3064 31.7169 16.4588 31.7169C18.5704 31.6572 20.6491 31.1836 22.575 30.3235C24.5008 29.4633 26.2358 28.2336 27.6797 26.7055C29.1235 25.1772 30.2477 23.3807 30.9873 21.4196C31.7269 19.4585 32.0674 17.3716 31.989 15.2794ZM16.3793 28.9585C16.2527 28.9585 16.1262 28.9585 16.0012 28.9585C13.8798 28.9612 11.7887 28.458 9.90441 27.4918L9.47599 27.2698L3.79623 28.5999L4.84455 22.9047L4.60112 22.4961C3.43852 20.5316 2.81232 18.3008 2.78417 16.0234C2.75602 13.746 3.32692 11.5007 4.44061 9.50847C5.55432 7.51626 7.17241 5.84596 9.13558 4.66205C11.0987 3.47815 13.339 2.82148 15.636 2.75674C15.7637 2.75674 15.892 2.75674 16.0207 2.75674C19.4888 2.76692 22.8141 4.12703 25.2801 6.54397C27.746 8.96093 29.1554 12.2413 29.2043 15.6783C29.2532 19.1152 27.938 22.4337 25.5417 24.9187C23.1456 27.4036 19.8605 28.8561 16.3939 28.9633L16.3793 28.9585Z" fill="white"/>
<path d="M10.4392 8.20306C10.2416 8.20688 10.0465 8.24999 9.86591 8.32983C9.68528 8.40967 9.52262 8.52463 9.38772 8.66789C9.0063 9.05549 7.94012 9.98835 7.87847 11.9473C7.8168 13.9063 9.19774 15.8444 9.39089 16.1162C9.58403 16.3881 12.0312 20.6196 16.0622 22.3357C18.4314 23.3473 19.47 23.5212 20.1435 23.5212C20.4209 23.5212 20.6303 23.4922 20.8494 23.4793C21.5877 23.4343 23.2544 22.5882 23.618 21.6682C23.9814 20.7484 24.0057 19.9441 23.9101 19.7833C23.8143 19.6224 23.5514 19.5066 23.1555 19.3008C22.7594 19.0948 20.817 18.0656 20.4519 17.9207C20.3164 17.8583 20.1707 17.8207 20.0219 17.8097C19.9248 17.8148 19.8304 17.8432 19.747 17.8927C19.6636 17.942 19.5936 18.0106 19.5431 18.0929C19.2185 18.4934 18.4737 19.3635 18.2237 19.6144C18.1691 19.6768 18.1019 19.727 18.0264 19.7619C17.9509 19.7968 17.8689 19.8156 17.7855 19.817C17.6321 19.8103 17.4819 19.7703 17.3457 19.6996C16.1692 19.2044 15.0965 18.4953 14.183 17.6087C13.3296 16.7751 12.6054 15.8207 12.0344 14.7764C11.8137 14.3711 12.0344 14.1621 12.2357 13.9723C12.4369 13.7825 12.6528 13.5203 12.8604 13.2935C13.0309 13.0998 13.1729 12.8832 13.2824 12.6502C13.3391 12.542 13.3677 12.4216 13.3657 12.2998C13.3636 12.1779 13.3311 12.0585 13.271 11.9522C13.1752 11.7495 12.4596 9.75674 12.1237 8.95738C11.851 8.27383 11.5265 8.25132 11.2425 8.2304C11.0088 8.21431 10.741 8.20629 10.4732 8.19824H10.4392" fill="white"/>
</svg>
