<svg width="32" height="32" viewBox="0 0 32 32" fill="none" xmlns="http://www.w3.org/2000/svg">
<path d="M29.3332 12C29.2845 8.99695 29.0521 7.26208 27.9417 6.0172C27.717 5.76537 27.4694 5.53247 27.2017 5.32116C25.528 4 23.021 4 18.0073 4H14.0053C8.99145 4 6.48453 4 4.81081 5.32116C4.54312 5.53247 4.29554 5.76537 4.07092 6.0172C2.6665 7.59169 2.6665 9.95003 2.6665 14.6667C2.6665 19.3833 2.6665 21.7416 4.07092 23.3161C4.29554 23.568 4.54312 23.8008 4.81081 24.0121C6.48453 25.3333 8.99145 25.3333 14.0053 25.3333H15.3332" stroke="#1E1E1E" stroke-width="1.5" stroke-linecap="round" stroke-linejoin="round"/>
<path d="M2.6665 10.6665H29.3332" stroke="#1E1E1E" stroke-width="1.5" stroke-linejoin="round"/>
<path d="M23.9998 17.3335V19.7039M23.9998 19.7039V25.6298M23.9998 19.7039L25.9998 18.6668M23.9998 19.7039L21.9998 18.6668M23.9998 25.6298V28.0002M23.9998 25.6298L21.9998 26.6668M23.9998 25.6298L25.9998 26.6668M29.3332 22.6668H26.9628M26.9628 22.6668H21.0369M26.9628 22.6668L27.9998 24.6668M26.9628 22.6668L27.9998 20.6668M21.0369 22.6668H18.6665M21.0369 22.6668L19.9998 20.6668M21.0369 22.6668L19.9998 24.6668" stroke="#1E1E1E" stroke-width="1.5" stroke-linecap="round" stroke-linejoin="round"/>
</svg>
