<svg width="32" height="32" viewBox="0 0 32 32" fill="none" xmlns="http://www.w3.org/2000/svg">
<path d="M26.688 2.6665C25.2035 2.6665 24 6.24822 24 10.6665H26.688C27.9835 10.6665 28.6312 10.6665 29.0321 10.2192C29.4332 9.77196 29.3633 9.18294 29.2237 8.00492C28.8552 4.89508 27.8591 2.6665 26.688 2.6665Z" stroke="#1E1E1E" stroke-width="2"/>
<path d="M24.0003 10.7389V24.8609C24.0003 26.8765 24.0003 27.8842 23.3843 28.2809C22.3778 28.9293 20.8218 27.5697 20.0391 27.0762C19.3925 26.6684 19.0693 26.4645 18.7103 26.4528C18.3226 26.44 17.9935 26.6356 17.2949 27.0762L14.747 28.683C14.0597 29.1164 13.7161 29.3332 13.3337 29.3332C12.9513 29.3332 12.6076 29.1164 11.9203 28.683L9.3725 27.0762C8.72586 26.6684 8.40254 26.4645 8.0437 26.4528C7.65595 26.44 7.3269 26.6356 6.62815 27.0762C5.84559 27.5697 4.28949 28.9293 3.28293 28.2809C2.66699 27.8842 2.66699 26.8765 2.66699 24.8609V10.7389C2.66699 6.9335 2.66699 5.03084 3.83857 3.84868C5.01014 2.6665 6.89575 2.6665 10.667 2.6665H26.667" stroke="#1E1E1E" stroke-width="2" stroke-linecap="round" stroke-linejoin="round"/>
<path d="M13.3337 10.6668C11.8609 10.6668 10.667 11.5623 10.667 12.6668C10.667 13.7714 11.8609 14.6668 13.3337 14.6668C14.8065 14.6668 16.0003 15.5623 16.0003 16.6668C16.0003 17.7714 14.8065 18.6668 13.3337 18.6668M13.3337 10.6668C14.4947 10.6668 15.4825 11.2234 15.8486 12.0002M13.3337 10.6668V9.3335M13.3337 18.6668C12.1726 18.6668 11.1848 18.1103 10.8187 17.3335M13.3337 18.6668V20.0002" stroke="#1E1E1E" stroke-width="1.5" stroke-linecap="round"/>
</svg>
