<svg width="25" height="24" viewBox="0 0 25 24" fill="none" xmlns="http://www.w3.org/2000/svg">
<path d="M2.3335 12C2.3335 8.31086 2.3335 6.4663 3.14732 5.15876C3.4484 4.67502 3.82241 4.25426 4.25241 3.91554C5.41466 3 7.05427 3 10.3335 3H14.3335C17.6127 3 19.2523 3 20.4146 3.91554C20.8446 4.25426 21.2186 4.67502 21.5197 5.15876C22.3335 6.4663 22.3335 8.31086 22.3335 12C22.3335 15.6891 22.3335 17.5337 21.5197 18.8412C21.2186 19.325 20.8446 19.7457 20.4146 20.0845C19.2523 21 17.6127 21 14.3335 21H10.3335C7.05427 21 5.41466 21 4.25241 20.0845C3.82241 19.7457 3.4484 19.325 3.14732 18.8412C2.3335 17.5337 2.3335 15.6891 2.3335 12Z" stroke="#1E1E1E" stroke-width="1.5"/>
<path d="M2.3335 9.5H22.3335" stroke="#1E1E1E" stroke-width="1.5" stroke-linejoin="round"/>
<path d="M6.3335 6H7.3335M10.3335 6H11.3335" stroke="#1E1E1E" stroke-width="1.5" stroke-linecap="round" stroke-linejoin="round"/>
</svg>
