<svg width="32" height="32" viewBox="0 0 32 32" fill="none" xmlns="http://www.w3.org/2000/svg">
<path d="M18.7415 21.3969L18.1343 22.0363C18.1343 22.0363 16.6908 23.556 12.7508 19.4079C8.81082 15.2598 10.2543 13.7401 10.2543 13.7401L10.6367 13.3375C11.5788 12.3457 11.6676 10.7533 10.8457 9.5908L9.16434 7.21282C8.14705 5.774 6.18128 5.58393 5.01527 6.81152L2.92247 9.01485C2.34431 9.62354 1.95687 10.4126 2.00385 11.2879C2.12405 13.5273 3.08095 18.3454 8.42048 23.9669C14.0829 29.9283 19.3958 30.1652 21.5684 29.9508C22.2556 29.883 22.8532 29.5124 23.3348 29.0053L25.2289 27.0112C26.5074 25.6652 26.1469 23.3576 24.5111 22.416L21.9638 20.9498C20.8897 20.3315 19.581 20.5131 18.7415 21.3969Z" fill="white"/>
<path d="M15.6796 4.50677C15.7679 3.96158 16.2833 3.59175 16.8285 3.68001C16.8622 3.68647 16.9708 3.70677 17.0277 3.71944C17.1415 3.74477 17.3002 3.78378 17.498 3.84142C17.8937 3.95668 18.4466 4.14655 19.11 4.45073C20.4384 5.05973 22.2062 6.12508 24.0406 7.95948C25.875 9.79387 26.9403 11.5616 27.5493 12.89C27.8535 13.5535 28.0434 14.1063 28.1586 14.502C28.2163 14.6999 28.2553 14.8586 28.2806 14.9723C28.2933 15.0292 28.3025 15.0749 28.309 15.1087L28.3167 15.1503C28.4049 15.6954 28.0385 16.2321 27.4933 16.3204C26.9496 16.4084 26.4375 16.0404 26.3471 15.4977C26.3443 15.4832 26.3367 15.444 26.3284 15.4071C26.312 15.3333 26.2835 15.2162 26.2384 15.0613C26.1482 14.7515 25.9915 14.2911 25.7313 13.7235C25.2115 12.5898 24.2768 11.0242 22.6263 9.37369C20.9759 7.72321 19.4103 6.78855 18.2765 6.26877C17.709 6.00856 17.2485 5.85185 16.9387 5.76162C16.7839 5.71651 16.5892 5.67183 16.5154 5.65539C15.9727 5.56496 15.5916 5.0504 15.6796 4.50677Z" fill="white"/>
<path fill-rule="evenodd" clip-rule="evenodd" d="M15.9813 9.10605C16.133 8.57502 16.6865 8.26753 17.2176 8.41925L16.9428 9.38078C17.2176 8.41925 17.2176 8.41925 17.2176 8.41925L17.2195 8.4198L17.2215 8.42039L17.226 8.42169L17.2363 8.42478L17.2627 8.43299C17.2828 8.43942 17.3079 8.4478 17.3378 8.45842C17.3977 8.47967 17.4769 8.50989 17.5739 8.55149C17.7682 8.63474 18.0336 8.7633 18.3596 8.95625C19.0122 9.34249 19.9031 9.98406 20.9498 11.0307C21.9964 12.0773 22.638 12.9682 23.0242 13.6209C23.2172 13.9469 23.3457 14.2123 23.429 14.4065C23.4706 14.5036 23.5008 14.5828 23.522 14.6426C23.5327 14.6726 23.541 14.6977 23.5475 14.7178L23.5557 14.7442L23.5588 14.7545L23.5601 14.7589L23.5607 14.761C23.5607 14.761 23.5612 14.7629 22.5997 15.0376L23.5612 14.7629C23.7129 15.2939 23.4054 15.8474 22.8744 15.9992C22.3479 16.1496 21.7993 15.8486 21.6421 15.3258L21.6372 15.3115C21.6301 15.2914 21.6154 15.252 21.5907 15.1944C21.5413 15.0793 21.4519 14.891 21.3031 14.6395C21.0058 14.1372 20.4688 13.3782 19.5356 12.4449C18.6023 11.5116 17.8433 10.9747 17.341 10.6774C17.0895 10.5286 16.9012 10.4391 16.7861 10.3898C16.7285 10.3651 16.689 10.3504 16.669 10.3433L16.6546 10.3383C16.1319 10.1812 15.8309 9.63258 15.9813 9.10605Z" fill="white"/>
</svg>
