<svg width="33" height="32" viewBox="0 0 33 32" fill="none" xmlns="http://www.w3.org/2000/svg">
<path fill-rule="evenodd" clip-rule="evenodd" d="M6.62376 4.12286C8.25867 2.40161 10.963 2.72409 12.3144 4.63554L13.9957 7.01352C15.0767 8.54241 14.9854 10.668 13.6953 12.0262L13.3688 12.3699C13.3679 12.3723 13.367 12.3749 13.366 12.3776C13.3487 12.4261 13.3051 12.5805 13.348 12.8735C13.437 13.4809 13.9059 14.7151 15.8094 16.7192C17.719 18.7296 18.8772 19.2034 19.4139 19.2906C19.6455 19.3282 19.7666 19.2955 19.8052 19.2819L20.35 18.7083C21.5151 17.4817 23.3315 17.2401 24.7962 18.0831L27.3435 19.5493C29.5207 20.8025 30.0275 23.8681 28.2875 25.7L26.3934 27.694C25.8023 28.3164 24.9962 28.8477 24.0001 28.946C21.5683 29.186 15.9348 28.8734 10.029 22.6556C4.51808 16.8537 3.47118 11.8072 3.33884 9.34154L4.22697 9.29387L3.33884 9.34154C3.27345 8.12331 3.81649 7.07839 4.53096 6.32619L6.62376 4.12286ZM10.6814 5.79016C9.99823 4.82396 8.77099 4.76631 8.07387 5.50024L5.98107 7.70356C5.53922 8.16875 5.30739 8.70194 5.33596 9.23435C5.44401 11.2474 6.31092 15.8371 11.4791 21.2782C16.898 26.9833 21.8903 27.1445 23.8037 26.9557C24.182 26.9183 24.5713 26.7084 24.9433 26.3167L26.8374 24.3226C27.6544 23.4624 27.4403 21.9127 26.3458 21.2827L23.7985 19.8165C23.1149 19.423 22.3141 19.5446 21.8002 20.0857L21.1929 20.725L20.49 20.0573C21.1929 20.725 21.192 20.726 21.191 20.7269L21.1891 20.7289L21.1852 20.733L21.1768 20.7416L21.1576 20.7605C21.1438 20.7737 21.128 20.7884 21.1101 20.8041C21.0743 20.8355 21.0299 20.8714 20.9766 20.9092C20.8698 20.9849 20.7276 21.0682 20.5476 21.1392C20.1796 21.2843 19.6937 21.3622 19.0933 21.2647C17.9233 21.0747 16.3898 20.2343 14.3593 18.0966C12.3229 15.9526 11.5434 14.3529 11.3692 13.1634C11.2805 12.558 11.3514 12.0732 11.4817 11.7071C11.5458 11.5271 11.6214 11.3836 11.6912 11.2745C11.726 11.2202 11.7591 11.1747 11.7884 11.1376C11.8031 11.1191 11.8168 11.1027 11.8293 11.0884L11.847 11.0684L11.8552 11.0595L11.859 11.0554L11.8609 11.0534C11.8618 11.0524 11.8627 11.0515 12.5716 11.7248L11.8628 11.0514L12.2452 10.6488C12.8392 10.0234 12.9255 8.96422 12.3627 8.16814L10.6814 5.79016Z" fill="#1E1E1E"/>
<path d="M18.0127 2.50677C18.1009 1.96158 18.6163 1.59175 19.1615 1.68001C19.1952 1.68647 19.3038 1.70677 19.3607 1.71944C19.4745 1.74477 19.6332 1.78378 19.8311 1.84142C20.2268 1.95668 20.7796 2.14655 21.443 2.45073C22.7714 3.05973 24.5392 4.12508 26.3736 5.95947C28.208 7.79387 29.2733 9.56162 29.8823 10.89C30.1865 11.5535 30.3764 12.1063 30.4916 12.502C30.5493 12.6999 30.5883 12.8586 30.6136 12.9723C30.6263 13.0292 30.6355 13.0749 30.642 13.1087L30.6497 13.1503C30.7379 13.6954 30.3715 14.2321 29.8263 14.3204C29.2827 14.4084 28.7705 14.0404 28.6801 13.4977C28.6773 13.4832 28.6697 13.444 28.6614 13.4071C28.645 13.3333 28.6165 13.2162 28.5714 13.0613C28.4812 12.7515 28.3245 12.2911 28.0643 11.7235C27.5445 10.5898 26.6098 9.02417 24.9594 7.37369C23.3089 5.72321 21.7433 4.78855 20.6096 4.26877C20.042 4.00856 19.5815 3.85185 19.2718 3.76162C19.1169 3.71651 18.9222 3.67183 18.8484 3.65539C18.3057 3.56496 17.9246 3.0504 18.0127 2.50677Z" fill="#1E1E1E"/>
<path fill-rule="evenodd" clip-rule="evenodd" d="M18.3151 7.10591C18.4668 6.57487 19.0203 6.26738 19.5513 6.4191L19.2766 7.38063C19.5513 6.4191 19.5518 6.41924 19.5523 6.41938L19.5533 6.41966L19.5553 6.42025L19.5598 6.42154L19.5701 6.42463L19.5965 6.43285C19.6166 6.43928 19.6417 6.44765 19.6716 6.45827C19.7315 6.47952 19.8106 6.50974 19.9077 6.55134C20.102 6.63459 20.3674 6.76315 20.6934 6.9561C21.346 7.34234 22.2369 7.98392 23.2836 9.03054C24.3302 10.0772 24.9718 10.9681 25.358 11.6207C25.551 11.9467 25.6795 12.2121 25.7628 12.4064C25.8044 12.5035 25.8346 12.5826 25.8558 12.6425C25.8665 12.6724 25.8748 12.6975 25.8813 12.7176L25.8895 12.744L25.8926 12.7544L25.8939 12.7588L25.8945 12.7608L25.8947 12.7618C25.8949 12.7623 25.895 12.7628 24.9335 13.0375L25.895 12.7628C26.0467 13.2938 25.7392 13.8473 25.2082 13.999C24.6817 14.1494 24.1331 13.8484 23.9759 13.3257L23.971 13.3113C23.9639 13.2913 23.9492 13.2518 23.9245 13.1942C23.8751 13.0791 23.7857 12.8908 23.6369 12.6393C23.3396 12.137 22.8026 11.378 21.8693 10.4448C20.9361 9.51149 20.1771 8.97455 19.6748 8.67725C19.4233 8.52843 19.235 8.43897 19.1199 8.38964C19.0623 8.36495 19.0228 8.35024 19.0028 8.34313L18.9884 8.3382C18.4657 8.18103 18.1647 7.63243 18.3151 7.10591Z" fill="#1E1E1E"/>
</svg>
