<svg width="25" height="24" viewBox="0 0 25 24" fill="none" xmlns="http://www.w3.org/2000/svg">
<path d="M12.1665 3.5H11.1665C7.39526 3.5 5.50965 3.5 4.33807 4.67157C3.1665 5.84315 3.1665 7.72876 3.1665 11.5V13.5C3.1665 17.2712 3.1665 19.1569 4.33807 20.3284C5.50965 21.5 7.39526 21.5 11.1665 21.5H13.1665C16.9377 21.5 18.8234 21.5 19.9949 20.3284C21.1665 19.1569 21.1665 17.2712 21.1665 13.5V12.5" stroke="#1E1E1E" stroke-width="1.5" stroke-linecap="round" stroke-linejoin="round"/>
<path d="M22.1665 6C22.1665 7.933 20.5995 9.5 18.6665 9.5C16.7335 9.5 15.1665 7.933 15.1665 6C15.1665 4.067 16.7335 2.5 18.6665 2.5C20.5995 2.5 22.1665 4.067 22.1665 6Z" stroke="#1E1E1E" stroke-width="1.5" stroke-linecap="round" stroke-linejoin="round"/>
<path d="M8.1665 12.5H12.1665" stroke="#1E1E1E" stroke-width="1.5" stroke-linecap="round" stroke-linejoin="round"/>
<path d="M8.1665 16.5H16.1665" stroke="#1E1E1E" stroke-width="1.5" stroke-linecap="round" stroke-linejoin="round"/>
</svg>
