<svg width="25" height="24" viewBox="0 0 25 24" fill="none" xmlns="http://www.w3.org/2000/svg">
<path fill-rule="evenodd" clip-rule="evenodd" d="M12.6094 1.25H12.7241C15.0325 1.24999 16.8416 1.24998 18.253 1.43975C19.6978 1.63399 20.8378 2.03933 21.7326 2.93414C22.6274 3.82895 23.0328 4.96897 23.227 6.41371C23.4168 7.82519 23.4168 9.63423 23.4167 11.9426V12.0574C23.4168 14.3658 23.4168 16.1748 23.227 17.5863C23.0328 19.031 22.6274 20.1711 21.7326 21.0659C20.8378 21.9607 19.6978 22.366 18.253 22.5603C16.8416 22.75 15.0325 22.75 12.7241 22.75H12.6094C10.301 22.75 8.49194 22.75 7.08045 22.5603C5.63572 22.366 4.49569 21.9607 3.60088 21.0659C2.70607 20.1711 2.30073 19.031 2.10649 17.5863C1.91673 16.1748 1.91674 14.3658 1.91675 12.0574V11.9426C1.91674 9.63423 1.91673 7.82519 2.10649 6.41371C2.30073 4.96897 2.70607 3.82895 3.60088 2.93414C4.49569 2.03933 5.63572 1.63399 7.08045 1.43975C8.49194 1.24998 10.301 1.24999 12.6094 1.25ZM7.28032 2.92637C6.00192 3.09825 5.2312 3.42514 4.66154 3.9948C4.09189 4.56445 3.765 5.33517 3.59312 6.61358C3.41834 7.91356 3.41675 9.62177 3.41675 12C3.41675 14.3782 3.41834 16.0864 3.59312 17.3864C3.765 18.6648 4.09189 19.4355 4.66154 20.0052C5.2312 20.5749 6.00192 20.9018 7.28032 21.0736C8.5803 21.2484 10.2885 21.25 12.6667 21.25C15.045 21.25 16.7532 21.2484 18.0532 21.0736C19.3316 20.9018 20.1023 20.5749 20.672 20.0052C21.2416 19.4355 21.5685 18.6648 21.7404 17.3864C21.9152 16.0864 21.9167 14.3782 21.9167 12C21.9167 9.62177 21.9152 7.91356 21.7404 6.61358C21.5685 5.33517 21.2416 4.56445 20.672 3.9948C20.1023 3.42514 19.3316 3.09825 18.0532 2.92637C16.7532 2.75159 15.045 2.75 12.6667 2.75C10.2885 2.75 8.5803 2.75159 7.28032 2.92637ZM6.66675 6.25C7.08096 6.25 7.41675 6.58579 7.41675 7L7.41675 17C7.41675 17.4142 7.08096 17.75 6.66675 17.75C6.25253 17.75 5.91675 17.4142 5.91675 17L5.91675 7C5.91675 6.58579 6.25253 6.25 6.66675 6.25ZM10.1364 7.46967C10.4293 7.17678 10.9042 7.17678 11.1971 7.46967L12.5987 8.8713C13.1915 8.47866 13.9024 8.25 14.6667 8.25C15.4311 8.25 16.142 8.47866 16.7348 8.8713L18.1364 7.46967C18.4293 7.17678 18.9042 7.17678 19.1971 7.46967C19.49 7.76256 19.49 8.23744 19.1971 8.53033L17.7955 9.93196C18.1881 10.5248 18.4167 11.2357 18.4167 12C18.4167 12.7643 18.1881 13.4752 17.7955 14.068L19.1971 15.4697C19.49 15.7626 19.49 16.2374 19.1971 16.5303C18.9042 16.8232 18.4293 16.8232 18.1364 16.5303L16.7348 15.1287C16.142 15.5213 15.4311 15.75 14.6667 15.75C13.9024 15.75 13.1915 15.5213 12.5987 15.1287L11.1971 16.5303C10.9042 16.8232 10.4293 16.8232 10.1364 16.5303C9.84353 16.2374 9.84353 15.7626 10.1364 15.4697L11.538 14.068C11.1454 13.4752 10.9167 12.7643 10.9167 12C10.9167 11.2357 11.1454 10.5248 11.538 9.93196L10.1364 8.53033C9.84353 8.23744 9.84353 7.76256 10.1364 7.46967ZM14.6667 9.75C13.4241 9.75 12.4167 10.7574 12.4167 12C12.4167 13.2426 13.4241 14.25 14.6667 14.25C15.9094 14.25 16.9167 13.2426 16.9167 12C16.9167 10.7574 15.9094 9.75 14.6667 9.75Z" fill="#1E1E1E"/>
</svg>
