<svg width="94" height="20" viewBox="0 0 94 20" fill="none" xmlns="http://www.w3.org/2000/svg">
<path d="M5.87742 20C4.75092 20 3.76292 19.8061 2.91343 19.4183C2.06394 19.012 1.40835 18.4765 0.946671 17.8116C0.484991 17.1283 0.25415 16.362 0.25415 15.5125C0.25415 14.386 0.697364 13.398 1.58379 12.5485C2.48868 11.699 3.82756 11.1265 5.60041 10.831L10.2542 10.0277V9.52909C10.2542 8.86427 9.98638 8.32872 9.45083 7.92244C8.91528 7.49769 8.23199 7.28532 7.40096 7.28532C6.58841 7.28532 5.86819 7.49769 5.2403 7.92244C4.63088 8.34718 4.18767 8.91043 3.91066 9.61219L0.835868 8.11634C1.27908 6.93444 2.10087 5.97415 3.30124 5.23546C4.50161 4.49677 5.87742 4.12742 7.42866 4.12742C8.66597 4.12742 9.76477 4.35826 10.7251 4.81994C11.6854 5.26316 12.4333 5.89104 12.9688 6.7036C13.5228 7.51616 13.7999 8.45799 13.7999 9.52909V19.6676H10.4481V18.0055C9.32156 19.3352 7.79801 20 5.87742 20ZM3.93836 15.374C3.93836 16.0018 4.15997 16.4728 4.60318 16.7867C5.04639 17.1006 5.61888 17.2576 6.32063 17.2576C7.05932 17.2576 7.72414 17.1006 8.31509 16.7867C8.90604 16.4543 9.37696 16.0111 9.72783 15.4571C10.0787 14.903 10.2542 14.2844 10.2542 13.6011V12.6316L6.09903 13.4072C5.28647 13.5549 4.72322 13.8227 4.40927 14.2105C4.09533 14.5983 3.93836 14.9861 3.93836 15.374Z" fill="white"/>
<path d="M21.6367 20C20.4917 20 19.476 19.7322 18.5896 19.1967C17.7031 18.6611 17.0106 17.9317 16.512 17.0083C16.0134 16.0849 15.7641 15.0323 15.7641 13.8504V4.45983H19.3098V13.4626C19.3098 14.4598 19.6053 15.2632 20.1962 15.8726C20.8056 16.4635 21.5905 16.759 22.5508 16.759C23.4926 16.759 24.2682 16.4635 24.8777 15.8726C25.4871 15.2632 25.7918 14.4598 25.7918 13.4626V4.45983H29.3375V19.6676H25.9857V17.8947C25.5609 18.578 24.9608 19.1043 24.1851 19.4737C23.428 19.8246 22.5785 20 21.6367 20Z" fill="white"/>
<path d="M39.2807 19.8338C37.5263 19.8338 36.1597 19.3721 35.1809 18.4488C34.2206 17.5069 33.7405 16.1958 33.7405 14.5152V7.67313H30.915V4.51523H31.3859C32.1246 4.51523 32.6971 4.32133 33.1034 3.93352C33.5281 3.52724 33.7405 2.95476 33.7405 2.21607V0H37.2862V4.51523H40.9981V7.67313H37.2862V14.5152C37.2862 14.9215 37.3508 15.3186 37.4801 15.7064C37.6278 16.0757 37.8956 16.3804 38.2834 16.6205C38.6897 16.8421 39.2806 16.9529 40.0563 16.9529C40.1671 16.9529 40.324 16.9529 40.5272 16.9529C40.7303 16.9344 40.915 16.9067 41.0812 16.8698V19.6953C40.5272 19.7876 39.927 19.8338 39.2807 19.8338Z" fill="white"/>
<path d="M50.126 20C48.6302 20 47.2728 19.6584 46.054 18.9751C44.8352 18.2918 43.8656 17.35 43.1454 16.1496C42.4252 14.9492 42.0651 13.5826 42.0651 12.0499C42.0651 10.5355 42.4252 9.17821 43.1454 7.97784C43.8656 6.77747 44.8352 5.83564 46.054 5.15235C47.2728 4.46907 48.6302 4.12742 50.126 4.12742C51.6219 4.12742 52.9792 4.46907 54.1981 5.15235C55.4354 5.83564 56.4141 6.77747 57.1343 7.97784C57.8546 9.17821 58.2147 10.5355 58.2147 12.0499C58.2147 13.5826 57.8453 14.9492 57.1066 16.1496C56.3864 17.35 55.4169 18.2918 54.1981 18.9751C52.9792 19.6584 51.6219 20 50.126 20ZM50.126 16.759C50.9755 16.759 51.7327 16.5559 52.3975 16.1496C53.0623 15.7433 53.5794 15.1893 53.9487 14.4875C54.3366 13.7858 54.5305 12.9825 54.5305 12.0776C54.5305 11.1727 54.3366 10.3693 53.9487 9.66759C53.5794 8.96584 53.0623 8.41182 52.3975 8.00554C51.7327 7.59926 50.9755 7.39612 50.126 7.39612C49.2765 7.39612 48.5194 7.59926 47.8546 8.00554C47.2082 8.41182 46.6911 8.96584 46.3033 9.66759C45.934 10.3693 45.7493 11.1727 45.7493 12.0776C45.7493 12.9825 45.934 13.7858 46.3033 14.4875C46.6911 15.1893 47.2082 15.7433 47.8546 16.1496C48.5194 16.5559 49.2765 16.759 50.126 16.759Z" fill="white"/>
<path d="M60.4278 19.6676V15.8172H64.0566V19.6676H60.4278Z" fill="#FD5F5F"/>
<path d="M71.8923 20C70.7658 20 69.7778 19.8061 68.9283 19.4183C68.0788 19.012 67.4232 18.4765 66.9616 17.8116C66.4999 17.1283 66.2691 16.362 66.2691 15.5125C66.2691 14.386 66.7123 13.398 67.5987 12.5485C68.5036 11.699 69.8425 11.1265 71.6153 10.831L76.2691 10.0277V9.52909C76.2691 8.86427 76.0013 8.32872 75.4657 7.92244C74.9302 7.49769 74.2469 7.28532 73.4159 7.28532C72.6033 7.28532 71.8831 7.49769 71.2552 7.92244C70.6458 8.34718 70.2026 8.91043 69.9256 9.61219L66.8508 8.11634C67.294 6.93444 68.1158 5.97415 69.3161 5.23546C70.5165 4.49677 71.8923 4.12742 73.4436 4.12742C74.6809 4.12742 75.7797 4.35826 76.74 4.81994C77.7003 5.26316 78.4482 5.89104 78.9837 6.7036C79.5378 7.51616 79.8148 8.45799 79.8148 9.52909V19.6676H76.463V18.0055C75.3365 19.3352 73.8129 20 71.8923 20ZM69.9533 15.374C69.9533 16.0018 70.1749 16.4728 70.6181 16.7867C71.0613 17.1006 71.6338 17.2576 72.3355 17.2576C73.0742 17.2576 73.739 17.1006 74.33 16.7867C74.9209 16.4543 75.3919 16.0111 75.7427 15.4571C76.0936 14.903 76.2691 14.2844 76.2691 13.6011V12.6316L72.1139 13.4072C71.3014 13.5549 70.7381 13.8227 70.4242 14.2105C70.1102 14.5983 69.9533 14.9861 69.9533 15.374Z" fill="#FD5F5F"/>
<path d="M81.0034 19.6676V16.7867L89.0643 7.61773H81.3358V4.45983H93.718V7.34072L85.7956 16.5097H93.7457V19.6676H81.0034Z" fill="#FD5F5F"/>
</svg>
