<svg width="84" height="20" viewBox="0 0 84 20" fill="none" xmlns="http://www.w3.org/2000/svg">
<path d="M0.260864 19.7354V4.41014H6.7396C8.46133 4.41014 9.76746 4.74825 10.658 5.42448C11.5634 6.1007 12.0161 7.07828 12.0161 8.35722C12.0161 9.19515 11.7638 9.91547 11.2591 10.5182C10.7693 11.1062 10.1385 11.4958 9.36672 11.6869C10.4354 11.9368 11.2591 12.3705 11.838 12.9879C12.4168 13.6053 12.7063 14.3991 12.7063 15.3693C12.7063 16.7806 12.2313 17.8611 11.2814 18.6108C10.3463 19.3605 9.0105 19.7354 7.27393 19.7354H0.260864ZM3.57816 10.6505H6.33885C7.927 10.6505 8.72107 9.99632 8.72107 8.68798C8.72107 7.45314 7.927 6.83572 6.33885 6.83572H3.57816V10.6505ZM3.57816 17.3098H6.58375C7.44462 17.3098 8.10511 17.1334 8.56522 16.7806C9.02534 16.4278 9.2554 15.9206 9.2554 15.2591C9.2554 14.5976 9.01792 14.0831 8.54296 13.7155C8.08284 13.348 7.40751 13.1643 6.51696 13.1643H3.57816V17.3098Z" fill="#FFF9EB"/>
<path d="M17.3921 2.75634C17.0805 3.05035 16.6871 3.19735 16.2122 3.19735C15.7372 3.19735 15.3365 3.05035 15.0099 2.75634C14.6982 2.44763 14.5424 2.06542 14.5424 1.6097C14.5424 1.15399 14.6982 0.771775 15.0099 0.463066C15.3365 0.154355 15.7372 0 16.2122 0C16.6871 0 17.0805 0.154355 17.3921 0.463066C17.7187 0.771775 17.8819 1.15399 17.8819 1.6097C17.8819 2.06542 17.7187 2.44763 17.3921 2.75634ZM14.5424 19.7354V4.41014H17.8597V19.7354H14.5424Z" fill="#FFF9EB"/>
<path d="M20.3446 19.7354V4.41014H23.6619L30.6304 14.7078V4.41014H33.8364V19.7354H30.4968L23.5505 9.45976V19.7354H20.3446Z" fill="#FFF9EB"/>
<path d="M46.6073 19.7354L45.316 16.0529H39.4161L38.1693 19.7354H34.6962L40.2176 4.41014H44.559L50.0804 19.7354H46.6073ZM40.2844 13.473H44.4032L42.3104 7.49724L40.2844 13.473Z" fill="#FFF9EB"/>
<path d="M52.8928 20C52.3437 20 51.8687 19.8089 51.4679 19.4267C51.0672 19.0445 50.8668 18.5741 50.8668 18.0154C50.8668 17.4568 51.0672 16.9864 51.4679 16.6042C51.8687 16.222 52.3437 16.0309 52.8928 16.0309C53.4717 16.0309 53.9541 16.222 54.34 16.6042C54.7407 16.9717 54.9411 17.4421 54.9411 18.0154C54.9411 18.5741 54.7407 19.0445 54.34 19.4267C53.9541 19.8089 53.4717 20 52.8928 20Z" fill="#FFF9EB"/>
<path d="M67.6041 19.7354L66.3129 16.0529H60.413L59.1662 19.7354H55.6931L61.2145 4.41014H65.5559L71.0773 19.7354H67.6041ZM61.2812 13.473H65.4L63.3073 7.49724L61.2812 13.473Z" fill="#FFF9EB"/>
<path d="M71.2269 19.7354V17.0452L79.2419 7.40904H71.5163V4.41014H83.4497V7.10033L75.4348 16.7365H83.7391V19.7354H71.2269Z" fill="#FFF9EB"/>
</svg>
