<svg width="114" height="20" viewBox="0 0 114 20" fill="none" xmlns="http://www.w3.org/2000/svg">
<path d="M56.6936 17.1175C24.0378 17.1175 0.831299 19.1262 0.831299 19.1262V19.9996H58.6199L59.2328 17.1175C58.4938 17.1147 57.6042 17.1175 56.6936 17.1175ZM60.9839 17.1175L60.4586 19.9996H113.169V19.1262C113.169 19.1262 91.3947 17.2816 60.9839 17.1175Z" fill="#FFEA00"/>
<path d="M15.104 0L12.0394 14.4105H23.0718L23.5096 11.7031H15.9796L16.68 8.38428H23.5096L24.0349 5.50218H17.2054L17.8183 2.79476H25.4359L25.8737 0H15.104ZM51.9661 3.49345C47.6652 3.49345 45.928 5.77467 45.2241 9.08297C44.5201 12.3878 46.1627 14.7598 49.602 14.7598C53.6892 14.7598 55.64 12.4751 56.344 9.1703C57.0515 5.862 55.9342 3.49345 51.9661 3.49345ZM76.57 3.49345C72.2691 3.49345 70.6195 5.77817 69.9156 9.08297C69.2116 12.3913 70.7666 14.7598 74.2059 14.7598C77.6942 14.7598 79.6661 13.1039 80.5977 10.5677H77.358C76.9167 11.5983 76.2057 12.3144 74.7313 12.3144C72.8015 12.3144 72.6229 10.669 72.9801 8.99563C73.3373 7.32227 74.2024 5.67685 76.1322 5.67685C77.6207 5.67685 78.0305 6.7179 77.9709 7.94759H81.123C81.3121 5.29607 80.0268 3.49345 76.57 3.49345ZM65.275 3.66812C64.3083 3.66812 62.7428 3.89869 61.9477 4.71615L62.1229 3.93013H58.9707C58.8657 4.62183 55.7311 20 55.7311 20H58.7956L60.109 13.7118C60.7149 14.648 62.424 14.8472 63.1735 14.8472C66.2591 14.8472 67.6776 11.8672 68.2519 9.1703C68.8543 6.3441 68.28 3.66812 65.275 3.66812ZM88.5655 3.66812C83.0598 3.51776 83.312 7.07423 83.312 7.07423H86.2014C86.2014 7.07423 86.1628 5.67685 88.2153 5.67685C88.2153 5.67685 90.068 5.59301 89.7913 6.89956C89.7913 6.89956 89.7526 8.02795 88.4779 7.94759C88.4779 7.94759 82.3769 7.31528 81.911 11.7904C81.911 11.7904 81.6589 14.9345 85.2383 14.9345C85.2383 14.9345 87.5883 14.8646 88.6531 13.7118C88.6531 13.7118 88.9508 14.4105 89.9664 14.4105H91.7176L92.243 12.3144L91.9804 12.1397C91.9804 12.1397 91.7669 12.1677 91.893 11.6157L93.0313 6.11353C93.5251 3.71353 88.5658 3.66812 88.5658 3.66812H88.5655ZM26.9244 3.92999L25.4359 10.7422C25.3588 11.0986 25.2327 11.7518 25.2608 12.4016C25.3134 13.9282 27.1905 14.6724 28.2377 14.6724C29.7052 14.6724 30.6403 14.309 31.3898 13.7117V14.4103H34.542C34.612 13.7815 34.6924 13.2051 34.8045 12.5763L36.6432 3.92999H33.4911L32.1777 9.95619C31.81 11.4863 30.6857 11.7903 29.9012 11.7903C28.5493 11.7903 28.4617 11.2033 28.6754 10.2182L30.0763 3.92999H26.9244ZM38.7448 3.92999C38.6223 4.70554 36.6434 14.4103 36.6434 14.4103H39.9706L41.1088 8.99549C41.2489 8.31077 41.2033 7.60161 41.6342 6.98676C41.9774 6.49419 42.853 6.32999 43.3853 6.28806H44.8738L45.4867 3.92999C44.0403 3.92999 43.0982 3.89841 41.8969 4.71601V3.92999H38.7448ZM95.9204 3.92999C95.7977 4.70554 93.819 14.4103 93.819 14.4103H97.1462L98.1969 8.99549C98.337 8.31077 98.379 7.60161 98.8098 6.98676C99.1566 6.49419 100.029 6.32999 100.561 6.28806H101.962L102.662 3.92999C101.216 3.92999 100.274 3.89841 99.0725 4.71601V3.92999H95.9204ZM51.5283 5.67672C53.4581 5.67672 53.5491 7.40947 53.1919 9.08283C52.8346 10.7562 52.2568 12.3143 50.1273 12.3143C48.1976 12.3143 48.0189 10.6689 48.3762 8.99549C48.7334 7.32213 49.5985 5.67672 51.5283 5.67672ZM63.874 6.11339C65.3065 6.11339 65.7057 7.47235 65.3625 9.08283C65.0193 10.6968 64.1752 12.0523 62.5606 12.0523C60.862 12.0523 60.6764 10.5256 60.9846 9.08283C61.2928 7.63654 62.1754 6.11339 63.874 6.11339ZM89.0033 9.78152C89.0033 9.78152 88.5445 12.6636 86.2014 12.6636C86.2014 12.6636 84.888 12.7508 84.888 11.7029C84.888 11.7029 84.9197 10.3614 86.8143 10.1309C86.8143 10.1309 88.2853 10.0297 89.0033 9.78152Z" fill="white"/>
</svg>
