<svg width="54" height="40" viewBox="0 0 54 40" fill="none" xmlns="http://www.w3.org/2000/svg">
<path d="M6.22634 39.9275V38.4756H4.71114V39.9275H4.11694V36.6238H4.71114V37.9423H6.22634V36.6238H6.82053V39.9275" fill="white"/>
<path d="M9.0487 37.0518C8.4248 37.0518 8.05342 37.5703 8.05342 38.2666C8.05342 38.9333 8.43965 39.4814 9.0487 39.4814C9.67261 39.4814 10.0291 38.9481 10.0291 38.2666C10.044 37.5999 9.65775 37.0518 9.0487 37.0518ZM9.0487 39.9851C8.18712 39.9851 7.45923 39.3333 7.45923 38.2666C7.45923 37.1999 8.20197 36.5481 9.0487 36.5481C9.89543 36.5481 10.6382 37.1851 10.6382 38.2666C10.6382 39.3333 9.89543 39.9851 9.0487 39.9851Z" fill="white"/>
<path d="M12.5381 37.1423V39.9275H11.9439V37.1423H10.9041V36.6238H13.5482L13.6225 37.1423" fill="white"/>
<path d="M14.2771 39.9275V36.6238H16.3271V37.1423H14.8564V37.9423H16.03L16.1191 38.4608H14.8564V39.409H16.3716V39.9275" fill="white"/>
<path d="M17.1726 39.9275V36.6238H17.7519V39.4238H19.0146L19.0889 39.9275" fill="white"/>
<path d="M20.6472 39.9566C20.2462 39.9566 19.8451 39.8529 19.5034 39.7048L19.5925 39.1863C19.9045 39.3492 20.3353 39.4677 20.677 39.4677C21.0483 39.4677 21.3157 39.3048 21.3157 39.0233C21.3157 38.7418 21.1375 38.6381 20.6621 38.49C19.9639 38.2529 19.6223 38.0307 19.6223 37.527C19.6223 36.964 20.0976 36.5789 20.7364 36.5789C21.1077 36.5789 21.4494 36.6529 21.6871 36.7715L21.598 37.3196C21.3009 37.1566 21.0038 37.0677 20.7067 37.0677C20.3799 37.0677 20.157 37.2455 20.157 37.4529C20.157 37.7048 20.3353 37.7937 20.8552 37.9715C21.5534 38.2085 21.8505 38.4455 21.8505 38.964C21.8505 39.5715 21.3603 39.9566 20.6472 39.9566Z" fill="white"/>
<path d="M24.9545 38.4005C24.6722 38.5487 24.5088 38.7561 24.5088 39.0227C24.5088 39.3338 24.7316 39.5413 25.0882 39.5413C25.3407 39.5413 25.5784 39.4376 25.7715 39.2301M26.5142 39.9561L26.0686 39.5264C25.8012 39.8227 25.4447 40.0005 25.0436 40.0005C24.3306 40.0005 23.9443 39.6598 23.9443 39.0968C23.9443 38.6375 24.2414 38.3264 24.6722 38.1042C24.4643 37.8672 24.3603 37.6746 24.3603 37.3783C24.3603 36.9338 24.6871 36.5635 25.2813 36.5635C25.6081 36.5635 25.9052 36.6524 26.1429 36.7709L26.0537 37.2894C25.8012 37.1264 25.5487 37.0375 25.311 37.0375C25.0436 37.0375 24.9248 37.1857 24.9248 37.3931L25.207 37.9116L26.0537 38.7857C26.1577 38.5635 26.2171 38.3116 26.2468 38.0005L26.7222 38.1042C26.6628 38.4894 26.5588 38.8301 26.3954 39.1264L27.1084 39.8375L26.5142 39.9561Z" fill="white"/>
<path d="M30.2469 37.1269H29.8161V38.1936H30.2469C30.6777 38.1936 30.9154 38.001 30.9154 37.6454C30.9154 37.3047 30.6777 37.1269 30.2469 37.1269ZM31.1382 39.9565L30.1726 38.638H29.8161V39.9121H29.2219V36.6084H30.2469C31.0045 36.6084 31.4947 36.964 31.4947 37.6158C31.4947 38.1047 31.2273 38.4158 30.7965 38.5491L31.7324 39.8084L31.1382 39.9565Z" fill="white"/>
<path d="M32.4153 39.9275V36.6238H34.4801V37.1423H33.0095V37.9423H34.183L34.2721 38.4608H33.0095V39.409H34.5247V39.9275" fill="white"/>
<path d="M36.3057 39.9566C35.9046 39.9566 35.5035 39.8529 35.1619 39.7048L35.251 39.1863C35.5629 39.3492 35.9937 39.4677 36.3354 39.4677C36.7068 39.4677 36.9742 39.3048 36.9742 39.0233C36.9742 38.7418 36.7959 38.6381 36.3205 38.49C35.6224 38.2529 35.2807 38.0307 35.2807 37.527C35.2807 36.964 35.7561 36.5789 36.3948 36.5789C36.781 36.5789 37.1079 36.6529 37.3604 36.7715L37.2713 37.3196C36.9742 37.1566 36.6771 37.0677 36.38 37.0677C36.0532 37.0677 35.8303 37.2455 35.8303 37.4529C35.8303 37.7048 36.0086 37.7937 36.5285 37.9715C37.2267 38.2085 37.5238 38.4455 37.5238 38.964C37.5238 39.5715 37.0336 39.9566 36.3057 39.9566Z" fill="white"/>
<path d="M39.6018 37.0518C38.9778 37.0518 38.6065 37.5703 38.6065 38.2666C38.6065 38.9333 38.9927 39.4814 39.6018 39.4814C40.2257 39.4814 40.5822 38.9481 40.5822 38.2666C40.597 37.5999 40.2108 37.0518 39.6018 37.0518ZM39.6315 39.9851C38.7847 39.9851 38.042 39.3333 38.042 38.2666C38.042 37.1999 38.7847 36.5481 39.6315 36.5481C40.493 36.5481 41.2209 37.1851 41.2209 38.2666C41.2209 39.3333 40.4782 39.9851 39.6315 39.9851Z" fill="white"/>
<path d="M42.9283 37.1269H42.4976V38.1936H42.9283C43.3443 38.1936 43.5968 38.001 43.5968 37.6454C43.5968 37.3047 43.3591 37.1269 42.9283 37.1269ZM43.8196 39.9565L42.8541 38.638H42.4976V39.9121H41.9182V36.6084H42.9432C43.7008 36.6084 44.191 36.964 44.191 37.6158C44.191 38.1047 43.9236 38.4158 43.4928 38.5491L44.4287 39.8084L43.8196 39.9565Z" fill="white"/>
<path d="M46.3193 37.1423V39.9275H45.7251V37.1423H44.6853V36.6238H47.3295L47.4037 37.1423" fill="white"/>
<path d="M48.8587 39.9566C48.4576 39.9566 48.0714 39.8529 47.7297 39.7048L47.8189 39.1863C48.1308 39.3492 48.5616 39.4677 48.9033 39.4677C49.2746 39.4677 49.542 39.3048 49.542 39.0233C49.542 38.7418 49.3638 38.6381 48.8884 38.49C48.1902 38.2529 47.8337 38.0307 47.8337 37.527C47.8337 36.964 48.3091 36.5789 48.9478 36.5789C49.3192 36.5789 49.6609 36.6529 49.8985 36.7715L49.8094 37.3196C49.5123 37.1566 49.2152 37.0677 48.9181 37.0677C48.5913 37.0677 48.3685 37.2455 48.3685 37.4529C48.3685 37.7048 48.5468 37.7937 49.0667 37.9715C49.7649 38.2085 50.062 38.4455 50.062 38.964C50.0768 39.5715 49.5866 39.9566 48.8587 39.9566Z" fill="white"/>
<path d="M26.3664 0.000976562C20.4988 0.000976562 16.1611 3.73431 16.1611 7.73431C16.1611 9.79357 17.3347 11.5417 18.7904 12.7417L18.9093 12.6676C17.7506 11.7047 16.6959 10.2084 16.6959 8.14913C17.0079 3.77875 22.415 1.3195 27.1835 1.3195C30.5852 1.3195 36.6906 2.10468 36.6906 7.76394C36.6906 10.7269 33.5265 14.5639 26.8715 14.5639C23.4846 14.5639 20.8404 12.7417 20.8404 10.1343C20.8404 7.88246 22.6082 6.26764 25.2375 6.26764C25.9654 6.26764 26.6487 6.44542 27.1686 6.57875C26.0693 6.37135 24.3759 6.66764 23.4846 7.36394V11.1862H26.723V6.83061C27.332 6.93431 27.8222 7.17135 28.149 7.37875V11.1862H28.9958C28.3273 11.9417 27.0943 12.3862 26.0099 12.2232V12.3862C29.0997 12.6232 30.4218 11.1713 30.4218 9.51209C30.4218 7.57135 28.5947 6.44542 26.7378 6.20838V3.3195H23.4994V6.2232C21.3901 6.65283 19.3252 7.89727 19.3252 9.95653C19.3252 13.1417 23.7817 15.1121 27.644 15.1121C33.5413 15.1121 38.0869 12.2676 38.0869 8.28246C38.0869 3.45283 31.5211 0.000976562 26.3664 0.000976562ZM30.8675 9.61579C30.8675 8.20838 29.9019 7.08246 28.149 6.53431V3.3195H31.4022V11.1713H30.3773C30.7338 10.6676 30.8675 10.1047 30.8675 9.61579Z" fill="white"/>
<path d="M12.2108 19.8246V31.0986L13.0873 31.2172V31.8838H8.73477V31.2172L9.67063 31.0986V25.9727H4.1149V31.0986L4.97649 31.2172V31.8838H0.713135V31.2172L1.55986 31.0986V19.8246L0.713135 19.7061V19.0542H4.97649V19.7061L4.1149 19.8246V24.6394H9.67063V19.8246L8.73477 19.7061V19.0542H13.0873V19.7061" fill="white"/>
<path d="M18.2717 19.8823C18.2717 20.7416 17.6924 21.3786 16.8902 21.3786C16.0732 21.3786 15.5087 20.8009 15.5087 19.9416C15.5087 19.1268 16.0732 18.4898 16.8902 18.4898C17.6924 18.4749 18.2717 19.112 18.2717 19.8823ZM17.9746 31.1712L18.7916 31.2898V31.8675H14.7957V31.2898L15.6127 31.1712V23.4527L14.7957 23.3342V22.7564H17.9746V31.1712Z" fill="white"/>
<path d="M20.5303 31.2902L21.3324 31.1717V19.3791L20.5303 19.2606V18.668H23.7092V31.1717L24.5262 31.2902V31.8828H20.5303" fill="white"/>
<path d="M29.3555 22.7563H31.5094V23.6156H29.3555V29.0378C29.3555 30.4452 29.6526 30.8897 30.9152 30.8897C31.3906 30.8897 31.7917 30.8897 32.1779 30.8008V31.423C31.0192 31.8378 30.0536 32.0008 29.2366 32.0008C27.4095 32.0008 26.9787 31.1711 26.9787 29.5711V23.6156H25.3149V22.7563H27.053V20.8452L29.3703 20.1489" fill="white"/>
<path d="M39.5893 27.3498C39.5893 24.4609 38.7277 23.2017 37.3462 23.2017C35.9944 23.2017 35.1477 24.4017 35.1477 27.3498C35.1477 30.2387 36.0092 31.4387 37.3462 31.4387C38.7871 31.4535 39.5893 30.298 39.5893 27.3498ZM42.2037 27.4091C42.2037 30.2535 40.2875 32.1498 37.2868 32.1498C34.3752 32.1498 32.5332 30.9054 32.5332 27.4091C32.5332 24.4757 34.4495 22.5054 37.4502 22.5054C40.4063 22.5054 42.2037 24.2683 42.2037 27.4091Z" fill="white"/>
<path d="M53.285 31.2897V31.8675H49.289V31.2897L50.0912 31.1712V25.986C50.0912 24.549 49.5712 23.8971 48.472 23.8971C47.9669 23.8971 47.1647 24.2527 46.5854 24.6527V31.1564L47.4024 31.2749V31.8527H43.3916V31.2749L44.2086 31.1564V23.4971L43.3916 23.3786V22.7564H46.5854V24.0156C47.5807 23.2156 48.5314 22.5786 49.8832 22.5786C51.6806 22.5786 52.4828 23.6305 52.4828 25.7045V31.186" fill="white"/>
<path d="M37.3586 13.8532H37.0615V13.7495H37.7746V13.8532H37.5072V14.9051H37.3586M38.6064 14.6977L38.9778 13.7495H39.1561V14.9051H39.0224V14.031L38.6807 14.9051H38.547L38.1905 14.031V14.9051H38.0568V13.7495H38.2499L38.6064 14.6977Z" fill="white"/>
</svg>
