<svg width="120" height="20" viewBox="0 0 120 20" fill="none" xmlns="http://www.w3.org/2000/svg">
<path fill-rule="evenodd" clip-rule="evenodd" d="M15.5293 9.92774H2.85733L3.28503 8.61847C3.70657 7.32863 4.957 6.4502 6.37188 6.4502H18.5184C19.777 6.4502 20.6963 7.58592 20.3789 8.74918L19.2763 12.7925C18.9053 14.1529 17.6191 15.1023 16.1471 15.1023H5.77048L4.45948 19.9986H0.00244141L1.75995 13.9929C2.15035 12.6587 3.42359 11.736 4.87423 11.736H15.0632L15.5293 9.92774Z" fill="white"/>
<path fill-rule="evenodd" clip-rule="evenodd" d="M22.9458 6.47807L19.8532 17.6823C19.5308 18.8509 20.4373 19.9986 21.6832 19.9986H34.1206C35.5702 19.9986 36.837 19.0486 37.2037 17.6866L40.2272 6.4502H38.6124C37.1625 6.4502 35.8954 7.4008 35.5292 8.7632L33.4237 16.5975H24.1802L26.4084 8.7989C26.7448 7.62145 25.8278 6.4586 24.5696 6.46716L22.9458 6.47807Z" fill="white"/>
<path fill-rule="evenodd" clip-rule="evenodd" d="M58.6833 7.09717H44.3566C42.8932 7.09717 41.6078 7.98351 41.2089 9.26766L40.8811 10.323H55.1881C56.6329 10.323 57.9066 9.45867 58.3217 8.19643L58.6833 7.09717Z" fill="white"/>
<path fill-rule="evenodd" clip-rule="evenodd" d="M40.9493 10.9668L40.6431 12.0524C40.2904 13.3025 41.2051 14.5501 42.4742 14.5501H52.6468L52.0693 16.4157H42.3601C40.9684 16.4157 39.7356 17.3364 39.3087 18.6945L38.8987 19.9991H53.1294C54.5821 19.9991 55.8532 18.9975 56.2273 17.5583L57.295 13.4499C57.617 12.2104 56.7071 10.9942 55.4562 10.9922L40.9493 10.9668Z" fill="white"/>
<path fill-rule="evenodd" clip-rule="evenodd" d="M61.2178 6.4502L57.3655 19.9986H61.5438L63.1145 14.5287H70.8487L69.3374 19.9704H73.5454L75.827 11.6956H63.8553L65.3962 6.47824L61.2178 6.4502Z" fill="white"/>
<path fill-rule="evenodd" clip-rule="evenodd" d="M72.5268 6.4502L71.8674 9.676H75.1876L75.8235 6.50832L72.5268 6.4502Z" fill="white"/>
<path fill-rule="evenodd" clip-rule="evenodd" d="M75.8225 6.62107H89.5669C90.0301 6.62107 90.3651 6.94348 90.2391 7.26812C90.1539 7.4872 89.8795 7.63852 89.5669 7.63852H84.6595L84.1433 9.0321H89.6478C90.9146 9.0321 92.005 8.38083 92.2536 7.4762C92.5823 6.27853 91.3247 5.16113 89.6478 5.16113H76.278L75.8225 6.62107Z" fill="#6EFAAA"/>
<path fill-rule="evenodd" clip-rule="evenodd" d="M106.325 7.79737C106.6 6.94545 107.42 6.36473 108.347 6.36473H113.287L111.288 12.4524C111.008 13.3064 110.181 13.884 109.25 13.8758L104.376 13.833L106.325 7.79737ZM118 6.41836L115.588 13.8091C114.757 16.356 112.303 18.0889 109.527 18.0889H103.261C100.901 18.0889 99.206 15.9037 99.8783 13.7275L102.148 6.3775H104.839L102.4 14.271C102.164 15.0326 102.757 15.7976 103.584 15.7976H109.232C110.974 15.7976 112.512 14.7056 113.026 13.1046L115.329 5.92161C115.575 5.15739 114.981 4.38315 114.149 4.38315H97.0314C97.0314 4.38315 97.3841 3.57687 96.0168 2.00683H114.633C117.016 2.00683 118.714 4.23168 118 6.41836ZM114.347 0H75.5326L74.8855 2.00843H90.7952C93.3244 2.00843 94.8829 2.74391 95.2946 5.12022C95.7063 7.49639 93.1772 9.47668 93.1772 9.47668C93.1772 9.47668 95.4122 10.6365 95.177 13.324C94.9417 16.0113 92.6186 18.1896 88.178 18.1896H77.0911L77.8557 15.7284H90.012C91.1806 15.7284 92.1988 14.9627 92.4807 13.8717C92.8795 12.3282 91.6656 10.8346 90.012 10.8346H84.3254L83.649 12.5036H90.0768C90.5106 12.5036 90.8372 12.8835 90.7555 13.2934C90.6933 13.6067 90.4084 13.8331 90.0768 13.8331H76.5028L74.5032 20H88.119C92.1773 20 94.3536 19.0099 95.9122 16.6055C97.4709 14.2009 97.6472 11.6548 95.9416 9.1938C97.2355 7.55311 96.971 6.22344 96.971 6.22344H100.265L98.1326 12.958C97.0279 16.4476 99.7419 19.9719 103.534 19.9719H109.608C113.05 19.9719 116.099 17.8394 117.161 14.6904L119.718 7.10725C120.901 3.59837 118.182 0 114.347 0Z" fill="#6EFAAA"/>
</svg>
