<svg width="70" height="24" viewBox="0 0 70 24" fill="none" xmlns="http://www.w3.org/2000/svg">
<path d="M4.26219 17.1405C4.55578 17.9158 4.96224 18.5787 5.48166 19.1292C6.00108 19.6798 6.61644 20.1012 7.32774 20.3933C8.03911 20.6855 8.81254 20.8315 9.64811 20.8315C10.4611 20.8315 11.2232 20.6798 11.9346 20.3764C12.646 20.073 13.267 19.6461 13.7976 19.0955C14.3283 18.5449 14.7404 17.8877 15.034 17.1236C15.3276 16.3596 15.4744 15.5057 15.4744 14.5618V0H19.0311V23.5955H15.5082V21.4045C14.7179 22.2359 13.7863 22.8764 12.7137 23.3259C11.6409 23.7753 10.4837 24 9.24164 24C7.97697 24 6.79707 23.7809 5.7018 23.3427C4.6066 22.9045 3.65807 22.2809 2.85646 21.4719C2.05485 20.6629 1.42247 19.6911 0.959569 18.5562C0.496589 17.4214 0.265137 16.1574 0.265137 14.764V0H3.82185V14.5618C3.82185 15.5057 3.9686 16.3652 4.26219 17.1405Z" fill="white"/>
<path d="M25.1614 0V8.59549C25.9518 7.80899 26.8664 7.18545 27.9052 6.72473C28.944 6.26402 30.0731 6.0337 31.2925 6.0337C32.5572 6.0337 33.7426 6.26961 34.8492 6.74151C35.9557 7.21342 36.9154 7.85389 37.7284 8.66292C38.5415 9.47195 39.1851 10.4269 39.6593 11.5281C40.1335 12.6292 40.3706 13.7978 40.3706 15.0337C40.3706 16.2696 40.1335 17.4326 39.6593 18.5224C39.1851 19.6123 38.5415 20.5618 37.7284 21.3707C36.9154 22.1797 35.9557 22.8202 34.8492 23.2921C33.7426 23.764 32.5571 23.9999 31.2925 23.9999C30.073 23.9999 28.9383 23.7696 27.8883 23.3089C26.8382 22.8482 25.9179 22.2246 25.1276 21.4381V23.5954H21.7402V0H25.1614ZM25.551 17.3596C25.8558 18.0787 26.2793 18.7079 26.8212 19.2472C27.3632 19.7866 27.9955 20.2136 28.7181 20.5282C29.4408 20.8428 30.2199 21.0001 31.0554 21.0001C31.8685 21.0001 32.6362 20.8428 33.3588 20.5282C34.0814 20.2136 34.708 19.7866 35.2388 19.2472C35.7695 18.708 36.1929 18.0787 36.509 17.3596C36.8252 16.6405 36.9833 15.8652 36.9833 15.0337C36.9833 14.2023 36.8252 13.4213 36.509 12.691C36.1929 11.9607 35.7695 11.3259 35.2388 10.7865C34.7081 10.2473 34.0815 9.82586 33.3588 9.52252C32.6361 9.21918 31.8684 9.0674 31.0554 9.0674C30.2425 9.0674 29.4747 9.21911 28.7521 9.52252C28.0295 9.82594 27.3972 10.2473 26.8551 10.7865C26.3132 11.3259 25.8841 11.9607 25.568 12.691C25.2518 13.4213 25.0937 14.2023 25.0937 15.0337C25.0937 15.8652 25.2461 16.6405 25.551 17.3596Z" fill="white"/>
<path d="M42.2987 11.5617C42.7503 10.483 43.3714 9.53361 44.1617 8.71339C44.952 7.89317 45.8893 7.24711 46.9732 6.7752C48.0572 6.3033 49.2315 6.06738 50.4961 6.06738C51.7381 6.06738 52.8898 6.29211 53.9512 6.74149C55.0125 7.19094 55.9271 7.81456 56.6949 8.61233C57.4627 9.41002 58.0612 10.3539 58.4902 11.4438C58.9193 12.5337 59.1338 13.7191 59.1338 15V16.1124H45.0763C45.1893 16.809 45.4151 17.4551 45.7538 18.0505C46.0926 18.646 46.5159 19.1629 47.024 19.6011C47.5321 20.0393 48.108 20.382 48.7516 20.6291C49.3952 20.8763 50.0783 21 50.801 21C52.856 21 54.5158 20.1572 55.7804 18.4718L58.2532 20.292C57.395 21.4381 56.3337 22.337 55.0691 22.9887C53.8045 23.6403 52.3818 23.9662 50.801 23.9662C49.5138 23.9662 48.3114 23.7414 47.1935 23.292C46.0757 22.8426 45.1047 22.2133 44.2804 21.4043C43.4562 20.5953 42.8069 19.6459 42.3327 18.556C41.8585 17.4662 41.6213 16.2807 41.6213 14.9999C41.6212 13.7864 41.8471 12.6403 42.2987 11.5617ZM47.0579 10.2302C46.0982 11.0279 45.4602 12.0897 45.1441 13.4156H55.6788C55.3852 12.0897 54.7585 11.0279 53.7988 10.2302C52.839 9.43247 51.7155 9.03359 50.4284 9.03359C49.1411 9.03359 48.0177 9.43247 47.0579 10.2302Z" fill="white"/>
<path d="M65.5392 10.6189C64.8166 11.4054 64.4552 12.4728 64.4552 13.8211V23.5965H61.0339V6.40543H64.4213V8.52904C64.8504 7.83241 65.4093 7.28182 66.098 6.87734C66.7867 6.47278 67.6054 6.27051 68.5539 6.27051H69.7394V9.43906H68.3167C67.1877 9.43914 66.2618 9.83235 65.5392 10.6189Z" fill="white"/>
</svg>
