<svg width="367" height="62" viewBox="0 0 367 62" fill="none" xmlns="http://www.w3.org/2000/svg">
<path d="M0.5 33.6332V26.1691C0.5 16.6976 0.5 11.9618 2.36046 8.44882C4.00272 5.34784 6.58349 2.89956 9.76664 1.42285C13.3727 -0.250069 18.1074 -0.000434041 27.5767 0.498835C66.8775 2.57097 140.483 6.05251 190.5 6C241.221 5.94675 310.609 2.41105 346.262 0.3858C348.961 0.232472 350.311 0.155807 351.34 0.230165C360.039 0.858468 366.583 8.2343 366.17 16.9463C366.121 17.9773 365.885 19.3006 365.414 21.9473L365.413 21.9509C365.274 22.7333 365.204 23.125 365.145 23.5158C364.666 26.6521 364.656 29.8422 365.116 32.9813C365.173 33.3731 365.241 33.7658 365.376 34.5514L365.502 35.2877C366.292 39.8821 366.686 42.1792 366.558 44.0829C366.099 50.9091 361.322 56.7094 354.711 58.4696C352.867 58.9604 350.546 59.0134 345.905 59.1194C308.458 59.9743 234.35 61.5 182.402 61.5C131.524 61.5 61.9737 60.0365 25.3669 59.1731H25.3669C16.6838 58.9683 12.3423 58.8659 9.00182 57.0937C6.06876 55.5378 3.67925 53.0912 2.19286 50.1223C0.5 46.7409 0.5 42.3717 0.5 33.6332Z" fill="#FFC404" fill-opacity="0.4"/>
</svg>
