<svg width="40" height="40" viewBox="0 0 40 40" fill="none" xmlns="http://www.w3.org/2000/svg">
<rect width="40" height="40" rx="20" fill="#34D186"/>
<g clip-path="url(#clip0_2419_7328)">
<path fill-rule="evenodd" clip-rule="evenodd" d="M27.7231 13.5V24.7776H25.0472V14.0639L27.7231 13.5ZM20.1043 25.8464C20.8432 25.8464 21.4422 26.4405 21.4422 27.1732C21.4422 27.906 20.8432 28.5 20.1043 28.5C19.3654 28.5 18.7664 27.906 18.7664 27.1732C18.7664 26.4405 19.3654 25.8464 20.1043 25.8464ZM20.1043 16.7027C22.3825 16.7027 24.2334 18.5344 24.2334 20.7973C24.2334 23.0602 22.3825 24.8919 20.1043 24.8919C17.8224 24.8919 15.9753 23.0602 15.9753 20.7973C15.9753 18.5344 17.8261 16.7027 20.1043 16.7027ZM20.1043 22.1241C20.8439 22.1241 21.4422 21.5307 21.4422 20.7973C21.4422 20.0639 20.8439 19.4705 20.1043 19.4705C19.3647 19.4705 18.7664 20.0639 18.7664 20.7973C18.7664 21.5307 19.3647 22.1241 20.1043 22.1241ZM11.6865 22.1241C12.1473 22.1241 12.5227 21.7518 12.5227 21.2948C12.5227 20.8378 12.1473 20.4656 11.6865 20.4656H9.67958V22.1241H11.6865ZM9.67958 16.1536V17.812H11.1662C11.627 17.812 12.0024 17.4398 12.0024 16.9828C12.0024 16.5258 11.627 16.1536 11.1662 16.1536H9.67958ZM14.1505 18.8145C14.7972 19.4484 15.1986 20.3256 15.1948 21.2948C15.1948 23.2187 13.6228 24.7776 11.6828 24.7776H7V13.5H11.1625C13.1025 13.5 14.6745 15.059 14.6745 16.9828C14.6745 17.6536 14.485 18.2838 14.1505 18.8145ZM32.7775 19.5074H31.4433V21.5897C31.4433 22.2199 31.6477 22.6843 32.1829 22.6843C32.5285 22.6843 32.7812 22.6069 32.7812 22.6069V24.5602C32.7812 24.5602 32.2275 24.8919 31.4767 24.8919H31.4433C31.4098 24.8919 31.3801 24.8882 31.3466 24.8882H31.3206C31.3058 24.8882 31.2872 24.8845 31.2723 24.8845C29.7783 24.8071 28.7637 23.8747 28.7637 22.2568V15.3907L31.4396 14.8268V16.8538H32.7775V19.5074Z" fill="white"/>
</g>
<defs>
<clipPath id="clip0_2419_7328">
<rect width="25.875" height="15" fill="white" transform="translate(7 13.5)"/>
</clipPath>
</defs>
</svg>
