<svg width="40" height="40" viewBox="0 0 40 40" fill="none" xmlns="http://www.w3.org/2000/svg">
<rect width="40" height="40" rx="20" fill="#00C2E8"/>
<path d="M33.1277 19.2479C33.5741 19.2408 33.8858 19.0991 33.9638 18.6811C34.0063 18.4331 33.8646 18.2701 33.5741 18.256C33.5741 18.256 32.7452 18.2135 31.7958 18.171C31.7958 18.171 30.3788 18.1143 29.9821 18.1072C29.6278 18.1001 29.2877 18.093 29.0469 18.1001C28.8272 18.1072 28.7209 18.2205 28.6714 18.3977C28.6288 18.5819 28.5863 18.844 28.5722 19.1132C28.558 19.3187 28.7847 19.4179 29.0114 19.4037C29.0114 19.4037 29.2948 19.3896 29.7341 19.3683C30.2371 19.347 31.5974 19.2904 31.5974 19.2904C32.0863 19.2762 32.6176 19.262 33.1277 19.2479Z" fill="white"/>
<path d="M31.7956 18.1713C31.7956 18.1713 31.9869 17.1156 32.0861 16.6834C32.1357 16.4709 32.0223 16.2654 31.7531 16.1946C31.491 16.1308 30.8817 16.1237 30.6762 16.1521C30.5062 16.1733 30.3432 16.2725 30.3007 16.4496C30.2015 16.8889 30.1023 17.4203 29.9819 18.1075C29.9181 18.4192 29.7977 18.986 29.741 19.3757C29.656 19.7654 29.5001 20.7998 29.4363 21.4445C29.3513 22.2167 29.3088 22.6702 29.3584 23.3361C29.5143 24.5335 30.1377 25.0011 31.1509 25.0011C32.0861 25.0011 32.9788 24.4131 33.6164 23.3432C33.7439 23.1307 33.8361 22.9465 33.7581 22.8544C33.5739 22.6418 33.2197 22.5356 33.1276 22.7056C32.7096 23.4708 32.2561 23.7825 31.7673 23.7825C31.3776 23.7825 31.0659 23.5487 31.0659 22.8827C31.0659 21.9121 31.6114 19.2978 31.6114 19.2978C31.6752 19.0002 31.7531 18.5893 31.7956 18.1713Z" fill="white"/>
<path d="M29.7412 19.3675C29.6562 19.7572 29.4932 20.7916 29.4365 21.4363C29.0398 22.7824 28.2108 23.7672 27.4953 23.7672C27.056 23.7672 26.7939 23.5051 26.7939 22.7187C26.7939 21.6276 27.0418 20.246 27.4103 18.8645C27.6582 17.5963 27.9204 16.3564 27.9841 15.6834C28.0054 15.4496 28.1542 15.1237 27.8708 15.067C27.3607 14.9678 26.8789 14.982 26.5388 15.0882C26.2342 15.1804 26.1775 15.4992 26.135 15.6692C25.9579 16.484 25.6745 17.9293 25.4761 19.1975C25.4123 19.6297 25.306 20.161 25.2139 20.6853C25.2139 20.6853 24.9305 22.1306 24.9305 22.9808C24.9305 24.2703 25.4832 24.9858 26.7797 24.9858C27.8495 24.9858 28.7776 24.2348 29.3586 23.3209C29.9041 22.4069 30.7401 19.3321 30.7401 19.3321C31.2219 19.325 29.3019 19.3888 29.7412 19.3675Z" fill="white"/>
<path d="M30.9882 18.162C30.9882 18.162 31.0308 17.1063 31.1299 16.6812C31.1795 16.4687 30.8749 16.1286 30.6694 16.1499C30.4994 16.1711 30.3364 16.2703 30.2939 16.4474C30.1947 16.8867 29.9751 18.1053 29.9751 18.1053L29.7342 19.3735C29.7342 19.3735 29.4863 20.7976 29.4296 21.4423C29.0328 22.7884 28.2039 23.7732 27.4883 23.7732C27.0491 23.7732 26.7869 23.5111 26.7869 22.7247C26.7869 21.6336 24.9236 22.1437 24.9236 22.9868C24.9236 24.2762 25.4762 24.9918 26.7727 24.9918C27.8426 24.9918 28.7707 24.2408 29.3516 23.3269C30.2443 21.6477 30.7544 19.4302 30.7544 19.4302L30.9882 18.162Z" fill="white"/>
<path d="M26.8293 18.3969C27.3465 17.157 26.8718 14.9961 26.5388 15.1024C26.2342 15.1945 26.4751 17.2279 26.4397 17.3979C26.2625 18.2127 26.1492 18.2764 25.4761 19.2116C25.0298 19.7501 24.5197 20.1256 23.967 20.2248C22.4154 20.3877 22.1816 19.6722 22.7626 18.6732C23.6695 17.1074 22.4721 17.653 21.877 18.6803C21.6999 18.992 21.6503 19.3533 21.6361 19.7076C21.6219 20.1539 21.6928 20.7136 22.2737 21.1317C22.9043 21.578 23.4073 21.493 23.8749 21.4009C24.385 21.2946 24.8243 21.0537 25.2069 20.7066C25.214 20.6995 26.468 19.7784 26.8293 18.3969Z" fill="white"/>
<path d="M27.4101 18.8791C27.9273 17.6393 28.2248 16.2577 28.2248 15.6343C28.2248 15.4005 28.154 15.1383 27.8706 15.0816C27.3605 14.9825 26.8787 14.9966 26.5386 15.1029C26.234 15.195 26.6095 15.7193 26.5741 15.8893C26.3969 16.7041 27.0417 20.2607 27.4101 18.8791Z" fill="white"/>
<path d="M20.5238 23.9588C19.9782 23.9588 19.6169 23.4912 19.6169 22.563C19.6169 20.7776 20.2545 18.8647 21.3881 18.8647C21.5157 18.8647 21.629 18.8789 21.7282 18.9214C22.0895 19.0489 22.3304 20.2888 22.21 21.0894C21.9691 22.6551 21.2748 23.9588 20.5238 23.9588ZM23.967 20.225C23.882 18.5459 22.9043 17.8232 21.5582 17.8232C19.1989 17.8232 17.6898 19.9275 17.6898 22.2867C17.6898 24.1996 18.7313 25.0002 20.2545 25.0002C22.047 25.0002 23.3861 23.725 23.882 21.394C23.9529 20.976 23.967 20.6855 23.967 20.225Z" fill="white"/>
<path d="M16.8165 15.0122C16.5048 15.0122 16.2214 15.0264 16.0868 15.0405C15.8105 15.0689 15.7184 15.331 15.7396 15.5861C16.0301 19.3056 15.2083 23.6345 14.2801 23.6345C13.5858 23.6345 13.3945 21.6153 13.3945 19.8158C13.3945 18.753 13.4583 17.7257 13.4795 16.8259C13.4866 16.4929 13.3662 16.4292 13.1253 16.4008C12.7569 16.3583 12.4947 16.3583 12.1263 16.4363C11.85 16.5 11.7792 16.7268 11.4887 17.4211C10.0292 20.8927 8.61931 23.6841 8.61931 23.6841C8.24381 20.8856 8.72558 18.1721 9.12942 16.1954C9.1861 15.9262 9.05857 15.7632 8.83186 15.7632C8.40676 15.7703 7.76204 15.7845 7.47156 15.9758C7.19525 16.1529 7.09606 16.3442 7.01813 16.7409C6.56469 19.0081 6.27421 21.8491 6.72765 24.0525C6.82683 24.5272 6.93311 24.6406 7.13857 24.761C7.33695 24.8885 8.2013 24.9948 8.53429 24.9948C8.91688 24.9948 9.26403 24.8956 9.54743 24.3997C10.1567 23.3511 10.6527 22.3026 11.5737 20.2834C11.6658 22.9119 12.0413 24.9736 13.8905 24.9736C16.3418 24.9736 17.9218 18.8593 17.9218 15.912C17.9218 15.1397 17.5321 15.0122 16.8165 15.0122Z" fill="white"/>
</svg>
