<svg width="52" height="40" viewBox="0 0 52 40" fill="none" xmlns="http://www.w3.org/2000/svg">
<path fill-rule="evenodd" clip-rule="evenodd" d="M32.6501 2.7471e-05V17.9424H28.5248V0.896955L32.6501 2.7471e-05ZM20.9042 13.7207C22.0445 13.7207 22.9671 12.7765 22.9671 11.6098C22.9671 10.4428 22.0445 9.49892 20.9042 9.49892C19.7641 9.49892 18.8415 10.4428 18.8415 11.6098C18.8415 12.7765 19.7641 13.7207 20.9042 13.7207ZM20.9042 5.09532C24.4167 5.09532 27.2699 8.00944 27.2699 11.6098C27.2699 15.2099 24.4164 18.1243 20.9042 18.1243C17.3863 18.1243 14.5384 15.2099 14.5384 11.6098C14.5384 8.00944 17.3919 5.09532 20.9042 5.09532ZM20.9042 19.6429C22.0434 19.6429 22.9671 20.5879 22.9671 21.7538C22.9671 22.9196 22.0434 23.8646 20.9042 23.8646C19.7652 23.8646 18.8415 22.9196 18.8415 21.7538C18.8415 20.5879 19.7652 19.6429 20.9042 19.6429ZM11.7253 8.4553C12.7222 9.46375 13.341 10.8593 13.3351 12.4012C13.3351 15.462 10.9116 17.9424 7.92067 17.9424H0.701294V0H7.11858C10.1095 0 12.533 2.48036 12.533 5.5409C12.533 6.60815 12.2409 7.61084 11.7253 8.4553ZM7.92631 13.7207C8.63687 13.7207 9.21562 13.1284 9.21562 12.4012C9.21562 11.6743 8.63687 11.0821 7.92631 11.0821H4.83256V13.7207H7.92631ZM4.83256 4.22174V6.86033H7.12449C7.83477 6.86033 8.41326 6.26806 8.41326 5.5409C8.41326 4.81402 7.83477 4.22174 7.12449 4.22174H4.83256ZM40.4425 9.55749H38.3854V12.8705C38.3854 13.8732 38.7009 14.6119 39.5258 14.6119C40.0586 14.6119 40.4481 14.4888 40.4481 14.4888V17.5966C40.4481 17.5966 39.5945 18.1243 38.437 18.1243H38.3854C38.3342 18.1243 38.2883 18.1183 38.2365 18.1183H38.1965C38.1736 18.1183 38.1447 18.1125 38.1218 18.1125C35.8184 17.9892 34.2544 16.5057 34.2544 13.9317V3.00785L38.3798 2.11093V5.33574H40.4425V9.55749Z" fill="#34D186"/>
<path fill-rule="evenodd" clip-rule="evenodd" d="M17.9828 35.596C19.1251 35.596 20.0495 34.6518 20.0495 33.4851C20.0495 32.3181 19.1251 31.3742 17.9828 31.3742C16.8402 31.3742 15.9158 32.3181 15.9158 33.4851C15.9158 34.6518 16.8402 35.596 17.9828 35.596ZM17.9828 26.9705C21.5019 26.9705 24.3609 29.8847 24.3609 33.4851C24.3609 37.0853 21.5019 39.9997 17.9828 39.9997C14.4581 39.9997 11.6047 37.0853 11.6047 33.4851C11.6047 29.8847 14.4637 26.9705 17.9828 26.9705ZM31.4804 35.596C32.6227 35.596 33.5471 34.6518 33.5471 33.4851C33.5471 32.3181 32.6227 31.3742 31.4804 31.3742C30.3379 31.3742 29.4135 32.3181 29.4135 33.4851C29.4135 34.6518 30.3379 35.596 31.4804 35.596ZM31.4804 26.9705C34.9995 26.9705 37.8586 29.8847 37.8586 33.4851C37.8586 37.0853 34.9995 39.9997 31.4804 39.9997C27.9557 39.9997 25.1023 37.0853 25.1023 33.4851C25.1023 29.8847 27.9614 26.9705 31.4804 26.9705ZM4.83468 32.9603V39.8178H0.701294V21.875H11.7349V26.1026H4.83468V28.7324H10.4837V32.9603H4.83468ZM47.1653 38.7341C46.4639 39.4002 45.5643 39.8178 44.4518 39.8178C41.2205 39.8178 38.6013 36.942 38.6013 33.3941C38.6013 29.8464 41.2205 26.9704 44.4518 26.9704C45.5643 26.9704 46.4639 27.3804 47.1653 28.0391V21.875H51.2987V39.8178H47.1653V38.7341ZM44.9227 35.5245C46.0747 35.5245 47.0085 34.5707 47.0085 33.3941C47.0085 32.2175 46.0747 31.264 44.9227 31.264C43.7708 31.264 42.8369 32.2175 42.8369 33.3941C42.8369 34.5707 43.7708 35.5245 44.9227 35.5245Z" fill="white"/>
</svg>
