<svg width="56" height="32" viewBox="0 0 56 32" fill="none" xmlns="http://www.w3.org/2000/svg">
<path fill-rule="evenodd" clip-rule="evenodd" d="M44.6077 7.86241e-06V24.059H38.8992V1.20296L44.6077 7.86241e-06ZM28.3543 26.339C29.9307 26.339 31.2085 27.6063 31.2085 29.1695C31.2085 30.7327 29.9307 32 28.3543 32C26.778 32 25.5 30.7327 25.5 29.1695C25.5 27.6063 26.778 26.339 28.3543 26.339ZM28.3543 6.83243C33.2145 6.83243 37.1629 10.7401 37.1629 15.5676C37.1629 20.3951 33.2144 24.3027 28.3543 24.3027C23.4862 24.3027 19.5457 20.3951 19.5457 15.5676C19.5457 10.7401 23.4941 6.83243 28.3543 6.83243ZM28.3543 18.398C29.932 18.398 31.2085 17.1322 31.2085 15.5676C31.2085 14.003 29.932 12.7371 28.3543 12.7371C26.7765 12.7371 25.5 14.003 25.5 15.5676C25.5 17.1322 26.7765 18.398 28.3543 18.398ZM10.3963 18.398C11.3794 18.398 12.1802 17.6039 12.1802 16.629C12.1802 15.6541 11.3794 14.8599 10.3963 14.8599H6.11488V18.398H10.3963ZM6.11488 5.66094V9.19904H9.28628C10.2694 9.19904 11.0702 8.40488 11.0702 7.42998C11.0702 6.45504 10.2694 5.66094 9.28628 5.66094H6.11488ZM15.6528 11.3376C17.0324 12.6899 17.8887 14.5612 17.8808 16.629C17.8808 20.7332 14.5271 24.059 10.3884 24.059H0.398438V0H9.27836C13.4171 0 16.7708 3.3258 16.7708 7.42998C16.7708 8.86096 16.3664 10.2054 15.6528 11.3376ZM55.3904 12.8158H52.5442V17.258C52.5442 18.6025 52.9803 19.5931 54.1219 19.5931C54.8593 19.5931 55.3984 19.428 55.3984 19.428V23.5951C55.3984 23.5951 54.217 24.3027 52.6155 24.3027H52.5442C52.4728 24.3027 52.4093 24.2949 52.338 24.2949H52.2825C52.2508 24.2949 52.2111 24.287 52.1794 24.287C48.9921 24.1218 46.8276 22.1326 46.8276 18.6811V4.03342L52.5362 2.83046V7.15479H55.3904V12.8158Z" fill="white"/>
</svg>
