<svg width="112" height="32" viewBox="0 0 112 32" fill="none" xmlns="http://www.w3.org/2000/svg">
<path d="M5.69564 0.0147783C5.74126 0.0145923 5.78689 0.0144063 5.83389 0.0142147C5.98645 0.0136727 6.13902 0.0135765 6.29158 0.013483C6.40112 0.0131931 6.51067 0.0128785 6.62021 0.0125411C6.91774 0.0117204 7.21527 0.0113161 7.51281 0.0110379C7.69901 0.0108542 7.88521 0.0105972 8.07141 0.0103177C8.65487 0.00946161 9.23833 0.00885655 9.82179 0.00861478C10.4936 0.00833483 11.1654 0.00723885 11.8372 0.00542195C12.3574 0.00406416 12.8777 0.00343693 13.3979 0.00335348C13.7081 0.00328816 14.0184 0.00292445 14.3286 0.00179968C14.621 0.00076023 14.9133 0.00063668 15.2057 0.00118235C15.3123 0.00123018 15.4189 0.000964032 15.5256 0.000339808C16.3625 -0.00426852 17.2123 0.0327136 17.9647 0.442234C18.027 0.474925 18.027 0.474925 18.0906 0.508276C19.0758 1.04102 19.831 1.90405 20.2098 2.96008C20.3703 3.56232 20.4045 4.14045 20.4017 4.76181C20.4018 4.8533 20.4019 4.94479 20.402 5.03628C20.4023 5.28598 20.4018 5.53567 20.4012 5.78537C20.4006 6.05527 20.4008 6.32518 20.4009 6.59509C20.401 7.06216 20.4006 7.52922 20.3999 7.99629C20.3989 8.67158 20.3985 9.34688 20.3984 10.0222C20.3981 11.1179 20.3973 12.2136 20.3961 13.3094C20.3949 14.3735 20.394 15.4376 20.3935 16.5017C20.3935 16.5674 20.3935 16.633 20.3934 16.7007C20.3933 17.03 20.3931 17.3593 20.3929 17.6886C20.3916 20.4187 20.3893 23.1488 20.3866 25.8789C23.1963 25.8583 26.006 25.8376 28.9008 25.8163C29.0041 25.5478 29.1074 25.2792 29.2138 25.0025C29.8251 24.029 30.6718 23.3579 31.8066 23.0868C32.1489 23.0339 32.4957 23.036 32.8414 23.0351C32.978 23.0344 33.1144 23.0313 33.251 23.0281C33.3388 23.0276 33.4266 23.0271 33.5144 23.0268C33.5931 23.026 33.6719 23.0251 33.7531 23.0243C34.0468 23.0747 34.144 23.1581 34.3473 23.3748C34.4388 23.6221 34.4163 23.8838 34.4138 24.1456C34.4132 24.2241 34.4127 24.3026 34.4121 24.3835C34.411 24.473 34.411 24.473 34.4099 24.5643C34.4724 24.563 34.5349 24.5616 34.5993 24.5603C34.8324 24.5557 35.0655 24.5529 35.2987 24.5505C35.3993 24.5493 35.5 24.5476 35.6007 24.5454C35.7458 24.5423 35.8909 24.5409 36.0361 24.5398C36.0807 24.5385 36.1254 24.5372 36.1713 24.5359C36.4901 24.5358 36.6691 24.6137 36.914 24.8147C36.9927 24.9721 36.9961 25.0928 37.004 25.2686C37.0078 25.327 37.0116 25.3854 37.0155 25.4456C36.9595 25.7092 36.8201 25.8512 36.601 26.0042C36.4109 26.0374 36.2732 26.0488 36.085 26.0408C36.0369 26.0403 35.9888 26.0398 35.9393 26.0392C35.7868 26.0371 35.6344 26.0324 35.482 26.0276C35.3781 26.0257 35.2743 26.024 35.1704 26.0225C34.9168 26.0187 34.6636 26.0113 34.4099 26.0042C34.4099 26.562 34.4099 27.1198 34.4099 27.6945C34.5644 27.6916 34.719 27.6886 34.8782 27.6857C35.0284 27.6837 35.1786 27.6822 35.3289 27.6807C35.433 27.6794 35.5371 27.6777 35.6413 27.6756C35.7912 27.6725 35.9412 27.6711 36.0911 27.67C36.1375 27.6687 36.1838 27.6674 36.2315 27.6661C36.4629 27.666 36.5885 27.6862 36.784 27.8143C36.9912 28.0223 36.9912 28.0223 37.0393 28.1953C37.0279 28.5517 36.9906 28.7523 36.7262 29.0091C36.4973 29.1636 36.2657 29.1505 35.9994 29.1466C35.9539 29.1464 35.9084 29.1462 35.8616 29.146C35.7168 29.1453 35.572 29.1438 35.4272 29.1422C35.3288 29.1415 35.2304 29.141 35.132 29.1405C34.8913 29.1391 34.6506 29.1369 34.4099 29.1343C34.4128 29.2023 34.4157 29.2702 34.4187 29.3403C34.421 29.4307 34.4233 29.5212 34.4255 29.6117C34.4276 29.6563 34.4297 29.701 34.4319 29.7469C34.4379 30.0715 34.3821 30.2595 34.1595 30.5116C33.5278 30.8729 32.2761 30.72 31.5927 30.5351C31.466 30.4894 31.3406 30.44 31.2171 30.3864C31.1522 30.3599 31.0873 30.3333 31.0205 30.306C30.2032 29.9374 29.5079 29.2364 29.0886 28.4457C29.0473 28.2391 29.0059 28.0325 28.9634 27.8197C26.133 27.8197 23.3027 27.8197 20.3866 27.8197C20.3866 29.1832 20.3866 30.5467 20.3866 31.9515C18.0286 31.9598 15.6706 31.9667 13.3126 31.9707C13.0341 31.9712 12.7556 31.9717 12.4771 31.9722C12.4217 31.9722 12.3662 31.9723 12.3091 31.9724C11.4118 31.9741 10.5145 31.977 9.61724 31.9805C8.6963 31.984 7.77537 31.9861 6.85443 31.9869C6.28631 31.9874 5.71822 31.989 5.15011 31.9921C4.76035 31.994 4.37061 31.9946 3.98085 31.9942C3.75608 31.9939 3.53136 31.9943 3.3066 31.9963C3.06254 31.9985 2.81854 31.9977 2.57447 31.9967C2.50394 31.9978 2.43342 31.9989 2.36076 32C1.88165 31.9946 1.53973 31.8846 1.16727 31.5759C0.813542 31.1488 0.63438 30.7498 0.647119 30.193C0.69909 29.7029 0.902237 29.3554 1.25579 29.0204C1.35508 28.9465 1.35508 28.9465 1.48029 28.9465C1.48022 28.8941 1.48015 28.8416 1.48007 28.7875C1.47587 25.6754 1.47265 22.5633 1.4707 19.4512C1.47046 19.0773 1.47022 18.7033 1.46997 18.3294C1.46992 18.255 1.46987 18.1805 1.46982 18.1038C1.46901 16.8995 1.46752 15.6952 1.4658 14.4909C1.46404 13.2546 1.463 12.0183 1.46262 10.782C1.46236 10.0195 1.46155 9.25706 1.46002 8.49459C1.45903 7.97128 1.45873 7.44797 1.45897 6.92466C1.45909 6.62302 1.45891 6.3214 1.4579 6.01977C1.45698 5.743 1.45694 5.46625 1.45758 5.18948C1.45766 5.08995 1.45743 4.99042 1.45683 4.8909C1.45218 4.06255 1.48982 3.18275 1.89895 2.44164C1.92075 2.40036 1.94254 2.35909 1.96499 2.31656C2.53538 1.2689 3.43593 0.52202 4.57479 0.180646C4.95861 0.0707325 5.29559 0.0156914 5.69564 0.0147783ZM4.02748 2.77912C3.59216 3.29103 3.47571 3.7584 3.47591 4.42056C3.47583 4.46496 3.47576 4.50937 3.47569 4.55511C3.47552 4.70391 3.4758 4.85269 3.47608 5.00148C3.47605 5.10923 3.476 5.21698 3.47592 5.32472C3.47578 5.62081 3.47603 5.91689 3.47634 6.21298C3.47661 6.53227 3.47652 6.85155 3.47648 7.17084C3.47644 7.72403 3.47664 8.27723 3.47699 8.83042C3.4775 9.63024 3.47766 10.4301 3.47774 11.2299C3.47788 12.5275 3.4783 13.8252 3.47889 15.1228C3.47946 16.3834 3.4799 17.644 3.48017 18.9046C3.48019 18.9831 3.4802 19.0616 3.48022 19.1424C3.48035 19.7562 3.48047 20.37 3.48059 20.9838C3.48119 23.9928 3.48244 27.0018 3.48361 30.0108C8.42117 30.0108 13.3587 30.0108 18.4459 30.0108C18.4532 25.4115 18.4532 25.4115 18.4581 20.8122C18.4586 20.1921 18.4591 19.572 18.4597 18.952C18.4598 18.8354 18.4598 18.8354 18.4599 18.7165C18.461 17.462 18.4629 16.2076 18.4652 14.9531C18.4676 13.6656 18.469 12.3781 18.4695 11.0905C18.4698 10.2961 18.4709 9.50176 18.4729 8.70737C18.4743 8.16253 18.4747 7.6177 18.4743 7.07286C18.4742 6.75857 18.4744 6.44431 18.4758 6.13003C18.477 5.84199 18.4771 5.55398 18.4762 5.26595C18.4761 5.16204 18.4764 5.05814 18.4772 4.95424C18.4831 4.12838 18.3901 3.41538 17.8199 2.77814C17.7463 2.69486 17.7463 2.69486 17.6712 2.60989C16.9645 1.98735 16.1948 1.93622 15.2857 1.94098C15.1832 1.94083 15.0807 1.9406 14.9782 1.94029C14.7016 1.9397 14.4251 1.94029 14.1485 1.94112C13.858 1.94184 13.5674 1.94157 13.2768 1.94145C12.7889 1.9414 12.3011 1.94209 11.8132 1.94324C11.2507 1.94457 10.6882 1.94479 10.1258 1.9444C9.58274 1.94404 9.03973 1.9444 8.49672 1.9451C8.26652 1.94539 8.03632 1.94544 7.80612 1.94531C7.53454 1.94519 7.26297 1.94571 6.9914 1.94669C6.89227 1.94695 6.79315 1.94701 6.69403 1.94684C5.67408 1.9453 4.76162 1.99169 4.02748 2.77912Z" fill="white"/>
<path d="M56.4556 17.9575C56.5145 17.957 56.5736 17.9571 56.6343 17.9565C57.4558 17.9669 58.1061 18.3359 58.6909 18.8901C59.2324 19.4545 59.4145 20.147 59.4077 20.9175C59.4061 20.9869 59.4045 21.0569 59.4028 21.1284C59.402 21.2001 59.4008 21.2723 59.3999 21.3462C59.3977 21.5213 59.395 21.6965 59.3911 21.8716C59.4665 21.8701 59.5419 21.8682 59.6196 21.8667C59.7207 21.8655 59.8223 21.8649 59.9233 21.8638C59.9726 21.8627 60.022 21.8619 60.0728 21.8608C60.852 21.8545 61.4424 22.1415 62.0112 22.6655C62.2435 22.9168 62.4167 23.2019 62.5835 23.4995C62.6068 23.5398 62.6308 23.5801 62.6548 23.6216C62.7861 23.9303 62.78 24.2627 62.7817 24.5933C62.782 24.6384 62.7824 24.6835 62.7827 24.73C62.7836 24.8786 62.7833 25.0277 62.7837 25.1763C62.7839 25.2271 62.7845 25.2782 62.7847 25.3306C62.7856 25.6 62.7864 25.8697 62.7866 26.1392C62.787 26.4168 62.7887 26.6945 62.7905 26.9722C62.7917 27.1865 62.7914 27.4014 62.7915 27.6157C62.7917 27.7179 62.7926 27.8202 62.7935 27.9224C62.7945 28.0657 62.7939 28.2096 62.7935 28.353C62.7937 28.4344 62.7942 28.5163 62.7944 28.6001C62.7608 28.9221 62.6632 29.1249 62.4233 29.3413C62.1791 29.5103 62.0467 29.5165 61.7495 29.5151C61.6709 29.5149 61.5922 29.5153 61.5112 29.5151C61.4287 29.5146 61.3462 29.5137 61.2612 29.5132C61.1774 29.5129 61.0932 29.5125 61.0093 29.5122C60.8037 29.5115 60.5977 29.5106 60.3921 29.5093C60.3829 29.5579 60.3742 29.6067 60.3647 29.6567C60.2192 30.3504 59.6934 30.9132 59.1401 31.3247C58.2521 31.8763 57.3238 32.0391 56.2915 31.8472C55.3361 31.5566 54.6381 30.9185 54.1577 30.0601C54.0778 29.9015 54.0098 29.7367 53.9438 29.5718H47.6216C47.5389 29.7784 47.4557 29.9849 47.3706 30.1978C46.8525 31.0294 46.0934 31.6357 45.1265 31.8638C44.8989 31.905 44.6746 31.9095 44.4438 31.9077C44.3705 31.9072 44.3702 31.9073 44.2954 31.9067C43.3668 31.8875 42.6187 31.5536 41.9429 30.9175C41.707 30.6603 41.5304 30.3766 41.3608 30.0728C41.3382 30.033 41.3158 29.9927 41.2925 29.9517C41.2057 29.7896 41.1734 29.6967 41.1733 29.5093C41.1203 29.5106 41.0668 29.5118 41.0122 29.5132C40.8143 29.5175 40.6164 29.5206 40.4185 29.5229C40.333 29.5242 40.2471 29.5257 40.1616 29.5278C40.0383 29.5309 39.9149 29.5325 39.7915 29.5337C39.7174 29.535 39.6432 29.5362 39.5669 29.5376C39.2737 29.4978 39.0769 29.3769 38.8921 29.145C38.7321 28.8157 38.6925 28.5356 38.7007 28.1714C38.7014 28.1172 38.7019 28.0622 38.7026 28.0063C38.7305 27.0593 38.9772 26.0596 39.4829 25.2524C39.5432 25.1533 39.5436 25.1532 39.605 25.0522C39.9009 24.5751 40.2172 24.1538 40.6099 23.7495C40.6442 23.7113 40.678 23.6727 40.7134 23.6333C41.4728 22.814 42.6066 22.2639 43.6772 21.9966C43.7191 21.9854 43.7611 21.9749 43.8042 21.9634C44.1642 21.8737 44.5008 21.8563 44.8706 21.8638C44.9247 21.8643 44.9789 21.8651 45.0347 21.8657C45.1664 21.8672 45.2984 21.8692 45.4302 21.8716C45.4358 21.8287 45.4419 21.7858 45.4478 21.7417C45.5036 21.5167 45.6036 21.3309 45.7192 21.1323C45.7527 21.0744 45.7535 21.0741 45.7876 21.0151C45.9709 20.7056 46.1783 20.4368 46.4321 20.1812L46.5845 20.0249L46.7446 19.8687C46.7746 19.8344 46.8046 19.7994 46.8354 19.7642C48.1749 18.295 50.044 17.9489 51.9351 17.9565C52.0832 17.9564 52.2313 17.9569 52.3794 17.9565C52.6885 17.9562 52.9981 17.9563 53.3071 17.9575C53.7017 17.959 54.0962 17.958 54.4907 17.9565C54.7963 17.9556 55.1021 17.9559 55.4077 17.9565C55.5531 17.9567 55.6989 17.9562 55.8442 17.9556C56.0478 17.9549 56.2521 17.9561 56.4556 17.9575ZM56.1821 19.9077C55.9992 19.907 55.8162 19.9069 55.6333 19.9077C55.5023 19.9083 55.3708 19.9087 55.2397 19.9087C54.9657 19.9085 54.6915 19.9087 54.4175 19.9097C54.0621 19.9111 53.7065 19.912 53.3511 19.9116C53.0735 19.9113 52.7956 19.9112 52.5181 19.9116C52.3851 19.9119 52.2516 19.9124 52.1187 19.9126C51.9289 19.9125 51.7391 19.9127 51.5493 19.9136C51.4605 19.9141 51.4604 19.9141 51.3735 19.9146C50.779 19.9128 50.2274 19.9897 49.6772 20.2251C48.5289 20.77 47.5975 21.5281 47.1333 22.7485C47.0144 23.1007 46.9045 23.3448 46.6392 23.6108C46.1341 23.8085 46.134 23.8088 45.5767 23.7905C44.2589 23.7809 43.2185 24.1066 42.1802 24.9399C41.4349 25.6399 40.8862 26.5419 40.8022 27.5688C40.9688 27.575 41.1357 27.5817 41.3022 27.5884C41.3716 27.5912 41.439 27.5935 41.5063 27.5962C41.5749 27.5987 41.6419 27.6015 41.7085 27.604C41.7746 27.6067 41.8387 27.6092 41.9028 27.6118C42.1451 27.6212 42.3896 27.6132 42.5864 27.769L42.6802 27.8823C42.8707 28.1121 42.9458 28.2822 42.9702 28.5747C42.982 28.7425 42.9948 28.8889 43.0366 29.0522C43.2569 29.4403 43.5717 29.7864 43.9956 29.9478C44.4761 30.005 44.8387 29.9368 45.2437 29.6743C45.6143 29.3828 45.7587 29.0464 45.8228 28.5864C45.8486 28.3007 45.8794 28.1095 46.061 27.8823C46.3995 27.6256 46.6737 27.6023 47.0933 27.5981C47.2133 27.5989 47.3336 27.5996 47.4536 27.5991C47.676 27.5977 47.8983 27.5964 48.1206 27.5972C48.3571 27.598 48.5941 27.5985 48.8306 27.5981C49.227 27.5975 49.6236 27.597 50.02 27.5981C50.4809 27.5995 50.9419 27.6005 51.4028 27.5991C51.8021 27.5979 52.2018 27.5967 52.6011 27.5972C52.8387 27.5976 53.0763 27.5988 53.314 27.5981C53.5407 27.5973 53.7679 27.597 53.9946 27.5981C54.0783 27.5987 54.1619 27.5988 54.2456 27.5991C54.7376 27.5959 55.1108 27.5791 55.5142 27.8823C55.676 28.0724 55.7541 28.2897 55.7827 28.5366C55.8118 29.0209 55.9378 29.3174 56.2935 29.6548L56.4536 29.7603C56.6176 29.8696 56.6178 29.8697 56.8286 29.9478C57.4192 29.9952 57.8109 29.8911 58.269 29.5093C58.5048 29.2242 58.5933 28.957 58.6167 28.5903C58.6329 28.2858 58.6849 28.1152 58.895 27.8823C59.1969 27.6097 59.4602 27.599 59.8599 27.5874C59.9335 27.5865 60.0052 27.5854 60.0767 27.5845C60.2837 27.5792 60.4907 27.5742 60.6978 27.5708C60.7445 27.5702 60.7901 27.5694 60.8354 27.5688C60.8394 27.2126 60.8432 26.8558 60.8452 26.4995C60.846 26.354 60.8462 26.2085 60.8472 26.063C60.8496 25.8487 60.852 25.6338 60.853 25.4194C60.8533 25.35 60.8537 25.2827 60.854 25.2153C60.8604 24.7894 60.8747 24.434 60.6479 24.063C60.413 23.8536 60.2296 23.7846 59.9146 23.7798C59.8699 23.7803 59.8261 23.7803 59.7827 23.7808C59.6402 23.7789 59.4975 23.7781 59.355 23.7778C59.2083 23.7779 59.0612 23.7775 58.9146 23.7769C58.8206 23.7757 58.7262 23.774 58.6323 23.7729C58.3017 23.7759 58.0498 23.7509 57.7681 23.562C57.5337 23.3018 57.4878 23.0945 57.481 22.7573C57.4811 22.6756 57.4818 22.6755 57.4819 22.5952C57.4792 22.4208 57.4761 22.2462 57.4751 22.0718C57.4743 21.8914 57.4724 21.7111 57.4702 21.5308C57.4687 21.4162 57.4678 21.3015 57.4663 21.187C57.466 21.1314 57.4656 21.0769 57.4653 21.0229C57.4649 20.9713 57.4648 20.9208 57.4644 20.8706C57.4627 20.5446 57.3639 20.3595 57.1421 20.1196C56.8714 19.947 56.6575 19.9095 56.3452 19.9067C56.2898 19.9072 56.2359 19.9072 56.1821 19.9077Z" fill="white"/>
<path d="M34.9072 1.02441C35.7956 1.02441 36.6839 1.02441 37.5992 1.02441C37.5992 2.34661 37.5992 3.6688 37.5992 5.03106C38.5664 5.02613 38.5664 5.02613 39.5337 5.01978C40.4363 5.01575 41.3075 5.04386 42.181 5.29712C42.2282 5.3107 42.2754 5.32428 42.3241 5.33827C43.2493 5.61575 44.0374 6.13266 44.5482 6.97178C44.8799 7.68112 45.0057 8.33094 45.0007 9.10839C45.0007 9.18236 45.0007 9.25632 45.0007 9.33253C45.0006 9.5754 44.9997 9.81826 44.9987 10.0611C44.9984 10.2302 44.9983 10.3992 44.9981 10.5682C44.9977 10.9666 44.9967 11.365 44.9955 11.7634C44.9941 12.2173 44.9934 12.6712 44.9927 13.1251C44.9914 14.0581 44.9892 14.9911 44.9864 15.9241C44.6131 15.9257 44.2398 15.9268 43.8665 15.9276C43.7394 15.9279 43.6123 15.9283 43.4852 15.9288C43.3029 15.9296 43.1206 15.93 42.9384 15.9302C42.8526 15.9307 42.8526 15.9307 42.7651 15.9312C42.629 15.9312 42.493 15.928 42.3571 15.9241C42.2587 15.8258 42.2861 15.7283 42.2854 15.5916C42.285 15.5333 42.2846 15.4751 42.2841 15.415C42.2839 15.3506 42.2838 15.2861 42.2836 15.2197C42.2832 15.1522 42.2828 15.0847 42.2823 15.0152C42.2815 14.868 42.2807 14.7208 42.2801 14.5736C42.2791 14.3404 42.2776 14.1073 42.276 13.8741C42.2716 13.211 42.2678 12.5478 42.2646 11.8846C42.2626 11.4795 42.26 11.0743 42.2571 10.6691C42.2561 10.5148 42.2553 10.3604 42.2548 10.2061C42.254 9.98954 42.2525 9.77303 42.2508 9.55651C42.2508 9.49307 42.2508 9.42963 42.2507 9.36426C42.246 8.89561 42.2042 8.4314 41.9854 8.00865C41.9654 7.9687 41.9455 7.92876 41.925 7.8876C41.8523 7.7658 41.8523 7.7658 41.6684 7.66042C41.6684 7.6191 41.6684 7.57778 41.6684 7.53521C41.5864 7.50612 41.5042 7.47754 41.4219 7.44913C41.3762 7.43315 41.3304 7.41717 41.2833 7.40071C40.0239 7.0241 39.1206 7.19196 37.5992 7.15959C37.5992 10.0312 37.5992 12.9029 37.5992 15.8615C36.7108 15.8615 35.8225 15.8615 34.9072 15.8615C34.9072 10.9653 34.9072 6.06903 34.9072 1.02441Z" fill="white"/>
<path d="M81.7851 5.02032C81.8946 5.02055 82.0042 5.02073 82.1137 5.02085C82.3987 5.02133 82.6837 5.02255 82.9686 5.02395C83.2608 5.02524 83.5529 5.0258 83.845 5.02643C84.4158 5.02776 84.9865 5.02996 85.5572 5.03255C85.5572 5.67298 85.5572 6.31342 85.5572 6.97326C85.2781 6.97633 84.9991 6.9794 84.7116 6.98256C84.533 6.98478 84.3544 6.98703 84.1758 6.9894C83.8934 6.99315 83.6109 6.99679 83.3285 6.99967C83.1004 7.00201 82.8722 7.00492 82.6441 7.0082C82.5578 7.00935 82.4715 7.0103 82.3852 7.01103C81.4026 7.01973 80.4353 7.05507 79.6541 7.72182C79.5425 7.8425 79.4496 7.96284 79.3594 8.10013C79.334 8.1379 79.3086 8.17567 79.2824 8.21458C79.053 8.60875 79.0583 8.93077 78.9838 9.41481C81.153 9.41481 83.3223 9.41481 85.5572 9.41481C85.5572 10.0552 85.5572 10.6957 85.5572 11.3555C83.388 11.3555 81.2188 11.3555 78.9838 11.3555C79.1299 12.2318 79.2615 12.7716 79.9229 13.3589C80.6248 13.8568 81.5341 13.8163 82.3598 13.823C82.4526 13.8242 82.5455 13.8254 82.6384 13.8267C82.8799 13.8299 83.1215 13.8324 83.363 13.8347C83.6544 13.8377 83.9458 13.8415 84.2371 13.8452C84.6772 13.8507 85.1172 13.8551 85.5572 13.8597C85.5572 14.5414 85.5572 15.2232 85.5572 15.9256C84.4725 15.9306 84.4725 15.9306 84.0039 15.9317C83.6863 15.9325 83.3687 15.9333 83.0511 15.9351C82.7946 15.9364 82.538 15.9372 82.2815 15.9375C82.1844 15.9377 82.0874 15.9382 81.9904 15.9388C80.3519 15.9499 78.785 15.7156 77.5674 14.5288C77.2935 14.2536 77.2935 14.2536 77.2935 14.1101C77.2522 14.1101 77.2109 14.1101 77.1683 14.1101C76.1903 12.3991 75.9021 10.5316 76.3544 8.60096C76.3712 8.52527 76.3879 8.44957 76.4051 8.37158C76.6893 7.23227 77.4075 6.29341 78.3891 5.65467C79.4421 5.04768 80.6046 5.01278 81.7851 5.02032Z" fill="white"/>
<path d="M101.65 5.15723C104.852 5.15723 108.054 5.15723 111.353 5.15723C111.353 7.68349 111.353 7.68349 110.572 8.53463C110.512 8.58816 110.453 8.64168 110.391 8.69683C110.322 8.7597 110.253 8.82264 110.184 8.88564C110.149 8.91714 110.114 8.94864 110.079 8.9811C109.897 9.14736 109.723 9.32053 109.547 9.49298C109.216 9.8167 108.88 10.1341 108.541 10.4495C108.154 10.8091 107.775 11.1754 107.396 11.5424C106.933 11.9899 106.47 12.4365 106.001 12.8777C105.969 12.9087 105.936 12.9397 105.902 12.9716C105.748 13.1165 105.594 13.2611 105.439 13.4054C105.359 13.4805 105.359 13.4805 105.278 13.557C105.231 13.6005 105.185 13.644 105.137 13.6889C105.025 13.7906 105.025 13.7906 104.968 13.9218C107.075 13.9218 109.182 13.9218 111.353 13.9218C111.353 14.5829 111.353 15.244 111.353 15.9251C108.151 15.9251 104.949 15.9251 101.65 15.9251C101.65 15.1607 101.65 14.3963 101.65 13.6087C101.794 13.4848 101.939 13.3608 102.088 13.2331C102.129 13.1815 102.171 13.1298 102.213 13.0766C102.352 12.903 102.505 12.7732 102.677 12.634C102.792 12.5378 102.792 12.5378 102.902 12.3567C102.943 12.3567 102.984 12.3567 103.027 12.3567C103.027 12.3153 103.027 12.274 103.027 12.2315C103.068 12.2315 103.11 12.2315 103.152 12.2315C103.183 12.1385 103.183 12.1385 103.215 12.0436C103.256 12.0436 103.297 12.0436 103.34 12.0436C103.357 12.0036 103.374 11.9636 103.391 11.9224C103.465 11.7932 103.465 11.7932 103.653 11.7306C103.67 11.6961 103.687 11.6615 103.704 11.626C103.814 11.4093 103.982 11.2585 104.154 11.0889C104.188 11.0542 104.222 11.0195 104.257 10.9838C104.514 10.729 104.514 10.729 104.655 10.729C104.669 10.6945 104.683 10.6601 104.697 10.6246C104.804 10.4361 104.946 10.2961 105.099 10.1455C105.132 10.1126 105.164 10.0797 105.198 10.0458C105.305 9.93966 105.411 9.83396 105.518 9.72828C105.584 9.66268 105.649 9.59705 105.715 9.53139C105.959 9.28855 106.203 9.04626 106.447 8.8039C106.992 8.26159 107.536 7.71929 108.098 7.16055C105.97 7.13989 103.842 7.11923 101.65 7.09794C101.65 6.45751 101.65 5.81707 101.65 5.15723Z" fill="white"/>
<path d="M14.3196 3.18408C15.1066 3.18899 15.8503 3.38848 16.425 3.94775C16.9556 4.5364 17.0864 5.13802 17.0833 5.91162C17.0836 6.01298 17.0839 6.01321 17.0842 6.1167V7.24951C17.0844 7.57452 17.0838 7.90009 17.0833 8.2251C17.0825 8.64099 17.0835 9.05725 17.0842 9.47314V10.894C17.0845 11.1085 17.0839 11.3232 17.0833 11.5376C17.0835 11.6006 17.084 11.6641 17.0842 11.729C17.08 12.4292 16.899 13.0828 16.4426 13.6313C15.9671 14.0878 15.3254 14.3656 14.6653 14.3687C14.5971 14.3691 14.5285 14.3692 14.4583 14.3696C14.3463 14.3699 14.3459 14.3703 14.2317 14.3706C14.1531 14.371 14.0744 14.3712 13.9934 14.3716C13.7321 14.3729 13.4705 14.3729 13.2092 14.3735C13.1191 14.3738 13.0289 14.3743 12.9387 14.3745C12.5146 14.3757 12.0904 14.3769 11.6663 14.3774C11.1781 14.3781 10.6896 14.3798 10.2014 14.3823C9.8233 14.3842 9.44477 14.385 9.06665 14.3853C8.84138 14.3854 8.61613 14.3856 8.39087 14.3872C8.13871 14.389 7.8862 14.3886 7.63403 14.3882C7.56056 14.389 7.48708 14.3903 7.41138 14.3911C6.70372 14.3867 6.07455 14.2217 5.5481 13.7329C5.51035 13.6985 5.47272 13.6639 5.43384 13.6284C4.62742 12.8062 4.67988 11.8089 4.68872 10.7329C4.68879 10.576 4.68891 10.4191 4.68872 10.2622C4.68873 9.89255 4.69003 9.52248 4.69263 9.15283C4.6951 8.77587 4.69534 8.39894 4.69458 8.02197C4.69416 7.69818 4.69433 7.37409 4.69556 7.05029C4.69604 6.89587 4.69673 6.74084 4.69653 6.58643C4.69649 6.37037 4.69744 6.15403 4.69946 5.93799C4.69915 5.87523 4.69881 5.81222 4.69849 5.74756C4.70961 5.002 4.97481 4.4253 5.4895 3.896C5.94705 3.46316 6.43847 3.20944 7.07349 3.20654C7.17575 3.20587 7.17619 3.20528 7.28052 3.20459C7.39193 3.20434 7.3922 3.20485 7.5061 3.20459C7.62399 3.20397 7.62408 3.20424 7.74438 3.20361C8.00536 3.2023 8.26661 3.20131 8.52759 3.20068C8.61767 3.20043 8.70801 3.19997 8.7981 3.19971C9.22189 3.19851 9.64578 3.19828 10.0696 3.19775C10.5572 3.19714 11.0449 3.19541 11.5325 3.19287C11.9103 3.19098 12.2884 3.19015 12.6663 3.18994C12.8912 3.18979 13.1161 3.18859 13.3411 3.18701C13.5931 3.18527 13.8459 3.1856 14.0979 3.18604C14.1711 3.18524 14.2442 3.18491 14.3196 3.18408ZM7.76782 5.11475C7.42196 5.11059 7.14722 5.09278 6.84497 5.27295C6.7095 5.50438 6.69302 5.65971 6.6897 5.92432C6.69055 5.9864 6.6918 6.04667 6.69263 6.10693C6.69152 6.31152 6.69027 6.5166 6.69165 6.72119C6.69276 6.86735 6.6935 7.01351 6.6936 7.15967C6.69338 7.46455 6.69394 7.76983 6.69556 8.07471C6.69809 8.47161 6.69983 8.8692 6.69946 9.26611C6.6991 9.5756 6.6996 9.88534 6.70044 10.1948C6.70096 10.3423 6.70097 10.4897 6.70142 10.6372C6.70134 10.8497 6.70191 11.0625 6.70337 11.2749C6.70418 11.3732 6.70355 11.3738 6.70435 11.4702C6.70416 11.5326 6.70453 11.5932 6.70435 11.6538C6.70508 11.7112 6.70559 11.767 6.7063 11.8228C6.70715 11.9979 6.72253 12.0883 6.80591 12.2437C6.91817 12.3533 6.91892 12.3533 7.06372 12.3843C7.12249 12.3841 7.17953 12.3834 7.23657 12.3833C7.33731 12.384 7.33802 12.3846 7.43677 12.3853C7.51108 12.3844 7.58339 12.3831 7.65552 12.3823C7.89769 12.3828 8.13991 12.3831 8.38208 12.3813C8.59938 12.3798 8.81712 12.3795 9.03442 12.3794C9.39804 12.3792 9.76164 12.3783 10.1252 12.3765C10.5959 12.3739 11.0667 12.3722 11.5374 12.3716C11.9449 12.3711 12.3525 12.3698 12.76 12.3687C12.8468 12.3684 12.934 12.3679 13.0208 12.3677C13.2727 12.3671 13.5247 12.367 13.7766 12.3657C13.8549 12.3653 13.9311 12.3642 14.0071 12.3638C14.0813 12.3636 14.1538 12.3639 14.2258 12.3638C14.2937 12.3633 14.3602 12.3623 14.426 12.3618C14.621 12.3609 14.7451 12.3528 14.9319 12.2905L14.9944 12.103H15.1194C15.1207 11.3272 15.1216 10.5507 15.1223 9.7749C15.1226 9.37972 15.1236 8.98454 15.1243 8.58936C15.125 8.202 15.125 7.81461 15.1252 7.42725C15.1253 7.28024 15.1261 7.13284 15.1262 6.98584C15.1267 6.77345 15.1272 6.56053 15.1272 6.34814V5.80127C15.1274 5.62061 15.1152 5.51631 15.0569 5.34131C14.7358 5.1525 14.4556 5.13056 14.0872 5.12646C14.0164 5.12665 13.9478 5.12726 13.8792 5.12744C13.646 5.12576 13.4121 5.12462 13.179 5.12451C13.0124 5.12456 12.8455 5.12404 12.679 5.12354C12.2865 5.12232 11.8937 5.12216 11.5012 5.12256C11.0941 5.12299 10.6867 5.12194 10.2795 5.11963C9.92671 5.11762 9.57378 5.1167 9.22095 5.1167C9.05265 5.11682 8.88436 5.11696 8.71606 5.1167C8.47392 5.11508 8.23165 5.11303 7.9895 5.11377C7.91413 5.11413 7.84098 5.1144 7.76782 5.11475Z" fill="white"/>
<path d="M29.5026 5.02099C29.6138 5.02122 29.725 5.0214 29.8362 5.02152C30.1265 5.022 30.4167 5.02322 30.7069 5.02462C31.0041 5.02591 31.3012 5.02647 31.5984 5.0271C32.1796 5.02844 32.7608 5.03064 33.342 5.03321C33.342 5.67365 33.342 6.31409 33.342 6.97393C33.0441 6.97627 32.7463 6.97861 32.4394 6.98102C32.2491 6.98292 32.0588 6.98487 31.8685 6.98702C31.5674 6.9904 31.2663 6.9936 30.9651 6.99562C30.722 6.99727 30.4788 6.99981 30.2357 7.00293C30.1436 7.00396 30.0515 7.00469 29.9594 7.00509C29.1767 7.00878 28.467 7.08824 27.7717 7.46938C27.645 7.53737 27.645 7.53737 27.4572 7.59997C27.4132 7.68223 27.3719 7.766 27.332 7.85039C27.2933 7.89429 27.2545 7.93819 27.2146 7.98342C26.5512 8.88102 26.5941 10.3414 26.7417 11.4012C26.7811 11.6395 26.8347 11.8732 26.8938 12.1074C26.9059 12.1617 26.918 12.2159 26.9305 12.2718C27.0594 12.7539 27.3875 13.1316 27.7624 13.4495C28.4932 13.8149 29.2666 13.8084 30.0651 13.8176C30.1598 13.8188 30.2545 13.8202 30.3492 13.8215C30.5971 13.8249 30.8449 13.828 31.0927 13.8311C31.3909 13.8348 31.689 13.8389 31.9872 13.843C32.4388 13.8491 32.8904 13.8547 33.342 13.8604C33.342 14.5421 33.342 15.2239 33.342 15.9263C32.1777 15.9288 32.1777 15.9288 31.6821 15.9293C31.3437 15.9297 31.0053 15.9302 30.6669 15.931C30.3941 15.9317 30.1214 15.9321 29.8486 15.9322C29.7444 15.9323 29.6403 15.9326 29.5361 15.9329C29.3904 15.9333 29.2447 15.9334 29.099 15.9334C29.0558 15.9336 29.0126 15.9338 28.968 15.9341C28.7802 15.9337 28.6387 15.9236 28.4589 15.8637C28.309 15.8486 28.159 15.8344 28.0089 15.8206C26.7966 15.6847 25.8055 15.0903 25.0157 14.1734C23.9865 12.8726 23.8176 10.9794 23.9661 9.38289C24.1101 8.2523 24.5179 7.21913 25.2661 6.34789C25.3074 6.34789 25.3487 6.34789 25.3913 6.34789C25.412 6.28592 25.4326 6.22394 25.4539 6.16008C25.5773 6.06034 25.6983 5.97058 25.8295 5.88228C25.8666 5.85717 25.9036 5.83206 25.9418 5.80619C26.4584 5.46268 26.9746 5.28257 27.5824 5.15842C27.6301 5.14809 27.6778 5.13776 27.7269 5.12712C28.3197 5.01208 28.9017 5.01724 29.5026 5.02099Z" fill="white"/>
<path d="M56.7551 5.0957C62.211 5.0957 62.211 5.0957 63.3911 6.15997C64.172 7.01518 64.2988 8.04384 64.2793 9.15321C64.2754 9.46698 64.2716 9.78074 64.2676 10.104C63.4206 10.104 62.5735 10.104 61.7008 10.104C61.6891 9.20017 61.6891 9.20017 61.6878 8.91859C61.6764 8.43385 61.64 8.04716 61.3252 7.66246C60.6834 7.141 60.1552 7.26496 59.2593 7.22423C59.2593 10.0959 59.2593 12.9675 59.2593 15.9262C58.4329 15.9262 57.6065 15.9262 56.7551 15.9262C56.7551 12.3521 56.7551 8.77806 56.7551 5.0957Z" fill="white"/>
<path d="M12.2034 15.7544C12.3184 15.7763 12.3184 15.7763 12.4357 15.7987C12.6608 16.1363 12.5548 16.5314 12.4991 16.917C12.4926 16.9634 12.4862 17.0098 12.4795 17.0577C12.4657 17.1568 12.4518 17.2559 12.4378 17.3549C12.4012 17.6146 12.3656 17.8743 12.3301 18.1341C12.323 18.1858 12.3159 18.2375 12.3086 18.2908C12.2457 18.7521 12.1881 19.2138 12.1344 19.6762C12.1228 19.7743 12.1228 19.7743 12.111 19.8745C12.0191 20.4272 12.0191 20.4272 12.1853 20.9322C12.3426 20.9518 12.4853 20.9598 12.6428 20.9598C12.6881 20.9606 12.7333 20.9615 12.7799 20.9623C12.9247 20.9649 13.0695 20.9662 13.2143 20.9674C13.359 20.9689 13.5035 20.9706 13.6481 20.9731C13.7381 20.9747 13.8282 20.9756 13.9182 20.9759C14.1471 20.9794 14.2431 20.9894 14.439 21.12C14.4695 21.3625 14.4669 21.5084 14.3466 21.7235C14.3022 21.7774 14.2578 21.8313 14.2121 21.8869C14.1597 21.9524 14.1075 22.018 14.0553 22.0837C14.0265 22.1195 13.9977 22.1553 13.968 22.1922C13.7939 22.4131 13.6304 22.6418 13.4648 22.869C13.1462 23.3032 12.822 23.7327 12.4944 24.1602C12.1528 24.6061 11.8195 25.0567 11.4929 25.5137C11.1848 25.9429 10.8641 26.362 10.5424 26.7811C10.2459 27.1682 9.95994 27.561 9.68212 27.9616C9.56523 28.1191 9.45552 28.2557 9.30552 28.382C9.10989 28.3781 9.10989 28.3781 8.9299 28.3194C8.61004 27.8396 8.84962 27.0731 8.92208 26.5274C8.93312 26.4422 8.94412 26.357 8.95509 26.2718C8.97705 26.1015 8.99924 25.9313 9.02157 25.761C9.04469 25.5839 9.06707 25.4068 9.08889 25.2295C9.09438 25.1849 9.09988 25.1403 9.10555 25.0943C9.12068 24.9709 9.13571 24.8476 9.15073 24.7242C9.18663 24.4529 9.23244 24.1841 9.28254 23.9151C9.32504 23.6086 9.32896 23.3966 9.18032 23.1233C9.08458 23.1243 9.08458 23.1243 8.98691 23.1253C8.75054 23.1276 8.51417 23.129 8.27779 23.1302C8.1754 23.1308 8.07302 23.1317 7.97064 23.1327C7.82363 23.1343 7.67664 23.135 7.52963 23.1355C7.46076 23.1365 7.46076 23.1365 7.3905 23.1375C7.2775 23.1375 7.16453 23.1309 7.05179 23.1233C6.92658 22.9981 6.92658 22.9981 6.88745 22.8142C6.89839 22.4368 7.20517 22.153 7.42741 21.8712C7.50876 21.7594 7.58963 21.6473 7.67 21.5347C7.8507 21.2858 8.03665 21.0418 8.22561 20.7991C8.46503 20.4913 8.69149 20.1762 8.91425 19.8562C9.21206 19.4291 9.52519 19.017 9.84689 18.6077C10.1105 18.2715 10.3673 17.931 10.6202 17.5868C10.6561 17.5383 10.6919 17.4899 10.7289 17.44C10.9212 17.1794 11.1084 16.9164 11.2907 16.6487C11.3292 16.5935 11.3676 16.5384 11.4072 16.4815C11.4808 16.3757 11.5531 16.2689 11.6238 16.1611C11.9007 15.7671 11.9007 15.7671 12.2034 15.7544Z" fill="white"/>
<path d="M71.2844 5.14844C71.6208 5.14891 71.9579 5.14997 72.2942 5.15137C72.6386 5.15266 72.983 5.15367 73.3274 5.1543C74.0008 5.15563 74.6745 5.15751 75.3479 5.16016C75.3508 6.55924 75.3534 7.95833 75.3547 9.35742C75.3554 10.0071 75.3562 10.6569 75.3577 11.3066C75.3589 11.873 75.3593 12.4395 75.3596 13.0059C75.3598 13.3056 75.3607 13.6056 75.3616 13.9053C75.3624 14.1878 75.3627 14.4704 75.3625 14.7529C75.3626 14.856 75.363 14.9594 75.3635 15.0625C75.3688 16.2564 75.2318 17.3335 74.3684 18.2256C73.5805 18.9579 72.4458 19.1321 71.4104 19.1279C71.3505 19.1279 71.2905 19.1279 71.2288 19.1279C71.0323 19.1279 70.8354 19.1274 70.6389 19.127C70.5022 19.1268 70.3655 19.127 70.2288 19.127C69.8698 19.1267 69.5106 19.1257 69.1516 19.125C68.7851 19.1244 68.4185 19.1243 68.052 19.124C67.3332 19.1234 66.6136 19.1224 65.8948 19.1211V16.9922C66.1701 16.9913 66.1705 16.9911 66.4514 16.9902C67.0582 16.9881 67.665 16.9846 68.2717 16.9805C68.6397 16.978 69.0083 16.9766 69.3762 16.9756C69.7313 16.9746 70.0865 16.9717 70.4417 16.9688C70.577 16.9678 70.7125 16.9678 70.8479 16.9678C71.0377 16.9676 71.2274 16.9659 71.4172 16.9639C71.473 16.9642 71.5288 16.9645 71.5862 16.9648C71.9514 16.9588 72.1713 16.8948 72.469 16.6787C72.6037 16.4316 72.6673 16.2018 72.719 15.9277C72.6772 15.928 72.6351 15.9284 72.592 15.9287C72.1523 15.9315 71.7125 15.9332 71.2727 15.9346C71.1091 15.9352 70.9451 15.9364 70.7815 15.9375C69.197 15.9478 67.5121 15.9542 66.2708 14.8008V14.6758L66.0833 14.6133C65.9732 14.4692 65.8723 14.3264 65.7737 14.1748C65.7469 14.1352 65.7202 14.0955 65.6926 14.0547C64.7369 12.6073 64.6852 10.6344 65.0188 8.97852C65.2837 7.75044 65.8075 6.6187 66.8967 5.91113C68.1613 5.20088 69.4817 5.13982 70.8977 5.14746C71.0266 5.14769 71.1555 5.14831 71.2844 5.14844ZM72.7834 7.03613C71.1706 7.03609 69.1027 6.63341 68.0012 8.0918C67.4032 9.03075 67.3276 10.667 67.5549 11.749C67.566 11.7855 67.5764 11.821 67.5872 11.8564C67.7068 12.3391 67.8536 12.6839 68.2043 13.0391C69.0233 13.7978 69.0237 13.7979 72.7834 13.7979V7.03613Z" fill="white"/>
<path d="M96.9438 5.11719C98.1097 5.10358 98.958 5.13865 99.8657 5.94238C100.655 6.74929 100.84 7.88854 100.836 8.97461V9.81738C100.836 10.0321 100.836 10.2472 100.835 10.4619C100.835 10.8683 100.835 11.2752 100.834 11.6816C100.834 12.1444 100.833 12.6076 100.833 13.0703C100.832 14.0218 100.831 14.9733 100.83 15.9248C99.9279 15.9292 99.0262 15.9325 98.1245 15.9346C97.7057 15.9355 97.2865 15.9373 96.8677 15.9395C96.4626 15.9415 96.057 15.9419 95.6519 15.9424C95.4983 15.9427 95.3444 15.9443 95.1909 15.9453C92.3278 15.9636 92.3277 15.9629 91.2485 15.0459C90.543 14.3389 90.3002 13.4385 90.2964 12.4658C90.2978 11.5918 90.5417 10.7922 91.146 10.1377C92.0672 9.28523 93.1918 9.2067 94.3765 9.21387C94.4904 9.2141 94.6043 9.21472 94.7183 9.21484C95.0169 9.21532 95.3161 9.21638 95.6147 9.21777C95.9203 9.21906 96.2262 9.22007 96.5317 9.2207C97.1297 9.22204 97.7278 9.22392 98.3257 9.22656C98.3096 9.04909 98.2926 8.87165 98.2749 8.69434C98.2705 8.64479 98.2658 8.595 98.2612 8.54395C98.2233 8.17358 98.177 7.74475 97.8862 7.48535C97.0431 7.10158 96.1401 7.14006 95.2329 7.13477C95.1051 7.13359 94.977 7.13213 94.8491 7.13086C94.5151 7.12767 94.1812 7.12538 93.8472 7.12305C93.5052 7.12053 93.1628 7.11739 92.8208 7.11426C92.1516 7.10823 91.4822 7.10253 90.813 7.09766V5.15723C91.7937 5.14872 92.7747 5.14174 93.7554 5.1377C94.2107 5.13577 94.6662 5.13322 95.1216 5.12891C95.5189 5.12514 95.9166 5.1229 96.314 5.12207C96.5239 5.12158 96.7339 5.11974 96.9438 5.11719ZM95.0435 11.2139C94.3234 11.206 93.7261 11.1934 93.187 11.7324C93.0248 11.9927 92.9778 12.1919 92.98 12.4912C92.9813 12.5366 92.9826 12.581 92.9839 12.625C92.9869 13.0356 93.0391 13.2512 93.3149 13.5586C93.7501 13.9668 93.7507 13.9666 94.9185 13.9502C95.0111 13.9488 95.1041 13.9477 95.1968 13.9473C95.4409 13.9466 95.6851 13.9451 95.9292 13.9424C96.232 13.939 96.5356 13.937 96.8384 13.9355C97.2833 13.9334 97.2838 13.9339 98.3208 13.9238V11.2314C97.8692 11.2282 97.4169 11.2245 96.9653 11.2227C96.6675 11.2216 96.3696 11.221 96.0718 11.2188C95.824 11.2167 95.5755 11.2146 95.3276 11.2139C95.233 11.2137 95.1381 11.2142 95.0435 11.2139Z" fill="white"/>
<path d="M52.7725 5.07129C53.7479 5.07547 54.6107 5.40218 55.3184 6.07812C56.2564 7.09247 56.1665 8.48921 56.1582 9.77539C56.157 9.99207 56.1574 10.2091 56.1572 10.4258C56.1566 10.8346 56.1552 11.2435 56.1533 11.6523C56.1512 12.1187 56.1504 12.5854 56.1494 13.0518C56.1475 14.0094 56.1438 14.9671 56.1396 15.9248C55.2726 15.9292 54.4051 15.9325 53.5381 15.9346C53.1355 15.9355 52.7326 15.9373 52.3301 15.9395C51.9405 15.9415 51.5507 15.9429 51.1611 15.9434C51.0137 15.9437 50.8662 15.9443 50.7188 15.9453C47.5809 15.9662 47.5802 15.9663 46.4512 14.9004C45.7928 14.207 45.6734 13.4462 45.6729 12.5205C45.6721 12.4519 45.6717 12.3832 45.6709 12.3125C45.6693 11.4279 45.9236 10.7662 46.5361 10.1191C46.8954 9.77976 47.2811 9.5588 47.751 9.41406C47.7996 9.39813 47.8484 9.38263 47.8984 9.36621C48.4979 9.19125 49.0801 9.20237 49.6982 9.20801C49.8122 9.20836 49.9261 9.2088 50.04 9.20898C50.3377 9.2097 50.636 9.21178 50.9336 9.21387C51.2382 9.2158 51.5431 9.21683 51.8477 9.21777C52.4436 9.21978 53.0398 9.2226 53.6357 9.22656C53.6277 9.06706 53.6192 8.9075 53.6104 8.74805C53.6082 8.70331 53.6058 8.6584 53.6035 8.6123C53.5825 8.24613 53.541 7.90455 53.3223 7.59863C52.8408 7.19974 52.2387 7.14209 51.6377 7.14062C51.5484 7.13969 51.5481 7.13963 51.457 7.13867C51.2606 7.13675 51.0636 7.13583 50.8672 7.13477C50.7305 7.13359 50.5937 7.13213 50.457 7.13086C50.0981 7.12765 49.7388 7.12538 49.3799 7.12305C49.0131 7.12054 48.6461 7.1174 48.2793 7.11426C47.5605 7.10821 46.8418 7.10252 46.123 7.09766V5.09473C47.0487 5.09048 47.9747 5.08699 48.9004 5.08496C49.3301 5.084 49.7598 5.08223 50.1895 5.08008C50.6047 5.078 51.0203 5.07763 51.4355 5.07715C51.5936 5.0768 51.7521 5.07621 51.9102 5.0752C52.1322 5.07383 52.3542 5.07316 52.5762 5.07324C52.6731 5.07223 52.6736 5.07232 52.7725 5.07129ZM50.6318 11.2129C49.9147 11.2044 49.1254 11.1638 48.5625 11.6699C48.327 11.9548 48.2936 12.2554 48.2852 12.6172C48.2857 13.0297 48.3738 13.2965 48.668 13.5908C49.1472 13.952 49.641 13.9494 50.2178 13.9434C50.311 13.9423 50.4048 13.9418 50.498 13.9414C50.7431 13.9409 50.9883 13.9395 51.2334 13.9375C51.5371 13.9349 51.8408 13.9337 52.1445 13.9326C52.591 13.931 52.5915 13.9314 53.6338 13.9238V11.2314C53.1797 11.2279 52.7256 11.2246 52.2715 11.2227C52.0391 11.2217 51.8066 11.2207 51.5742 11.2188C51.3475 11.2167 51.1203 11.2146 50.8936 11.2139C50.8063 11.2137 50.7191 11.2132 50.6318 11.2129Z" fill="white"/>
<path d="M87.9975 13.0273C88.073 13.0277 88.1485 13.0282 88.2263 13.0287C88.3215 13.0304 88.4167 13.0321 88.5147 13.0339C88.8182 13.0377 89.1216 13.0416 89.4342 13.0456C89.4342 13.9753 89.4342 14.9049 89.4342 15.8628C88.5459 15.8628 87.6575 15.8628 86.7423 15.8628C86.7384 15.5503 86.7345 15.2378 86.7305 14.9159C86.7288 14.818 86.7271 14.7201 86.7253 14.6192C86.7249 14.5414 86.7244 14.4635 86.7239 14.3833C86.7229 14.3039 86.722 14.2246 86.7209 14.1429C86.7598 13.7401 86.9454 13.4957 87.2431 13.2334C87.5002 13.0454 87.6815 13.0232 87.9975 13.0273Z" fill="white"/>
<path d="M110.346 8.59961C110.251 8.84015 110.11 8.94518 109.908 9.10044C109.802 9.20348 109.698 9.30781 109.595 9.41346C109.523 9.48125 109.523 9.48125 109.45 9.5504C109.33 9.65331 109.33 9.65331 109.344 9.78908C109.303 9.78908 109.262 9.78908 109.219 9.78908C109.188 9.88205 109.188 9.88205 109.156 9.97689C109.106 9.99626 109.056 10.0156 109.004 10.0356C108.836 10.0846 108.836 10.0846 108.785 10.2195C108.687 10.414 108.521 10.4839 108.343 10.6029C108.267 10.7281 108.267 10.7281 108.217 10.8533C108.09 11.0027 108.034 11.0397 107.842 11.1038C107.824 11.1412 107.806 11.1787 107.787 11.2172C107.693 11.3991 107.565 11.4805 107.403 11.6046C107.354 11.6537 107.305 11.7027 107.255 11.7533C107.13 11.8781 107.007 11.9893 106.871 12.1015C106.667 12.2742 106.506 12.4599 106.339 12.6689C106.213 12.8008 106.08 12.9196 105.94 13.0367C105.642 13.2911 105.416 13.5183 105.212 13.8583C107.237 13.8583 109.262 13.8583 111.348 13.8583C111.348 13.879 111.348 13.8996 111.348 13.9209C109.24 13.9209 107.133 13.9209 104.962 13.9209C105.068 13.7091 105.133 13.6084 105.293 13.4479C105.336 13.4049 105.379 13.3619 105.422 13.3176C105.492 13.2478 105.492 13.2478 105.564 13.1766C105.613 13.1271 105.662 13.0776 105.713 13.0266C105.876 12.863 106.039 12.6999 106.202 12.5368C106.315 12.4235 106.428 12.3101 106.541 12.1968C106.778 11.9594 107.015 11.7221 107.253 11.4851C107.527 11.2109 107.801 10.9361 108.075 10.6611C108.338 10.3965 108.602 10.1325 108.866 9.86865C108.979 9.75627 109.091 9.64374 109.203 9.53107C109.359 9.37397 109.516 9.21748 109.673 9.06113C109.743 8.99059 109.743 8.99059 109.814 8.91863C109.857 8.87633 109.9 8.83402 109.944 8.79044C109.981 8.75337 110.018 8.7163 110.056 8.6781C110.158 8.59961 110.158 8.59961 110.346 8.59961Z" fill="white"/>
<path d="M101.65 5.15723C101.836 5.18822 101.836 5.18822 102.025 5.21983C102.015 5.2533 102.005 5.28677 101.994 5.32126C101.956 5.50116 101.956 5.6668 101.957 5.85076C101.957 5.92339 101.957 5.99602 101.957 6.07085C101.958 6.14639 101.958 6.22192 101.959 6.29975C101.959 6.37625 101.959 6.45275 101.96 6.53158C101.96 6.72037 101.961 6.90916 101.963 7.09794C101.859 7.09794 101.756 7.09794 101.65 7.09794C101.65 6.45751 101.65 5.81707 101.65 5.15723Z" fill="white"/>
<path d="M102.276 12.9805C102.276 13.1057 102.276 13.2309 102.276 13.3561C102.236 13.3832 102.196 13.4103 102.154 13.4383C102.005 13.5385 102.005 13.5385 101.978 13.7435C101.973 13.8016 101.968 13.8597 101.963 13.9195C101.901 13.8989 101.839 13.8782 101.775 13.8569C101.754 14.518 101.734 15.1791 101.712 15.8602C101.692 15.8602 101.671 15.8602 101.65 15.8602C101.639 15.5462 101.631 15.2322 101.626 14.918C101.623 14.8112 101.62 14.7045 101.617 14.5977C101.586 13.7076 101.586 13.7076 101.745 13.456C101.855 13.3625 101.96 13.2981 102.088 13.2309C102.204 13.0933 102.204 13.0933 102.276 12.9805Z" fill="white"/>
<path d="M36.7917 27.8848C36.9535 28.0043 36.9818 28.0813 37.0343 28.28C37.0433 28.5443 36.9974 28.6666 36.8543 28.8864C36.7613 28.9484 36.7613 28.9484 36.6665 29.0116C36.6665 28.7844 36.6665 28.5571 36.6665 28.323C36.7078 28.323 36.7491 28.323 36.7917 28.323C36.7917 28.1784 36.7917 28.0338 36.7917 27.8848Z" fill="white"/>
<path d="M107.034 8.22363C107.075 8.28561 107.116 8.34759 107.159 8.41144C107.077 8.53665 107.077 8.53665 106.971 8.66186C106.909 8.66186 106.847 8.66186 106.783 8.66186C106.783 8.7445 106.783 8.82713 106.783 8.91227C106.68 8.93293 106.577 8.95359 106.47 8.97488C106.449 9.07817 106.429 9.18147 106.408 9.2879C106.346 9.22592 106.284 9.16394 106.22 9.10009C106.477 8.79212 106.746 8.50369 107.034 8.22363Z" fill="white"/>
<path d="M41.863 30.4497C41.9043 30.4704 41.9456 30.491 41.9882 30.5123C42.0089 30.5743 42.0295 30.6363 42.0508 30.7001C42.0921 30.7208 42.1334 30.7414 42.176 30.7627C42.176 30.7214 42.176 30.6801 42.176 30.6375C42.2587 30.6582 42.3413 30.6788 42.4264 30.7001C42.4058 30.8241 42.3851 30.948 42.3638 31.0757C42.3019 31.0964 42.2399 31.1171 42.176 31.1383C42.0314 30.9731 41.8868 30.8078 41.7378 30.6375C41.7791 30.6169 41.8204 30.5962 41.863 30.5749C41.863 30.5336 41.863 30.4923 41.863 30.4497Z" fill="white"/>
<path d="M25.4558 6.15723C25.4971 6.17789 25.5384 6.19855 25.581 6.21983C25.5397 6.32313 25.4983 6.42642 25.4558 6.53285C25.4351 6.53285 25.4144 6.53285 25.3932 6.53285C25.3932 6.6568 25.3932 6.78076 25.3932 6.90847C25.2262 6.90847 25.0593 6.90847 24.8923 6.90847C25.0071 6.71181 25.12 6.5187 25.268 6.34504C25.3093 6.34504 25.3506 6.34504 25.3932 6.34504C25.4138 6.28306 25.4345 6.22108 25.4558 6.15723Z" fill="white"/>
<path d="M68.9061 13.4839C69.278 13.5769 69.278 13.5769 69.6574 13.6717C69.3799 13.8798 69.3008 13.8841 68.9687 13.8595C68.9274 13.8389 68.8861 13.8182 68.8435 13.7969C68.8642 13.6936 68.8848 13.5903 68.9061 13.4839Z" fill="white"/>
<path d="M80.2344 7.34932C80.2019 7.36756 80.1694 7.3858 80.1359 7.40459C79.833 7.58264 79.6304 7.75607 79.4206 8.03796C79.3592 7.8469 79.3458 7.72523 79.4206 7.53713C79.5411 7.4557 79.5411 7.4557 79.6906 7.39236C79.7638 7.3598 79.7638 7.3598 79.8385 7.32658C79.9987 7.28269 80.0799 7.2945 80.2344 7.34932Z" fill="white"/>
<path d="M91.1334 10.167C91.1764 10.2687 91.1764 10.2687 91.196 10.4174C91.106 10.6209 91.106 10.6209 91.0082 10.793C90.9669 10.793 90.9256 10.793 90.883 10.793C90.8623 10.8963 90.8417 10.9996 90.8204 11.106C90.7584 11.106 90.6964 11.106 90.6326 11.106C90.6326 10.8971 90.6664 10.8423 90.7773 10.6717C90.8057 10.6279 90.8342 10.5841 90.8634 10.5389C90.9495 10.4117 91.038 10.2875 91.1334 10.167Z" fill="white"/>
<path d="M61.8911 7.47412C61.9806 7.62151 62.0217 7.692 61.9928 7.86539C61.9735 7.91963 61.9735 7.91963 61.9537 7.97495C61.9124 7.97495 61.8711 7.97495 61.8285 7.97495C61.8285 7.87166 61.8285 7.76836 61.8285 7.66193C61.7872 7.66193 61.7459 7.66193 61.7033 7.66193C61.7033 7.62061 61.7033 7.5793 61.7033 7.53672C61.7653 7.51607 61.8273 7.49541 61.8911 7.47412ZM61.5781 7.66193C61.7188 7.79042 61.766 7.85016 61.8285 8.03756C61.7459 8.05821 61.6632 8.07887 61.5781 8.10016C61.5368 7.9762 61.4955 7.85225 61.4529 7.72454C61.4942 7.70388 61.5355 7.68322 61.5781 7.66193Z" fill="white"/>
<path d="M59.8305 30.6392C59.8925 30.6598 59.9545 30.6805 60.0183 30.7018C59.977 30.7018 59.9357 30.7018 59.8931 30.7018C59.8725 30.7637 59.8518 30.8257 59.8305 30.8896C59.7279 30.9751 59.6232 31.0583 59.5175 31.14C59.4646 31.1942 59.4116 31.2485 59.3571 31.3043C59.2231 31.4348 59.1249 31.5086 58.9541 31.5782C58.9127 31.5369 58.8714 31.4956 58.8289 31.453C58.8644 31.431 58.9 31.4089 58.9367 31.3862C59.276 31.1693 59.5579 30.9354 59.8305 30.6392Z" fill="white"/>
<path d="M14.3159 21.0591C14.3573 21.0797 14.3986 21.1004 14.4412 21.1217C14.472 21.5224 14.472 21.5224 14.3159 21.7125C14.254 21.7609 14.254 21.7609 14.1907 21.8103C14.1701 21.707 14.1494 21.6037 14.1281 21.4973C14.0662 21.5283 14.0662 21.5283 14.0029 21.5599C14.0236 21.4773 14.0442 21.3946 14.0655 21.3095C14.1275 21.3095 14.1895 21.3095 14.2533 21.3095C14.274 21.2269 14.2947 21.1442 14.3159 21.0591Z" fill="white"/>
<path d="M99.3964 5.65625C99.6434 5.74443 99.827 5.92562 100.022 6.09448C99.9398 6.15645 99.8572 6.21843 99.7721 6.28229C99.7333 6.23193 99.6946 6.18157 99.6547 6.12969C99.5378 5.96684 99.5378 5.96684 99.3964 5.90667C99.3551 5.84469 99.3138 5.78271 99.2712 5.71885C99.3126 5.69819 99.3539 5.67754 99.3964 5.65625Z" fill="white"/>
<path d="M46.9349 30.7002C46.9763 30.7209 47.0176 30.7415 47.0602 30.7628C47.0602 30.8041 47.0602 30.8454 47.0602 30.888C47.0188 30.888 46.9775 30.888 46.9349 30.888C46.9349 30.95 46.9349 31.012 46.9349 31.0758C46.8936 31.0758 46.8523 31.0758 46.8097 31.0758C46.7891 31.1171 46.7684 31.1585 46.7471 31.201C46.619 31.3789 46.5521 31.3902 46.3285 31.4319C46.26 31.4383 46.1916 31.4448 46.1211 31.4514C46.1869 31.3991 46.1869 31.3991 46.2541 31.3458C46.3135 31.298 46.3729 31.2502 46.4341 31.201C46.4836 31.1616 46.4836 31.1616 46.5341 31.1213C46.6977 30.9887 46.8172 30.8768 46.9349 30.7002Z" fill="white"/>
<path d="M45.9246 14.0469C45.9865 14.0469 46.0485 14.0469 46.1124 14.0469C46.1124 14.0882 46.1124 14.1295 46.1124 14.1721C46.195 14.1927 46.2776 14.2134 46.3628 14.2347C46.4204 14.3961 46.437 14.4597 46.3643 14.6191C46.3325 14.6767 46.3325 14.6767 46.3002 14.7355C46.2372 14.6445 46.1747 14.5531 46.1124 14.4616C46.0601 14.3854 46.0601 14.3854 46.0067 14.3076C45.9246 14.1721 45.9246 14.1721 45.9246 14.0469Z" fill="white"/>
<path d="M74.728 17.0518C74.7693 17.0518 74.8106 17.0518 74.8532 17.0518C74.9784 17.2396 74.9784 17.2396 74.9628 17.4C74.9158 17.5526 74.9158 17.5526 74.7906 17.6778C74.7286 17.6365 74.6666 17.5952 74.6028 17.5526C74.6028 17.5113 74.6028 17.47 74.6028 17.4274C74.6441 17.4274 74.6854 17.4274 74.728 17.4274C74.728 17.3861 74.728 17.3447 74.728 17.3022C74.6867 17.3022 74.6454 17.3022 74.6028 17.3022C74.6028 17.2609 74.6028 17.2195 74.6028 17.177C74.6441 17.177 74.6854 17.177 74.728 17.177C74.728 17.1356 74.728 17.0943 74.728 17.0518Z" fill="white"/>
<path d="M45.799 28.7593C45.854 28.9532 45.8612 29.0664 45.799 29.2601C45.8403 29.2808 45.8816 29.3014 45.9242 29.3227C45.9035 29.364 45.8829 29.4053 45.8616 29.4479C45.7167 29.4937 45.5706 29.5357 45.4233 29.5731C45.5289 29.2915 45.6623 29.0267 45.799 28.7593Z" fill="white"/>
<path d="M41.6675 25.5039C41.6856 25.5439 41.7037 25.584 41.7223 25.6252C41.782 25.7638 41.782 25.7638 41.9179 25.8169C41.9179 25.8582 41.9179 25.8996 41.9179 25.9421C41.8559 25.9215 41.794 25.9008 41.7301 25.8795C41.6888 25.9208 41.6475 25.9622 41.6049 26.0047C41.5636 25.9841 41.5223 25.9634 41.4797 25.9421C41.4384 26.0248 41.3971 26.1074 41.3545 26.1925C41.3545 25.9336 41.364 25.8984 41.511 25.7074C41.5401 25.669 41.5691 25.6305 41.599 25.591C41.6329 25.5479 41.6329 25.5479 41.6675 25.5039Z" fill="white"/>
<path d="M8.49263 20.4326C8.53395 20.4946 8.57527 20.5566 8.61784 20.6204C8.57178 20.6927 8.52461 20.7643 8.47698 20.8356C8.45084 20.8756 8.42469 20.9155 8.39775 20.9567C8.28635 21.0789 8.21097 21.0828 8.05441 21.1213C8.03375 21.1832 8.01309 21.2452 7.9918 21.3091C7.97114 21.2678 7.95048 21.2264 7.9292 21.1839C8.11513 20.936 8.30107 20.688 8.49263 20.4326Z" fill="white"/>
<path d="M46.9955 9.72754C47.0368 9.7482 47.0781 9.76886 47.1207 9.79014C46.9661 10.1456 46.9661 10.1456 46.8037 10.244C46.7637 10.2595 46.7237 10.275 46.6824 10.291C46.6411 10.3323 46.5998 10.3736 46.5572 10.4162C46.5366 10.3335 46.5159 10.2509 46.4946 10.1658C46.6599 10.0212 46.8252 9.87654 46.9955 9.72754Z" fill="white"/>
<path d="M27.0815 12.7324C27.1848 12.8357 27.2881 12.939 27.3945 13.0454C27.3251 13.1843 27.2384 13.2981 27.1441 13.4211C27.0821 13.3178 27.0202 13.2145 26.9563 13.108C26.9976 13.0874 27.0389 13.0667 27.0815 13.0454C27.0641 12.9854 27.0641 12.9854 27.0463 12.9241C27.0327 12.8602 27.0327 12.8602 27.0189 12.795C27.0396 12.7744 27.0602 12.7537 27.0815 12.7324Z" fill="white"/>
<path d="M42.1737 8.03711C42.277 8.11975 42.3803 8.20238 42.4867 8.28752C42.4247 8.47346 42.3628 8.65939 42.2989 8.85096C42.1848 8.62285 42.1376 8.47397 42.1111 8.22492C42.1317 8.16294 42.1524 8.10097 42.1737 8.03711Z" fill="white"/>
<path d="M102.144 12.9805C102.165 13.0218 102.186 13.0631 102.207 13.1057C102.149 13.1778 102.09 13.2495 102.031 13.3209C101.982 13.3808 101.982 13.3808 101.932 13.4419C101.831 13.5439 101.831 13.5439 101.644 13.6065C101.623 13.5445 101.602 13.4826 101.581 13.4187C101.757 13.2331 101.906 13.0778 102.144 12.9805Z" fill="white"/>
<path d="M43.9232 6.03174C44.0472 6.06273 44.0472 6.06273 44.1736 6.09434C44.153 6.13566 44.1323 6.17698 44.111 6.21955C44.1523 6.21955 44.1936 6.21955 44.2362 6.21955C44.3614 6.40736 44.3614 6.40736 44.3614 6.59517C44.1238 6.50183 44.0102 6.35997 43.8606 6.15695C43.8813 6.11563 43.9019 6.07431 43.9232 6.03174Z" fill="white"/>
<path d="M4.48262 2.34131C4.52394 2.36197 4.56526 2.38263 4.60783 2.40391C4.57942 2.44007 4.55102 2.47622 4.52175 2.51347C4.41689 2.64784 4.41689 2.64784 4.36133 2.79127C4.29481 2.90474 4.29481 2.90474 4.1696 2.95561C4.0444 2.96735 4.0444 2.96735 3.91919 2.90474C4.10512 2.71881 4.29106 2.53288 4.48262 2.34131Z" fill="white"/>
<path d="M4.25432 0.387535C4.30516 0.424092 4.30516 0.424092 4.35703 0.461388C4.25026 0.507442 4.14346 0.553413 4.03643 0.598823C3.93928 0.64043 3.84285 0.683722 3.74664 0.727454C3.60578 0.774407 3.60578 0.774407 3.41797 0.711803C3.5268 0.645381 3.63653 0.580444 3.74664 0.516166C3.80765 0.479851 3.86866 0.443536 3.93152 0.406121C4.10661 0.33618 4.10661 0.33618 4.25432 0.387535Z" fill="white"/>
<path d="M9.24362 24.6265C9.26428 24.6265 9.28493 24.6265 9.30622 24.6265C9.37051 24.9622 9.39686 25.294 9.30622 25.6281C9.24424 25.6901 9.18226 25.7521 9.11841 25.8159C9.15973 25.4234 9.20105 25.0309 9.24362 24.6265Z" fill="white"/>
<path d="M49.3065 20.0566C49.3271 20.098 49.3478 20.1393 49.3691 20.1818C49.493 20.1612 49.617 20.1405 49.7447 20.1192C49.7653 20.1606 49.786 20.2019 49.8073 20.2445C49.7161 20.2865 49.6248 20.3281 49.5334 20.3697C49.4571 20.4045 49.4571 20.4045 49.3793 20.4401C49.2439 20.4949 49.2439 20.4949 49.1187 20.4949C49.1421 20.311 49.1421 20.311 49.1813 20.1192C49.2226 20.0986 49.2639 20.0779 49.3065 20.0566Z" fill="white"/>
<path d="M68.0295 5.46924C67.9184 5.6915 67.6861 5.80408 67.4661 5.90746C67.2783 5.89573 67.2783 5.89573 67.1531 5.84486C67.4066 5.63188 67.6937 5.46924 68.0295 5.46924Z" fill="white"/>
<path d="M12.3772 24.2485C12.4392 24.2485 12.5011 24.2485 12.565 24.2485C12.4288 24.5551 12.2594 24.8113 11.939 24.9372C12.0151 24.7641 12.1114 24.6085 12.2168 24.452C12.2425 24.4136 12.2683 24.3752 12.2948 24.3356C12.322 24.3069 12.3492 24.2781 12.3772 24.2485Z" fill="white"/>
<path d="M47.7485 21.6831C47.7898 21.7244 47.8312 21.7657 47.8737 21.8083C47.8531 21.8496 47.8324 21.891 47.8111 21.9335C47.7698 21.9335 47.7285 21.9335 47.6859 21.9335C47.6678 21.98 47.6498 22.0265 47.6311 22.0744C47.5718 22.2195 47.5076 22.3579 47.4355 22.497C47.3942 22.4763 47.3529 22.4556 47.3103 22.4344C47.4078 22.1419 47.566 21.9281 47.7485 21.6831Z" fill="white"/>
<path d="M92.6283 9.47644C92.6077 9.51776 92.587 9.55908 92.5657 9.60165C92.5038 9.60165 92.4418 9.60165 92.3779 9.60165C92.3779 9.64297 92.3779 9.68429 92.3779 9.72686C92.254 9.72686 92.13 9.72686 92.0023 9.72686C91.9816 9.68554 91.961 9.64422 91.9397 9.60165C92.019 9.56833 92.0986 9.53589 92.1784 9.50383C92.2227 9.48568 92.267 9.46752 92.3126 9.44881C92.4405 9.41384 92.4405 9.41384 92.6283 9.47644Z" fill="white"/>
<path d="M45.7424 21.123C45.763 21.185 45.7837 21.247 45.805 21.3109C45.8463 21.3109 45.8876 21.3109 45.9302 21.3109C45.9095 21.4348 45.8889 21.5588 45.8676 21.6865C45.8262 21.6452 45.7849 21.6038 45.7424 21.5613C45.6184 21.6233 45.6184 21.6233 45.4919 21.6865C45.5582 21.4734 45.6177 21.31 45.7424 21.123Z" fill="white"/>
<path d="M94.1996 13.6065C94.1996 13.6891 94.1996 13.7718 94.1996 13.8569C94.2409 13.8776 94.2822 13.8982 94.3248 13.9195C93.8396 13.8647 93.8396 13.8647 93.6987 13.7943C93.6987 13.753 93.6987 13.7117 93.6987 13.6691C93.8683 13.5843 94.0123 13.6024 94.1996 13.6065Z" fill="white"/>
<path d="M46.6762 19.9287C46.864 20.0539 46.864 20.0539 46.907 20.2496C46.9135 20.309 46.92 20.3683 46.9266 20.4295C46.7597 20.3461 46.5927 20.2626 46.4258 20.1791C46.5084 20.0965 46.5911 20.0139 46.6762 19.9287Z" fill="white"/>
<path d="M58.6421 18.8672C58.7947 18.9181 58.7947 18.9181 58.9551 18.9924C58.9758 19.0544 58.9964 19.1164 59.0177 19.1802C59.059 19.1802 59.1003 19.1802 59.1429 19.1802C59.1842 19.2835 59.2256 19.3868 59.2681 19.4932C59.2062 19.5139 59.1442 19.5345 59.0803 19.5558C59.0592 19.5219 59.038 19.4879 59.0162 19.4529C58.9883 19.4081 58.9604 19.3633 58.9316 19.3172C58.904 19.2728 58.8764 19.2285 58.848 19.1829C58.781 19.0766 58.7118 18.9717 58.6421 18.8672Z" fill="white"/>
<path d="M46.869 14.9238C46.9309 14.9651 46.9929 15.0065 47.0568 15.049C47.0568 15.0904 47.0568 15.1317 47.0568 15.1742C47.0981 15.1949 47.1394 15.2156 47.182 15.2368C47.1613 15.2782 47.1407 15.3195 47.1194 15.3621C46.8266 15.2696 46.8266 15.2696 46.7242 15.1038C46.71 15.0651 46.6958 15.0263 46.6812 14.9864C46.7431 14.9658 46.8051 14.9451 46.869 14.9238Z" fill="white"/>
<path d="M6.67219 11.479C6.69285 11.479 6.7135 11.479 6.73479 11.479C6.73786 11.5213 6.74092 11.5636 6.74408 11.6071C6.74876 11.663 6.75344 11.7188 6.75827 11.7764C6.76262 11.8316 6.76698 11.8868 6.77147 11.9436C6.7973 12.1045 6.84194 12.2151 6.9226 12.3555C6.86062 12.3555 6.79865 12.3555 6.73479 12.3555C6.71413 12.2935 6.69347 12.2315 6.67219 12.1676C6.63087 12.1676 6.58955 12.1676 6.54698 12.1676C6.52632 12.209 6.50566 12.2503 6.48438 12.2929C6.50503 12.2102 6.52569 12.1276 6.54698 12.0424C6.5883 12.0424 6.62962 12.0424 6.67219 12.0424C6.67219 11.8565 6.67219 11.6706 6.67219 11.479Z" fill="white"/>
<path d="M46.3089 10.354C46.3709 10.354 46.4329 10.354 46.4967 10.354C46.4877 10.4341 46.4786 10.5141 46.4693 10.5966C46.4642 10.6416 46.4592 10.6867 46.4539 10.7331C46.4341 10.8548 46.4341 10.8548 46.3715 10.98C46.2889 10.8561 46.2062 10.7321 46.1211 10.6044C46.2033 10.4792 46.2033 10.4792 46.3089 10.354Z" fill="white"/>
<path d="M47.9276 9.47659C47.7189 9.58093 47.5103 9.68527 47.3016 9.78961C47.2396 9.74829 47.1776 9.70698 47.1138 9.66441C47.2139 9.62064 47.3144 9.57777 47.4151 9.53528C47.471 9.51132 47.5269 9.48735 47.5845 9.46265C47.7398 9.41399 47.7398 9.41399 47.9276 9.47659Z" fill="white"/>
<path d="M68.5324 7.53564C68.5737 7.5563 68.6151 7.57696 68.6576 7.59825C68.6086 7.64473 68.5595 7.69122 68.509 7.73911C68.3718 7.88274 68.2928 7.98148 68.2194 8.16168C68.1781 8.16168 68.1368 8.16168 68.0942 8.16168C68.0735 8.22366 68.0529 8.28564 68.0316 8.34949C68.0109 8.28752 67.9903 8.22554 67.969 8.16168C68.0543 8.03819 68.0543 8.03819 68.1764 7.90735C68.2162 7.86402 68.2559 7.82068 68.2969 7.77603C68.3745 7.69501 68.4531 7.61496 68.5324 7.53564Z" fill="white"/>
<path d="M67.2806 5.46924C67.3013 5.51056 67.3219 5.55188 67.3432 5.59445C67.4052 5.61511 67.4672 5.63576 67.531 5.65705C67.1902 5.81199 67.1902 5.81199 66.8424 5.97007C66.8217 5.90809 66.8011 5.84611 66.7798 5.78226C66.9731 5.67178 67.0448 5.65705 67.2806 5.65705C67.2806 5.59507 67.2806 5.53309 67.2806 5.46924Z" fill="white"/>
<path d="M16.5658 4.15479C16.7596 4.37444 16.8626 4.56121 16.9414 4.84343C16.8279 4.8356 16.8279 4.8356 16.691 4.78082C16.494 4.47512 16.494 4.47512 16.5227 4.25652C16.5369 4.22295 16.5511 4.18937 16.5658 4.15479Z" fill="white"/>
<path d="M60.0139 30.1353C60.0552 30.1559 60.0965 30.1766 60.1391 30.1979C60.0812 30.2923 60.0224 30.3861 59.963 30.4796C59.9304 30.5319 59.8977 30.5842 59.864 30.638C59.8308 30.6787 59.7977 30.7194 59.7635 30.7613C59.7015 30.7613 59.6395 30.7613 59.5757 30.7613C59.5757 30.72 59.5757 30.6787 59.5757 30.6361C59.6377 30.5948 59.6996 30.5534 59.7635 30.5109C59.8073 30.4285 59.8491 30.345 59.8887 30.2605C59.93 30.2191 59.9713 30.1778 60.0139 30.1353Z" fill="white"/>
<path d="M60.2032 30.0098C60.2651 30.0304 60.3271 30.0511 60.391 30.0724C60.3703 30.155 60.3496 30.2376 60.3284 30.3228C60.287 30.3228 60.2457 30.3228 60.2032 30.3228C60.1825 30.3848 60.1618 30.4467 60.1406 30.5106C60.0579 30.5313 59.9753 30.5519 59.8901 30.5732C59.9934 30.3873 60.0967 30.2013 60.2032 30.0098Z" fill="white"/>
<path d="M47.6772 21.1821C47.7185 21.2028 47.7599 21.2234 47.8024 21.2447C47.8024 21.4259 47.7878 21.5718 47.7398 21.7456C47.6778 21.7456 47.6159 21.7456 47.552 21.7456C47.5442 21.5343 47.5442 21.5343 47.552 21.3073C47.5933 21.266 47.6346 21.2247 47.6772 21.1821Z" fill="white"/>
<path d="M38.6651 27.8848C38.6858 27.8848 38.7065 27.8848 38.7277 27.8848C38.7315 27.9444 38.7353 28.004 38.7392 28.0655C38.7445 28.144 38.7497 28.2225 38.7551 28.3034C38.7602 28.3811 38.7653 28.4589 38.7705 28.5389C38.7869 28.7225 38.8121 28.8948 38.853 29.0742C38.7703 29.0536 38.6877 29.0329 38.6025 29.0116C38.6335 28.4538 38.6335 28.4538 38.6651 27.8848Z" fill="white"/>
<path d="M9.62172 18.9287C9.66304 18.97 9.70435 19.0113 9.74692 19.0539C9.68495 19.1985 9.62297 19.3431 9.55911 19.4921C9.53845 19.4508 9.51779 19.4095 9.49651 19.3669C9.37255 19.4289 9.37255 19.4289 9.24609 19.4921C9.3417 19.277 9.47142 19.1091 9.62172 18.9287Z" fill="white"/>
<path d="M10.7431 17.1133C10.8051 17.1339 10.8671 17.1546 10.9309 17.1759C10.807 17.3618 10.683 17.5478 10.5553 17.7393C10.4927 17.4889 10.4927 17.4889 10.614 17.2854C10.6566 17.2286 10.6992 17.1718 10.7431 17.1133Z" fill="white"/>
<path d="M106.342 12.1055C106.425 12.1055 106.508 12.1055 106.593 12.1055C106.506 12.3163 106.406 12.4176 106.217 12.5437C106.176 12.4611 106.135 12.3784 106.092 12.2933C106.154 12.2726 106.216 12.252 106.28 12.2307C106.301 12.1894 106.321 12.148 106.342 12.1055Z" fill="white"/>
<path d="M108.598 10.103C108.511 10.3138 108.411 10.4152 108.222 10.5413C108.181 10.4586 108.139 10.376 108.097 10.2908C108.386 10.103 108.386 10.103 108.598 10.103Z" fill="white"/>
<path d="M108.718 9.54053C108.904 9.57152 108.904 9.57152 109.093 9.60313C109.007 9.80103 108.969 9.85309 108.78 9.97875C108.701 9.81966 108.718 9.72033 108.718 9.54053Z" fill="white"/>
<path d="M11.6846 24.5654C11.726 24.5861 11.7673 24.6067 11.8098 24.628C11.7892 24.69 11.7685 24.752 11.7472 24.8158C11.7472 24.8365 11.7472 24.8572 11.7472 24.8784C11.7472 24.9828 11.7472 25.0871 11.7472 25.1915C11.6853 25.1915 11.6233 25.1915 11.5594 25.1915C11.5164 25.0193 11.5164 25.0193 11.4968 24.8158C11.5868 24.6672 11.5868 24.6672 11.6846 24.5654Z" fill="white"/>
<path d="M103.401 11.8574C103.526 12.0452 103.526 12.0452 103.526 12.1704C103.485 12.1704 103.444 12.1704 103.401 12.1704C103.401 12.2118 103.401 12.2531 103.401 12.2956C103.277 12.2956 103.153 12.2956 103.026 12.2956C103.067 12.275 103.108 12.2543 103.151 12.233C103.172 12.1711 103.192 12.1091 103.213 12.0452C103.255 12.0452 103.296 12.0452 103.339 12.0452C103.359 11.9833 103.38 11.9213 103.401 11.8574Z" fill="white"/>
<path d="M107.781 7.47412C107.848 7.58759 107.848 7.58759 107.906 7.72454C107.886 7.78651 107.865 7.84849 107.844 7.91235C107.782 7.93301 107.72 7.95367 107.656 7.97495C107.594 7.91297 107.532 7.851 107.468 7.78714C107.571 7.68384 107.675 7.58055 107.781 7.47412Z" fill="white"/>
<path d="M79.8604 7.47412C79.9018 7.49478 79.9431 7.51544 79.9857 7.53672C79.7699 7.89886 79.7699 7.89886 79.5944 7.96713C79.5582 7.96971 79.5221 7.97229 79.4848 7.97495C79.5751 7.76423 79.6935 7.62998 79.8604 7.47412ZM79.4222 7.97495C79.4429 8.01627 79.4635 8.05759 79.4848 8.10016C79.4435 8.0795 79.4022 8.05884 79.3596 8.03756C79.3803 8.0169 79.4009 7.99624 79.4222 7.97495Z" fill="white"/>
<path d="M79.2305 5.11014C79.3557 5.15709 79.3557 5.15709 79.5435 5.2823C79.3369 5.32361 79.1303 5.36493 78.9175 5.4075C78.9175 5.34553 78.9175 5.28355 78.9175 5.21969C79.1053 5.09448 79.1053 5.09448 79.2305 5.11014Z" fill="white"/>
<path d="M45.9941 31.4521C46.0354 31.4728 46.0767 31.4935 46.1193 31.5148C45.9792 31.7249 45.9356 31.7389 45.7045 31.8082C45.6534 31.8239 45.6022 31.8397 45.5495 31.8559C45.5103 31.8673 45.471 31.8787 45.4306 31.8904C45.3893 31.8491 45.348 31.8077 45.3054 31.7652C45.3446 31.7478 45.3839 31.7305 45.4243 31.7126C45.4754 31.6899 45.5266 31.6672 45.5793 31.6439C45.6302 31.6214 45.681 31.5988 45.7334 31.5756C45.8211 31.5362 45.9081 31.4951 45.9941 31.4521Z" fill="white"/>
<path d="M42.1096 25.0024C42.1096 25.0644 42.1096 25.1264 42.1096 25.1903C42.1288 25.2741 42.1494 25.3577 42.1723 25.4407C42.0483 25.482 41.9243 25.5233 41.7966 25.5659C41.7966 25.2911 41.9299 25.2047 42.1096 25.0024Z" fill="white"/>
<path d="M29.149 25.1919C29.1903 25.1919 29.2316 25.1919 29.2742 25.1919C29.2535 25.3572 29.2329 25.5224 29.2116 25.6927C29.129 25.6927 29.0463 25.6927 28.9612 25.6927C29.0786 25.3328 29.0786 25.3328 29.149 25.1919Z" fill="white"/>
<path d="M105.34 13.1084C105.423 13.1497 105.505 13.191 105.59 13.2336C105.404 13.3886 105.404 13.3886 105.215 13.5466C105.173 13.464 105.132 13.3814 105.09 13.2962C105.152 13.2756 105.214 13.2549 105.277 13.2336C105.298 13.1923 105.319 13.151 105.34 13.1084Z" fill="white"/>
<path d="M41.4822 7.47412C41.7415 7.56057 41.8154 7.69939 41.983 7.91235C41.9004 7.93301 41.8177 7.95367 41.7326 7.97495C41.7055 7.91491 41.7055 7.91491 41.6778 7.85366C41.6181 7.71502 41.6181 7.71502 41.4822 7.66193C41.4822 7.59995 41.4822 7.53798 41.4822 7.47412Z" fill="white"/>
<path d="M61.4525 7.28511C61.4318 7.32643 61.4112 7.36775 61.3899 7.41032C61.4105 7.4723 61.4312 7.53428 61.4525 7.59813C61.2078 7.59813 61.1322 7.50387 60.9517 7.34772C61.3116 7.21468 61.3116 7.21468 61.4525 7.28511Z" fill="white"/>
<path d="M55.8236 31.3887C55.8649 31.4093 55.9063 31.43 55.9488 31.4513C55.9282 31.5132 55.9075 31.5752 55.8862 31.6391C55.7597 31.6014 55.6345 31.5594 55.5106 31.5139C55.4899 31.4726 55.4693 31.4312 55.448 31.3887C55.6056 31.3099 55.6595 31.3374 55.8236 31.3887Z" fill="white"/>
<path d="M60.7061 21.9976C60.9914 22.025 61.1804 22.0508 61.3947 22.248C61.3121 22.2686 61.2294 22.2893 61.1443 22.3106C61.1443 22.2693 61.1443 22.2279 61.1443 22.1854C61.041 22.1854 60.9377 22.1854 60.8313 22.1854C60.8313 22.1441 60.8313 22.1027 60.8313 22.0602C60.7899 22.0395 60.7486 22.0188 60.7061 21.9976Z" fill="white"/>
<path d="M8.80647 19.6807C8.88911 19.7013 8.97175 19.722 9.05689 19.7433C8.95359 19.8879 8.85029 20.0325 8.74387 20.1815C8.67842 19.9851 8.68116 19.9314 8.74387 19.7433C8.76453 19.7226 8.78519 19.7019 8.80647 19.6807Z" fill="white"/>
<path d="M103.588 11.479C103.629 11.5203 103.671 11.5616 103.713 11.6042C103.589 11.7488 103.465 11.8934 103.338 12.0424C103.296 11.9805 103.255 11.9185 103.212 11.8546C103.338 11.7294 103.463 11.6042 103.588 11.479Z" fill="white"/>
<path d="M110.916 7.84766C111.061 7.85939 111.061 7.85939 111.166 7.91026C111.125 7.95158 111.084 7.9929 111.041 8.03547C111 8.03547 110.959 8.03547 110.916 8.03547C110.813 8.18968 110.813 8.18968 110.728 8.34849C110.687 8.28651 110.646 8.22453 110.603 8.16068C110.744 8.00025 110.744 8.00025 110.916 7.84766Z" fill="white"/>
<path d="M6.05409 3.46436C6.09541 3.48501 6.13673 3.50567 6.1793 3.52696C6.1793 3.58894 6.1793 3.65091 6.1793 3.71477C6.05534 3.75609 5.93139 3.79741 5.80367 3.83998C5.76236 3.79866 5.72104 3.75734 5.67847 3.71477C5.80242 3.63213 5.92638 3.5495 6.05409 3.46436Z" fill="white"/>
<path d="M36.7844 27.8848C36.9595 28.0142 36.9739 28.0816 37.0153 28.3034C37.0217 28.3719 37.0282 28.4403 37.0348 28.5108C36.9729 28.5418 36.9729 28.5418 36.9096 28.5734C36.835 28.3307 36.7844 28.1404 36.7844 27.8848Z" fill="white"/>
<path d="M46.4942 27.6294C46.4736 27.6914 46.4529 27.7534 46.4316 27.8172C46.3903 27.8172 46.349 27.8172 46.3064 27.8172C46.2858 27.8792 46.2651 27.9412 46.2438 28.005C46.1612 27.9637 46.0785 27.9224 45.9934 27.8798C46.283 27.6294 46.283 27.6294 46.4942 27.6294Z" fill="white"/>
<path d="M7.80608 21.123C7.86806 21.1437 7.93003 21.1644 7.99389 21.1857C7.89059 21.3303 7.7873 21.4749 7.68087 21.6239C7.63955 21.5619 7.59823 21.4999 7.55566 21.4361C7.6383 21.3328 7.72094 21.2295 7.80608 21.123Z" fill="white"/>
<path d="M45.8703 20.5576C45.9323 20.5783 45.9942 20.5989 46.0581 20.6202C45.9798 20.8041 45.9798 20.8041 45.8703 20.9958C45.7877 21.0165 45.705 21.0372 45.6199 21.0584C45.7025 20.8932 45.7851 20.7279 45.8703 20.5576Z" fill="white"/>
<path d="M91.4468 14.7988C91.4881 14.9434 91.5294 15.0881 91.572 15.2371C91.2042 15.0023 91.2042 15.0023 91.1338 14.8614C91.3216 14.7988 91.3216 14.7988 91.4468 14.7988Z" fill="white"/>
<path d="M77.1655 13.5454C77.2275 13.5454 77.2894 13.5454 77.3533 13.5454C77.3533 13.6694 77.3533 13.7933 77.3533 13.921C77.2707 13.9417 77.188 13.9624 77.1029 13.9836C77.0638 13.835 77.0638 13.835 77.0403 13.6706C77.0816 13.6293 77.1229 13.588 77.1655 13.5454Z" fill="white"/>
<path d="M107.467 11.103C107.508 11.103 107.549 11.103 107.592 11.103C107.505 11.3138 107.405 11.4152 107.216 11.5413C107.196 11.4586 107.175 11.376 107.154 11.2908C107.257 11.2702 107.36 11.2495 107.467 11.2282C107.467 11.1869 107.467 11.1456 107.467 11.103Z" fill="white"/>
<path d="M104.528 10.5405C104.59 10.5612 104.652 10.5818 104.716 10.6031C104.571 10.7596 104.571 10.7596 104.403 10.9162C104.341 10.9162 104.279 10.9162 104.215 10.9162C104.215 10.8748 104.215 10.8335 104.215 10.7909C104.256 10.7909 104.297 10.7909 104.34 10.7909C104.361 10.729 104.381 10.667 104.403 10.6031C104.444 10.5825 104.485 10.5618 104.528 10.5405Z" fill="white"/>
<path d="M109.53 8.97559C109.592 8.99625 109.654 9.0169 109.718 9.03819C109.594 9.1828 109.47 9.32742 109.342 9.47642C109.301 9.45576 109.26 9.4351 109.217 9.41381C109.217 9.37249 109.217 9.33118 109.217 9.28861C109.279 9.28861 109.341 9.28861 109.405 9.28861C109.446 9.18531 109.488 9.08201 109.53 8.97559Z" fill="white"/>
<path d="M3.23353 0.837891C3.27485 0.85855 3.31617 0.879209 3.35874 0.900494C3.29676 1.02445 3.23479 1.14841 3.17093 1.27612C3.06763 1.25546 2.96434 1.2348 2.85791 1.21351C2.98312 1.08831 3.10833 0.963098 3.23353 0.837891Z" fill="white"/>
<path d="M7.23978 22.811C7.36498 23.0536 7.36498 23.0536 7.36498 23.1241C7.26169 23.1241 7.15839 23.1241 7.05197 23.1241C7.01065 23.0414 6.96933 22.9588 6.92676 22.8736C7.03005 22.853 7.13335 22.8323 7.23978 22.811Z" fill="white"/>
<path d="M11.6857 16.1133C11.7477 16.1339 11.8096 16.1546 11.8735 16.1759C11.8528 16.2172 11.8322 16.2585 11.8109 16.3011C11.7696 16.3011 11.7283 16.3011 11.6857 16.3011C11.665 16.3631 11.6444 16.425 11.6231 16.4889C11.5253 16.5945 11.5253 16.5945 11.4353 16.6767C11.3939 16.6561 11.3526 16.6354 11.3101 16.6141C11.434 16.4488 11.558 16.2836 11.6857 16.1133Z" fill="white"/>
<path d="M47.3016 15.1108C47.3429 15.1315 47.3842 15.1522 47.4268 15.1734C47.4061 15.2767 47.3855 15.38 47.3642 15.4865C47.2815 15.4658 47.1989 15.4451 47.1138 15.4239C47.1372 15.3026 47.1372 15.3026 47.1764 15.1734C47.2177 15.1528 47.259 15.1321 47.3016 15.1108Z" fill="white"/>
<path d="M48.4995 13.2949C48.5331 13.313 48.5667 13.3311 48.6012 13.3497C48.772 13.4306 48.9456 13.4881 49.1255 13.5453C49.016 13.6158 49.016 13.6158 48.8751 13.6705C48.6988 13.6187 48.64 13.5713 48.5465 13.4123C48.531 13.3736 48.5155 13.3348 48.4995 13.2949Z" fill="white"/>
<path d="M102.647 12.4204C102.709 12.4617 102.771 12.503 102.835 12.5456C102.649 12.7006 102.649 12.7006 102.459 12.8586C102.439 12.776 102.418 12.6934 102.397 12.6082C102.479 12.5462 102.562 12.4843 102.647 12.4204Z" fill="white"/>
<path d="M45.2411 29.6367C45.3238 29.7194 45.4064 29.802 45.4916 29.8871C45.4709 29.9285 45.4502 29.9698 45.4289 30.0123C45.3876 29.9917 45.3463 29.971 45.3037 29.9497C45.2398 29.9362 45.2398 29.9362 45.1746 29.9223C45.1346 29.9107 45.0946 29.8991 45.0533 29.8871C45.0327 29.8458 45.012 29.8045 44.9907 29.7619C45.0734 29.7206 45.156 29.6793 45.2411 29.6367Z" fill="white"/>
<path d="M57.7621 29.5728C57.8448 29.6141 57.9274 29.6554 58.0125 29.698C57.8678 29.7958 57.8678 29.7958 57.6995 29.8858C57.6376 29.8651 57.5756 29.8445 57.5117 29.8232C57.5944 29.7405 57.677 29.6579 57.7621 29.5728Z" fill="white"/>
<path d="M36.7924 27.8187C36.6046 27.9439 36.6046 27.9439 36.4493 27.9288C36.3933 27.9157 36.3374 27.9026 36.2798 27.8891C36.2234 27.8764 36.167 27.8636 36.1089 27.8505C36.0658 27.84 36.0228 27.8295 35.9785 27.8187C35.9785 27.798 35.9785 27.7774 35.9785 27.7561C36.5062 27.6667 36.5062 27.6667 36.7924 27.8187Z" fill="white"/>
<path d="M30.0899 23.9385C30.1312 23.9591 30.1725 23.9798 30.2151 24.0011C30.1738 24.0424 30.1324 24.0837 30.0899 24.1263C30.0493 24.2872 30.0493 24.2872 30.0273 24.4393C29.9446 24.398 29.862 24.3567 29.7769 24.3141C29.8802 24.1901 29.9834 24.0662 30.0899 23.9385Z" fill="white"/>
<path d="M62.1444 22.6855C62.2477 22.7682 62.351 22.8508 62.4574 22.936C62.4161 23.0186 62.3748 23.1012 62.3322 23.1864C62.2082 22.9695 62.2082 22.9695 62.0818 22.7482C62.1024 22.7275 62.1231 22.7068 62.1444 22.6855Z" fill="white"/>
<path d="M42.4884 22.0591C42.5917 22.0797 42.695 22.1004 42.8014 22.1217C42.8221 22.1837 42.8427 22.2456 42.864 22.3095C42.6471 22.4025 42.6471 22.4025 42.4258 22.4973C42.4464 22.3527 42.4671 22.2081 42.4884 22.0591Z" fill="white"/>
<path d="M48.5006 20.7471C48.5832 20.7677 48.6658 20.7884 48.751 20.8097C48.6064 20.913 48.4617 21.0163 48.3127 21.1227C48.3127 21.0401 48.3127 20.9574 48.3127 20.8723C48.3747 20.831 48.4367 20.7896 48.5006 20.7471Z" fill="white"/>
<path d="M46.3677 19.9927C46.4091 19.9927 46.4504 19.9927 46.493 19.9927C46.459 20.2303 46.3551 20.3353 46.1799 20.4935C46.1799 20.3902 46.1799 20.2869 46.1799 20.1805C46.2419 20.1598 46.3039 20.1392 46.3677 20.1179C46.3677 20.0766 46.3677 20.0352 46.3677 19.9927Z" fill="white"/>
<path d="M79.1766 15.5479C79.3626 15.5788 79.3626 15.5788 79.5522 15.6105C79.5316 15.6724 79.5109 15.7344 79.4896 15.7983C79.3657 15.8189 79.2417 15.8396 79.114 15.8609C79.1347 15.7576 79.1553 15.6543 79.1766 15.5479Z" fill="white"/>
<path d="M5.42285 13.5454C5.56747 13.5661 5.71208 13.5867 5.86108 13.608C5.84042 13.7113 5.81976 13.8146 5.79847 13.921C5.67198 13.8183 5.54678 13.7139 5.42285 13.608C5.42285 13.5874 5.42285 13.5667 5.42285 13.5454Z" fill="white"/>
<path d="M93.195 13.4229C93.381 13.5468 93.381 13.5468 93.5707 13.6733C93.4467 13.7352 93.4467 13.7352 93.3202 13.7985C93.2376 13.7158 93.155 13.6332 93.0698 13.5481C93.1111 13.5481 93.1525 13.5481 93.195 13.5481C93.195 13.5067 93.195 13.4654 93.195 13.4229Z" fill="white"/>
<path d="M76.7319 12.4814C76.7526 12.4814 76.7732 12.4814 76.7945 12.4814C76.8152 12.6674 76.8358 12.8533 76.8571 13.0449C76.7641 13.1069 76.7641 13.1069 76.6693 13.1701C76.5903 12.9013 76.6299 12.7395 76.7319 12.4814Z" fill="white"/>
<path d="M26.8359 8.59961C26.8973 8.79072 26.8973 8.90933 26.8359 9.10044C26.8772 9.10044 26.9185 9.10044 26.9611 9.10044C26.9198 9.18308 26.8785 9.26571 26.8359 9.35085C26.7946 9.35085 26.7533 9.35085 26.7107 9.35085C26.7196 9.26084 26.7288 9.17085 26.7381 9.08088C26.7432 9.03076 26.7483 8.98065 26.7535 8.92901C26.7733 8.78742 26.7733 8.78742 26.8359 8.59961Z" fill="white"/>
<path d="M27.6464 7.47412C27.6877 7.49478 27.729 7.51544 27.7716 7.53672C27.6855 7.63063 27.6855 7.63063 27.5838 7.72454C27.5425 7.72454 27.5011 7.72454 27.4586 7.72454C27.4586 7.68322 27.4586 7.6419 27.4586 7.59933C27.5205 7.55801 27.5825 7.51669 27.6464 7.47412ZM27.396 7.72454C27.4373 7.76585 27.4786 7.80717 27.5212 7.84974C27.4385 7.91172 27.3559 7.9737 27.2708 8.03756C27.2708 7.84974 27.2708 7.84974 27.396 7.72454Z" fill="white"/>
<path d="M25.461 6.15723C25.5023 6.17789 25.5436 6.19855 25.5862 6.21983C25.5119 6.43112 25.4437 6.57337 25.2732 6.72066C25.2732 6.67934 25.2732 6.63802 25.2732 6.59545C25.2318 6.57479 25.1905 6.55413 25.1479 6.53285C25.1893 6.47087 25.2306 6.40889 25.2732 6.34504C25.3145 6.34504 25.3558 6.34504 25.3984 6.34504C25.419 6.28306 25.4397 6.22108 25.461 6.15723Z" fill="white"/>
<path d="M42.7378 27.9438C42.8356 28.0182 42.8356 28.0182 42.9256 28.1317C42.906 28.2999 42.906 28.2999 42.863 28.4447C42.7803 28.4034 42.6977 28.362 42.6125 28.3195C42.6539 28.1955 42.6952 28.0716 42.7378 27.9438Z" fill="white"/>
<path d="M42.176 22.624C42.176 22.7067 42.176 22.7893 42.176 22.8744C42.0626 22.9136 42.0626 22.9136 41.9256 22.937C41.8636 22.8957 41.8016 22.8544 41.7378 22.8118C42.0352 22.624 42.0352 22.624 42.176 22.624Z" fill="white"/>
<path d="M7.17717 22.1846C7.19783 22.2259 7.21849 22.2672 7.23978 22.3098C7.21912 22.3485 7.19846 22.3873 7.17717 22.4272C7.10234 22.5862 7.11939 22.6488 7.17717 22.8106C7.1152 22.8106 7.05322 22.8106 6.98936 22.8106C6.94241 22.7089 6.94241 22.7089 6.92676 22.5602C7.04805 22.3567 7.04805 22.3567 7.17717 22.1846Z" fill="white"/>
<path d="M7.80608 21.3711C7.86806 21.4124 7.93003 21.4537 7.99389 21.4963C7.86868 21.6841 7.86868 21.6841 7.70435 21.7272C7.63075 21.7368 7.63075 21.7368 7.55566 21.7467C7.6383 21.6228 7.72094 21.4988 7.80608 21.3711Z" fill="white"/>
<path d="M46.8665 19.5576C46.9078 19.5989 46.9491 19.6403 46.9917 19.6828C46.8884 19.7655 46.7851 19.8481 46.6787 19.9332C46.6374 19.8506 46.596 19.768 46.5535 19.6828C46.6568 19.6415 46.7601 19.6002 46.8665 19.5576Z" fill="white"/>
<path d="M26.4624 15.1108C26.5837 15.1304 26.5837 15.1304 26.7128 15.1734C26.7334 15.2354 26.7541 15.2974 26.7754 15.3613C26.7134 15.3819 26.6514 15.4026 26.5876 15.4239C26.4506 15.3339 26.4506 15.3339 26.3372 15.236C26.3785 15.236 26.4198 15.236 26.4624 15.236C26.4624 15.1947 26.4624 15.1534 26.4624 15.1108Z" fill="white"/>
<path d="M90.8131 14.4863C90.9201 14.588 91.0243 14.6925 91.1261 14.7993C91.1261 14.8407 91.1261 14.882 91.1261 14.9246C90.9735 14.8737 90.9735 14.8737 90.8131 14.7993C90.7924 14.7374 90.7718 14.6754 90.7505 14.6115C90.7711 14.5702 90.7918 14.5289 90.8131 14.4863Z" fill="white"/>
<path d="M15.1268 11.8574C15.2198 11.9194 15.2198 11.9194 15.3146 11.9826C15.3264 12.1783 15.3264 12.1783 15.3146 12.3583C15.294 12.3169 15.2733 12.2756 15.252 12.233C15.19 12.2537 15.1281 12.2744 15.0642 12.2956C15.0849 12.151 15.1055 12.0064 15.1268 11.8574Z" fill="white"/>
<path d="M97.3943 7.16065C97.7543 7.15282 97.7543 7.15282 97.8951 7.22325C97.8745 7.28523 97.8538 7.34721 97.8325 7.41107C97.6879 7.36975 97.5433 7.32843 97.3943 7.28586C97.3943 7.24454 97.3943 7.20322 97.3943 7.16065Z" fill="white"/>
<path d="M4.9254 4.65332C5.11321 4.65332 5.11321 4.65332 5.30102 4.77853C5.28036 4.81985 5.2597 4.86116 5.23842 4.90374C5.11446 4.90374 4.9905 4.90374 4.86279 4.90374C4.88345 4.8211 4.90411 4.73846 4.9254 4.65332Z" fill="white"/>
<path d="M18.2558 3.0293C18.2971 3.07062 18.3385 3.11193 18.381 3.1545C18.3576 3.38144 18.3576 3.38144 18.3184 3.59273C18.1932 3.40492 18.1932 3.40492 18.1306 3.21711C18.1719 3.15513 18.2133 3.09315 18.2558 3.0293Z" fill="white"/>
<path d="M18.4451 0.711934C18.5898 0.696283 18.5898 0.696283 18.7581 0.711934C18.8716 0.837141 18.8716 0.837141 18.9459 0.962349C18.6955 0.962349 18.6955 0.962349 18.5546 0.837141C18.5185 0.795823 18.4823 0.754504 18.4451 0.711934Z" fill="white"/>
<path d="M34.1577 30.0098C34.2191 30.2009 34.2191 30.3195 34.1577 30.5106C34.1164 30.5106 34.075 30.5106 34.0325 30.5106C34.0325 30.366 34.0325 30.2214 34.0325 30.0724C34.0738 30.0517 34.1151 30.0311 34.1577 30.0098Z" fill="white"/>
<path d="M29.4624 28.9463C29.6111 28.958 29.6111 28.958 29.7754 29.0089C29.8576 29.1693 29.8576 29.1693 29.9006 29.3219C29.6078 29.2295 29.6078 29.2295 29.5054 29.0637C29.4912 29.0249 29.477 28.9862 29.4624 28.9463Z" fill="white"/>
<path d="M42.5437 27.5679C42.585 27.5679 42.6263 27.5679 42.6689 27.5679C42.6689 27.6092 42.6689 27.6505 42.6689 27.6931C42.7515 27.7344 42.8342 27.7757 42.9193 27.8183C42.8987 27.8803 42.878 27.9422 42.8567 28.0061C42.6179 27.852 42.6179 27.852 42.5594 27.6813C42.5542 27.6439 42.549 27.6065 42.5437 27.5679Z" fill="white"/>
<path d="M39.1663 25.8799C39.249 25.9212 39.3316 25.9625 39.4168 26.0051C39.4168 26.0464 39.4168 26.0877 39.4168 26.1303C39.2928 26.1923 39.2928 26.1923 39.1663 26.2555C39.0959 26.0207 39.0959 26.0207 39.1663 25.8799Z" fill="white"/>
<path d="M107.846 10.6685C107.887 10.7304 107.929 10.7924 107.971 10.8563C107.889 10.9182 107.806 10.9802 107.721 11.0441C107.68 10.9614 107.638 10.8788 107.596 10.7937C107.678 10.7523 107.761 10.711 107.846 10.6685Z" fill="white"/>
<path d="M79.2948 8.10059C79.3567 8.16256 79.4187 8.22454 79.4826 8.2884C79.3999 8.39169 79.3173 8.49499 79.2322 8.60142C79.1739 8.43828 79.1602 8.37341 79.2282 8.21014C79.2502 8.17399 79.2721 8.13784 79.2948 8.10059Z" fill="white"/>
<path d="M65.2146 7.91162C65.2559 7.91162 65.2972 7.91162 65.3398 7.91162C65.2985 8.09755 65.2571 8.28349 65.2146 8.47506C65.1732 8.43374 65.1319 8.39242 65.0894 8.34985C65.1249 8.00126 65.1249 8.00126 65.2146 7.91162Z" fill="white"/>
<path d="M55.6974 7.03418C55.78 7.0755 55.8626 7.11682 55.9478 7.15939C55.9271 7.24202 55.9065 7.32466 55.8852 7.4098C55.8025 7.4098 55.7199 7.4098 55.6348 7.4098C55.6554 7.28585 55.6761 7.16189 55.6974 7.03418Z" fill="white"/>
<path d="M100.268 6.78613C100.33 6.78613 100.392 6.78613 100.455 6.78613C100.476 6.86877 100.497 6.95141 100.518 7.03655C100.477 7.03655 100.435 7.03655 100.393 7.03655C100.372 7.09853 100.352 7.1605 100.33 7.22436C100.33 7.18304 100.33 7.14172 100.33 7.09915C100.289 7.09915 100.248 7.09915 100.205 7.09915C100.226 6.99586 100.246 6.89256 100.268 6.78613Z" fill="white"/>
<path d="M99.6448 5.90918C99.7622 5.92874 99.7622 5.92874 99.8952 5.97178C99.9365 6.03376 99.9778 6.09574 100.02 6.15959C99.9171 6.20091 99.8138 6.24223 99.7074 6.2848C99.6867 6.22282 99.6661 6.16085 99.6448 6.09699C99.6861 6.09699 99.7274 6.09699 99.77 6.09699C99.77 6.05567 99.77 6.01435 99.77 5.97178C99.7287 5.95112 99.6873 5.93046 99.6448 5.90918Z" fill="white"/>
<path d="M19.4478 1.52832C19.4891 1.52832 19.5304 1.52832 19.573 1.52832C19.573 1.56964 19.573 1.61096 19.573 1.65353C19.6143 1.65353 19.6556 1.65353 19.6982 1.65353C19.7188 1.73616 19.7395 1.8188 19.7608 1.90394C19.6988 1.90394 19.6368 1.90394 19.573 1.90394C19.4478 1.71613 19.4478 1.71613 19.4478 1.52832Z" fill="white"/>
<path d="M18.8259 1.02441C18.9085 1.10705 18.9912 1.18969 19.0763 1.27483C18.973 1.31615 18.8697 1.35747 18.7633 1.40004C18.7426 1.33806 18.722 1.27608 18.7007 1.21223C18.742 1.15025 18.7833 1.08827 18.8259 1.02441Z" fill="white"/>
<path d="M59.3224 31.0737C59.3017 31.1357 59.2811 31.1977 59.2598 31.2615C59.0994 31.3359 59.0994 31.3359 58.9468 31.3867C58.9703 31.2655 58.9703 31.2655 59.0094 31.1363C59.1346 31.0737 59.1346 31.0737 59.3224 31.0737Z" fill="white"/>
<path d="M56.2574 29.4497C56.4434 29.4807 56.4434 29.4807 56.6331 29.5123C56.5917 29.5949 56.5504 29.6776 56.5078 29.7627C56.4045 29.7007 56.3013 29.6388 56.1948 29.5749C56.2155 29.5336 56.2361 29.4923 56.2574 29.4497Z" fill="white"/>
<path d="M29.6529 29.2607C29.7562 29.364 29.8595 29.4673 29.966 29.5738C29.8627 29.5944 29.7594 29.6151 29.6529 29.6364C29.629 29.5327 29.6082 29.4282 29.5903 29.3233C29.611 29.3027 29.6317 29.282 29.6529 29.2607Z" fill="white"/>
<path d="M62.1444 29.1353C62.2477 29.1559 62.351 29.1766 62.4574 29.1979C62.4368 29.2598 62.4161 29.3218 62.3948 29.3857C62.3328 29.4063 62.2709 29.427 62.207 29.4483C62.1657 29.3863 62.1244 29.3243 62.0818 29.2605C62.1024 29.2191 62.1231 29.1778 62.1444 29.1353Z" fill="white"/>
<path d="M9.67703 27.8848C9.71835 27.9054 9.75967 27.9261 9.80224 27.9474C9.73353 28.1348 9.69726 28.1882 9.5127 28.276C9.46363 28.2915 9.41457 28.307 9.36401 28.323C9.46731 28.1784 9.57061 28.0338 9.67703 27.8848Z" fill="white"/>
<path d="M59.0139 27.6953C59.0553 27.716 59.0966 27.7366 59.1392 27.7579C59.038 27.8857 58.9335 28.0109 58.8261 28.1335C58.7848 28.1335 58.7435 28.1335 58.7009 28.1335C58.7819 27.953 58.8674 27.8285 59.0139 27.6953Z" fill="white"/>
<path d="M10.8036 26.3784C10.845 26.3991 10.8863 26.4197 10.9288 26.441C10.8819 26.5623 10.8819 26.5623 10.8036 26.6914C10.6706 26.7384 10.6706 26.7384 10.5532 26.754C10.6359 26.6301 10.7185 26.5061 10.8036 26.3784Z" fill="white"/>
<path d="M62.2723 23.0591C62.3343 23.1211 62.3963 23.183 62.4601 23.2469C62.4188 23.3295 62.3775 23.4122 62.3349 23.4973C62.2936 23.4766 62.2523 23.456 62.2097 23.4347C62.2304 23.3107 62.251 23.1868 62.2723 23.0591Z" fill="white"/>
<path d="M13.9389 22.1255C13.9596 22.1668 13.9802 22.2081 14.0015 22.2507C14.0428 22.2714 14.0841 22.292 14.1267 22.3133C14.0647 22.334 14.0027 22.3546 13.9389 22.3759C13.8632 22.5011 13.8632 22.5011 13.8137 22.6263C13.7724 22.585 13.731 22.5437 13.6885 22.5011C13.7711 22.3772 13.8538 22.2532 13.9389 22.1255Z" fill="white"/>
<path d="M14.3159 21.0591C14.3573 21.0797 14.3986 21.1004 14.4412 21.1217C14.3998 21.2043 14.3585 21.287 14.3159 21.3721C14.2953 21.3101 14.2746 21.2481 14.2533 21.1843C14.274 21.143 14.2947 21.1017 14.3159 21.0591ZM14.0655 21.3095C14.1275 21.3302 14.1895 21.3508 14.2533 21.3721C14.1707 21.4341 14.0881 21.4961 14.0029 21.5599C14.0236 21.4773 14.0442 21.3946 14.0655 21.3095Z" fill="white"/>
<path d="M78.1704 15.0469C78.2944 15.1089 78.4183 15.1708 78.546 15.2347C78.5254 15.276 78.5047 15.3173 78.4834 15.3599C78.3285 15.2979 78.3285 15.2979 78.1704 15.2347C78.1704 15.1727 78.1704 15.1107 78.1704 15.0469Z" fill="white"/>
<path d="M102.267 12.9805C102.267 13.1057 102.267 13.2309 102.267 13.3561C102.164 13.3974 102.061 13.4387 101.954 13.4813C102.04 13.2964 102.141 13.1407 102.267 12.9805Z" fill="white"/>
<path d="M110.094 8.59961C110.008 8.79751 109.97 8.84957 109.781 8.97523C109.76 8.93391 109.74 8.8926 109.719 8.85002C109.953 8.59961 109.953 8.59961 110.094 8.59961Z" fill="white"/>
<path d="M106.408 8.59961C106.47 8.62027 106.531 8.64093 106.595 8.66221C106.492 8.76551 106.389 8.86881 106.282 8.97523C106.262 8.91325 106.241 8.85128 106.22 8.78742C106.261 8.78742 106.302 8.78742 106.345 8.78742C106.366 8.72544 106.386 8.66347 106.408 8.59961Z" fill="white"/>
<path d="M106.909 8.10059C106.971 8.12125 107.033 8.1419 107.097 8.16319C107.014 8.2884 107.014 8.2884 106.909 8.4136C106.847 8.4136 106.785 8.4136 106.721 8.4136C106.838 8.17102 106.838 8.17102 106.909 8.10059Z" fill="white"/>
<path d="M61.0769 7.03418C61.1388 7.05484 61.2008 7.0755 61.2647 7.09678C61.2647 7.15876 61.2647 7.22074 61.2647 7.28459C61.1614 7.30525 61.0581 7.32591 60.9517 7.3472C60.9517 7.28522 60.9517 7.22324 60.9517 7.15939C60.993 7.15939 61.0343 7.15939 61.0769 7.15939C61.0769 7.11807 61.0769 7.07675 61.0769 7.03418Z" fill="white"/>
<path d="M78.8605 5.46924C78.8192 5.59319 78.7778 5.71715 78.7353 5.84486C78.5475 5.71965 78.5475 5.71965 78.4849 5.59445C78.7196 5.46924 78.7196 5.46924 78.8605 5.46924Z" fill="white"/>
</svg>
