<svg width="124" height="20" viewBox="0 0 124 20" fill="none" xmlns="http://www.w3.org/2000/svg">
<path d="M16.0209 15.8611C16.3017 15.8611 16.5358 15.8333 16.7231 15.7778V19.6111C16.386 19.7222 15.9834 19.7778 15.5153 19.7778C13.7364 19.7778 12.2383 19.3611 11.0212 18.5278C9.82276 17.6759 8.69923 16.0833 7.65061 13.75L7.06076 12.5556H4.42048V19.6667H0.235352V0.36111H8.99884C11.1148 0.36111 12.8188 0.907406 14.1109 2C15.4029 3.09259 16.049 4.59259 16.049 6.5C16.049 7.96296 15.6464 9.16667 14.8412 10.1111C14.036 11.0556 12.9031 11.6759 11.4425 11.9722C12.2477 13.4907 13.0061 14.5185 13.7176 15.0556C14.4292 15.5926 15.1969 15.8611 16.0209 15.8611ZM4.42048 3.94444V9H8.54943C10.6279 9 11.6672 8.15741 11.6672 6.47222C11.6672 4.78704 10.6092 3.94444 8.49325 3.94444H4.42048Z" fill="white"/>
<path d="M28.2465 14.6667L31.4485 16.25C30.1752 18.75 27.9656 20 24.8198 20C22.5914 20 20.7657 19.3519 19.3426 18.0556C17.9382 16.7593 17.236 15.0185 17.236 12.8333C17.236 10.7222 17.9288 9 19.3145 7.66667C20.7189 6.31481 22.4791 5.63889 24.595 5.63889C26.6923 5.63889 28.3401 6.27778 29.5386 7.55556C30.7557 8.83333 31.3643 10.5278 31.3643 12.6389C31.3643 13.1944 31.3549 13.5556 31.3362 13.7222H21.4492C21.5428 14.7037 21.8892 15.4815 22.4884 16.0556C23.1064 16.6111 23.9022 16.8889 24.8759 16.8889C26.3365 16.8889 27.46 16.1481 28.2465 14.6667ZM24.4546 8.61111C23.6494 8.61111 22.9847 8.86111 22.4604 9.36111C21.936 9.86111 21.6083 10.5463 21.4773 11.4167H27.2072C27.0574 9.5463 26.1399 8.61111 24.4546 8.61111Z" fill="white"/>
<path d="M33.1352 19.6667V5.97222H36.9552V7.91667C37.9289 6.39815 39.3333 5.63889 41.1684 5.63889C42.8724 5.63889 44.1832 6.12037 45.1007 7.08333C46.0183 8.02778 46.4771 9.36111 46.4771 11.0833V19.6667H42.4043V11.7222C42.4043 9.85185 41.6085 8.91667 40.0168 8.91667C39.1929 8.91667 38.5094 9.18518 37.9664 9.72222C37.4421 10.2593 37.1799 11.0093 37.1799 11.9722V19.6667H33.1352Z" fill="white"/>
<path d="M53.9628 20C50.8544 20 49.3002 18.4537 49.3002 15.3611V9.25H47.3621V5.97222H49.4968L50.508 2.02778H53.3449V5.97222H58.7378V9.25H53.3449V15.0556C53.3449 16.037 53.7194 16.5278 54.4684 16.5278C54.8429 16.5278 55.18 16.3611 55.4796 16.0278C55.7792 15.6944 56.0882 15.1667 56.4065 14.4444L59.44 16.0833C58.0918 18.6944 56.2661 20 53.9628 20Z" fill="white"/>
<path d="M68.5152 20C67.4666 20 66.5584 19.7778 65.7906 19.3333C65.0229 18.8704 64.433 18.25 64.0211 17.4722V19.6667H60.2011V0.36111H64.2458V8.05556C65.1633 6.44444 66.6145 5.63889 68.5994 5.63889C70.4158 5.63889 71.9326 6.31481 73.1497 7.66667C74.3669 9.01852 74.9754 10.7407 74.9754 12.8333C74.9754 14.9074 74.3575 16.6204 73.1216 17.9722C71.9045 19.3241 70.369 20 68.5152 20ZM67.5321 16.8889C68.5433 16.8889 69.3391 16.5278 69.9196 15.8056C70.5001 15.0833 70.7903 14.0926 70.7903 12.8333C70.7903 11.5556 70.5001 10.5556 69.9196 9.83333C69.3391 9.11111 68.5433 8.75 67.5321 8.75C66.6146 8.75 65.8374 9.13889 65.2008 9.91667C64.5641 10.6944 64.2458 11.6667 64.2458 12.8333C64.2458 13.9815 64.5641 14.9444 65.2008 15.7222C65.8374 16.5 66.6146 16.8889 67.5321 16.8889Z" fill="white"/>
<path d="M81.574 20C79.9075 20 78.6248 19.5278 77.726 18.5833C76.8271 17.6204 76.3777 16.2685 76.3777 14.5278V5.97222H80.4505V13.9722C80.4505 15.8056 81.2089 16.7222 82.7256 16.7222C83.5308 16.7222 84.1862 16.463 84.6918 15.9444C85.2161 15.4259 85.4783 14.6944 85.4783 13.75V5.97222H89.551V19.6667H85.703V17.7222C84.7292 19.2407 83.3529 20 81.574 20Z" fill="white"/>
<path d="M97.1812 20C94.0728 20 92.5186 18.4537 92.5186 15.3611V9.25H90.5805V5.97222H92.7152L93.7264 2.02778H96.5633V5.97222H101.956V9.25H96.5633V15.0556C96.5633 16.037 96.9378 16.5278 97.6868 16.5278C98.0613 16.5278 98.3984 16.3611 98.698 16.0278C98.9976 15.6944 99.3065 15.1667 99.6249 14.4444L102.658 16.0833C101.31 18.6944 99.4844 20 97.1812 20Z" fill="white"/>
<path d="M105.442 4.38889C104.805 4.38889 104.262 4.18518 103.813 3.77778C103.382 3.35185 103.167 2.82407 103.167 2.19444C103.167 1.56481 103.382 1.04629 103.813 0.638887C104.262 0.212962 104.805 0 105.442 0C106.097 0 106.64 0.212962 107.071 0.638887C107.52 1.04629 107.745 1.56481 107.745 2.19444C107.745 2.82407 107.52 3.35185 107.071 3.77778C106.64 4.18518 106.097 4.38889 105.442 4.38889ZM103.419 19.6667V5.97222H107.464V19.6667H103.419Z" fill="white"/>
<path d="M119.186 13.4722C119.898 14.5278 120.497 15.2593 120.984 15.6667C121.471 16.0556 122.07 16.25 122.782 16.25C123.137 16.25 123.428 16.2037 123.652 16.1111L123.596 19.6667C123.184 19.7778 122.688 19.8333 122.108 19.8333C120.778 19.8333 119.655 19.5463 118.737 18.9722C117.838 18.3796 116.949 17.3704 116.069 15.9444L115.001 14.2222L113.934 15.2778V19.6667H109.889V0.36111H113.934V11.6389L118.99 5.97222H123.765L118.175 11.9167L119.186 13.4722Z" fill="white"/>
</svg>
