<svg width="80" height="24" viewBox="0 0 80 24" fill="none" xmlns="http://www.w3.org/2000/svg">
<path d="M0.925293 5.76659V3.95423H1.03513C1.41957 3.95423 1.75824 3.92677 2.05115 3.87185C2.36236 3.79863 2.60035 3.67963 2.76511 3.51487C2.92987 3.33181 3.01225 3.07551 3.01225 2.746L5.78571 3.81693H11.3601V5.76659H0.925293ZM7.81774 13.0435C7.81774 13.7574 7.89097 14.3249 8.03742 14.746C8.20218 15.1487 8.43101 15.4416 8.72392 15.6247C9.01683 15.7895 9.37381 15.8719 9.79486 15.8719C10.1427 15.8719 10.4722 15.8352 10.7834 15.762C11.1129 15.6705 11.3509 15.6064 11.4974 15.5698V17.6568C11.3509 17.73 11.1312 17.8032 10.8383 17.8764C10.5637 17.9497 10.2251 18.0137 9.82232 18.0686C9.43788 18.1236 8.99852 18.151 8.50424 18.151C7.42415 18.151 6.4539 17.9954 5.59349 17.6842C4.73307 17.373 4.04657 16.8513 3.53399 16.119C3.03971 15.3684 2.79257 14.3707 2.79257 13.1259V4.33867L3.01225 4.11899L3.03971 0H7.81774V13.0435Z" fill="white"/>
<path d="M21.1067 9.41876V11.0664C20.4843 11.1396 19.9259 11.2403 19.4317 11.3684C18.9557 11.4966 18.5346 11.6613 18.1685 11.8627C17.8024 12.0458 17.5003 12.2563 17.2623 12.4943C17.0426 12.714 16.8687 12.9703 16.7406 13.2632C16.6307 13.5561 16.5758 13.8673 16.5758 14.1968C16.5758 14.6178 16.6399 14.9657 16.768 15.2403C16.9145 15.5149 17.1159 15.7254 17.3722 15.8719C17.6285 16 17.9305 16.0641 18.2783 16.0641C18.7177 16.0641 19.1021 15.9542 19.4317 15.7346C19.7795 15.4966 20.0907 15.167 20.3653 14.746C20.6399 14.3249 20.8779 13.8215 21.0793 13.2357L21.1067 15.1579C20.8504 15.7986 20.5117 16.3478 20.0907 16.8055C19.6696 17.2449 19.1571 17.5835 18.5529 17.8215C17.9671 18.0412 17.2898 18.151 16.5209 18.151C15.569 18.151 14.7452 18.0137 14.0495 17.7391C13.3722 17.4462 12.8413 17.0252 12.4568 16.476C12.0907 15.9085 11.9076 15.222 11.9076 14.4165C11.9076 13.6476 12.0998 12.9886 12.4843 12.4394C12.887 11.8902 13.4728 11.4233 14.2417 11.0389C15.0106 10.6545 15.9717 10.3341 17.125 10.0778C18.2783 9.8032 19.6056 9.58352 21.1067 9.41876ZM20.8321 17.8764V15.1579L20.5026 15.1854V7.71625C20.5026 7.20366 20.4294 6.79176 20.2829 6.48055C20.1365 6.16934 19.9168 5.94966 19.6239 5.82151C19.331 5.67506 18.9557 5.60183 18.498 5.60183C17.839 5.60183 17.2898 5.74828 16.8504 6.04119C16.4294 6.31579 16.109 6.66362 15.8893 7.08467C15.7246 6.9016 15.633 6.72769 15.6147 6.56293C15.5964 6.37986 15.6239 6.2151 15.6971 6.06865C15.7886 5.90389 15.9259 5.76659 16.109 5.65675C16.2921 5.54691 16.5117 5.47368 16.768 5.43707V8.34783H12.8687V5.38215C13.1433 5.16247 13.5461 4.91533 14.077 4.64073C14.6262 4.34783 15.3127 4.09153 16.1365 3.87185C16.9603 3.65217 17.9214 3.54233 19.0198 3.54233C19.9534 3.54233 20.8047 3.63387 21.5735 3.81693C22.3607 4 23.0381 4.28375 23.6056 4.66819C24.1731 5.05263 24.6124 5.55606 24.9236 6.17849C25.2349 6.78261 25.3905 7.52403 25.3905 8.40275V15.2677C25.3905 15.4691 25.4454 15.6247 25.5552 15.7346C25.6651 15.8444 25.8207 15.9268 26.022 15.9817C26.2234 16.0183 26.4614 16.0549 26.736 16.0915L26.8458 16.119V17.8764H20.8321Z" fill="white"/>
<path d="M35.4018 24H26.8893V22.3249H26.9167C27.1913 22.3249 27.4384 22.2975 27.6581 22.2426C27.8778 22.1876 28.0517 22.0961 28.1799 21.968C28.308 21.8581 28.3721 21.7025 28.3721 21.5011V6.53547C28.3721 6.3341 28.3263 6.18764 28.2348 6.09611C28.1433 5.98627 28.006 5.89474 27.8229 5.82151C27.6398 5.74828 27.4018 5.68421 27.1089 5.62929L26.8893 5.57437V3.81693H33.0403V7.46911L33.3698 7.52403V22.0778C33.3698 22.1327 33.4613 22.1785 33.6444 22.2151C33.8458 22.2517 34.0746 22.2792 34.3309 22.2975C34.6055 22.3158 34.8526 22.3249 35.0723 22.3249H35.4018V24ZM37.4064 18.151C36.6925 18.151 36.0517 18.0687 35.4842 17.9039C34.935 17.7391 34.4316 17.4828 33.9739 17.135C33.5346 16.7872 33.1135 16.3387 32.7108 15.7895L32.7931 12.5217C33.0677 13.1625 33.3515 13.73 33.6444 14.2243C33.9556 14.7002 34.3034 15.0664 34.6879 15.3227C35.0906 15.5789 35.5483 15.7071 36.0609 15.7071C36.5185 15.7071 36.9121 15.5973 37.2417 15.3776C37.5895 15.1396 37.8732 14.8009 38.0929 14.3616C38.3126 13.9039 38.4774 13.373 38.5872 12.7689C38.697 12.1465 38.752 11.4508 38.752 10.6819C38.752 9.93135 38.697 9.27231 38.5872 8.70481C38.4774 8.11899 38.3217 7.62471 38.1204 7.22197C37.919 6.80092 37.6536 6.4897 37.324 6.28833C37.0128 6.08696 36.6467 5.98627 36.2256 5.98627C35.7314 5.98627 35.2828 6.13272 34.8801 6.42563C34.4774 6.70023 34.1021 7.10297 33.7542 7.63387C33.4247 8.14645 33.0952 8.76888 32.7657 9.50114L32.7108 6.72769C33.1501 6.01373 33.5986 5.42792 34.0563 4.97025C34.5323 4.49428 35.054 4.1373 35.6215 3.89931C36.2073 3.66133 36.8755 3.54233 37.6261 3.54233C38.8893 3.54233 39.9876 3.84439 40.9213 4.44851C41.8732 5.03433 42.6055 5.86728 43.1181 6.94737C43.6307 8.00915 43.887 9.254 43.887 10.6819C43.887 12.1465 43.6124 13.4462 43.0632 14.5812C42.514 15.6979 41.7542 16.5767 40.784 17.2174C39.8137 17.8398 38.6879 18.151 37.4064 18.151Z" fill="white"/>
<path d="M46.9756 18.2059C46.0969 18.2059 45.4013 17.968 44.8887 17.492C44.3944 17.016 44.1473 16.3936 44.1473 15.6247C44.1473 14.8558 44.3944 14.2334 44.8887 13.7574C45.4013 13.2815 46.0969 13.0435 46.9756 13.0435C47.8544 13.0435 48.5409 13.2815 49.0351 13.7574C49.5294 14.2334 49.7766 14.8558 49.7766 15.6247C49.7766 16.3936 49.5294 17.016 49.0351 17.492C48.5409 17.968 47.8544 18.2059 46.9756 18.2059Z" fill="white"/>
<path d="M60.1406 9.41876V11.0664C59.5182 11.1396 58.9598 11.2403 58.4656 11.3684C57.9896 11.4966 57.5685 11.6613 57.2024 11.8627C56.8363 12.0458 56.5342 12.2563 56.2962 12.4943C56.0765 12.714 55.9026 12.9703 55.7745 13.2632C55.6646 13.5561 55.6097 13.8673 55.6097 14.1968C55.6097 14.6178 55.6738 14.9657 55.8019 15.2403C55.9484 15.5149 56.1498 15.7254 56.4061 15.8719C56.6623 16 56.9644 16.0641 57.3122 16.0641C57.7516 16.0641 58.136 15.9542 58.4656 15.7346C58.8134 15.4966 59.1246 15.167 59.3992 14.746C59.6738 14.3249 59.9118 13.8215 60.1131 13.2357L60.1406 15.1579C59.8843 15.7986 59.5456 16.3478 59.1246 16.8055C58.7035 17.2449 58.191 17.5835 57.5868 17.8215C57.001 18.0412 56.3237 18.151 55.5548 18.151C54.6029 18.151 53.7791 18.0137 53.0834 17.7391C52.4061 17.4462 51.8752 17.0252 51.4907 16.476C51.1246 15.9085 50.9415 15.222 50.9415 14.4165C50.9415 13.6476 51.1337 12.9886 51.5182 12.4394C51.9209 11.8902 52.5067 11.4233 53.2756 11.0389C54.0445 10.6545 55.0056 10.3341 56.1589 10.0778C57.3122 9.8032 58.6395 9.58352 60.1406 9.41876ZM59.866 17.8764V15.1579L59.5365 15.1854V7.71625C59.5365 7.20366 59.4633 6.79176 59.3168 6.48055C59.1704 6.16934 58.9507 5.94966 58.6578 5.82151C58.3649 5.67506 57.9896 5.60183 57.5319 5.60183C56.8729 5.60183 56.3237 5.74828 55.8843 6.04119C55.4633 6.31579 55.1429 6.66362 54.9232 7.08467C54.7585 6.9016 54.6669 6.72769 54.6486 6.56293C54.6303 6.37986 54.6578 6.2151 54.731 6.06865C54.8225 5.90389 54.9598 5.76659 55.1429 5.65675C55.326 5.54691 55.5456 5.47368 55.8019 5.43707V8.34783H51.9026V5.38215C52.1772 5.16247 52.58 4.91533 53.1109 4.64073C53.6601 4.34783 54.3466 4.09153 55.1704 3.87185C55.9942 3.65217 56.9553 3.54233 58.0537 3.54233C58.9873 3.54233 59.8386 3.63387 60.6074 3.81693C61.3946 4 62.072 4.28375 62.6395 4.66819C63.207 5.05263 63.6463 5.55606 63.9575 6.17849C64.2688 6.78261 64.4244 7.52403 64.4244 8.40275V15.2677C64.4244 15.4691 64.4793 15.6247 64.5891 15.7346C64.699 15.8444 64.8546 15.9268 65.0559 15.9817C65.2573 16.0183 65.4953 16.0549 65.7699 16.0915L65.8797 16.119V17.8764H59.866Z" fill="white"/>
<path d="M70.8365 16.6407L70.4246 15.8993H74.1043C74.5986 15.8993 75.0105 15.881 75.34 15.8444C75.6878 15.8078 75.9716 15.7529 76.1912 15.6796C76.4109 15.5881 76.5757 15.46 76.6855 15.2952C76.8137 15.1304 76.896 14.9199 76.9327 14.6636L77.2073 12.3295H79.0745V17.8764H66.1134V15.3776L74.0494 4.99771L75.4773 5.73913H71.221C70.745 5.73913 70.3331 5.75744 69.9853 5.79405C69.6375 5.81236 69.3537 5.86728 69.134 5.95881C68.9143 6.05034 68.7496 6.16934 68.6398 6.31579C68.5299 6.46224 68.4567 6.67277 68.4201 6.94737L68.2004 8.86957H66.3606V3.81693H78.6626V6.20595L70.8365 16.6407Z" fill="white"/>
</svg>
