<svg width="98" height="24" viewBox="0 0 98 24" fill="none" xmlns="http://www.w3.org/2000/svg">
<path d="M14.1181 0C14.2311 0 14.3215 0.0451978 14.3893 0.135593C14.4797 0.203391 14.5249 0.293786 14.5249 0.40678V3.69492C14.5249 3.80791 14.4797 3.90961 14.3893 4C14.3215 4.0678 14.2311 4.10169 14.1181 4.10169H9.88082C9.76782 4.10169 9.71133 4.15819 9.71133 4.27119V23.322C9.71133 23.435 9.66613 23.5367 9.57573 23.6271C9.50794 23.6949 9.41754 23.7288 9.30455 23.7288H5.33844C5.22545 23.7288 5.12376 23.6949 5.03336 23.6271C4.96556 23.5367 4.93167 23.435 4.93167 23.322V4.27119C4.93167 4.15819 4.87517 4.10169 4.76217 4.10169H0.694377C0.581383 4.10169 0.479688 4.0678 0.389293 4C0.321496 3.90961 0.287598 3.80791 0.287598 3.69492V0.40678C0.287598 0.293786 0.321496 0.203391 0.389293 0.135593C0.479688 0.0451978 0.581383 0 0.694377 0H14.1181Z" fill="white"/>
<path d="M22.7228 6.71186C22.7228 6.59887 22.7567 6.50847 22.8245 6.44068C22.9149 6.35028 23.0166 6.30509 23.1296 6.30509H27.0957C27.2087 6.30509 27.2991 6.35028 27.3669 6.44068C27.4573 6.50847 27.5025 6.59887 27.5025 6.71186V23.322C27.5025 23.435 27.4573 23.5367 27.3669 23.6271C27.2991 23.6949 27.2087 23.7288 27.0957 23.7288H23.1296C23.0166 23.7288 22.9149 23.6949 22.8245 23.6271C22.7567 23.5367 22.7228 23.435 22.7228 23.322V22.7458C22.7228 22.678 22.7002 22.6328 22.655 22.6102C22.6098 22.5876 22.5646 22.6102 22.5194 22.678C22.1804 23.1525 21.751 23.4915 21.2313 23.6949C20.7341 23.8757 20.1465 23.9661 19.4686 23.9661C18.1126 23.9661 16.994 23.5593 16.1126 22.7458C15.2313 21.9096 14.7906 20.6328 14.7906 18.9153V6.71186C14.7906 6.59887 14.8245 6.50847 14.8923 6.44068C14.9827 6.35028 15.0844 6.30509 15.1974 6.30509H19.1635C19.2765 6.30509 19.3669 6.35028 19.4347 6.44068C19.5251 6.50847 19.5703 6.59887 19.5703 6.71186V17.8644C19.5703 18.5198 19.6946 19.0282 19.9431 19.3898C20.2143 19.7288 20.5985 19.8983 21.0957 19.8983C21.5929 19.8983 21.9883 19.7062 22.2821 19.322C22.5759 18.9379 22.7228 18.4181 22.7228 17.7627V6.71186Z" fill="white"/>
<path d="M36.7544 6.10169C37.3646 6.10169 37.8391 6.21469 38.1781 6.44068C38.3589 6.55367 38.4267 6.72316 38.3815 6.94915L37.7375 10.9153C37.7149 11.1638 37.5567 11.2542 37.2629 11.1864C37.0143 11.096 36.7092 11.0508 36.3476 11.0508C36.0086 11.0508 35.7149 11.096 35.4663 11.1864C34.9465 11.2768 34.5284 11.5932 34.212 12.1356C33.8956 12.6554 33.7375 13.2655 33.7375 13.9661V23.2881C33.7375 23.4011 33.6923 23.5028 33.6019 23.5932C33.5341 23.661 33.4437 23.6949 33.3307 23.6949H29.3646C29.2516 23.6949 29.1499 23.661 29.0595 23.5932C28.9917 23.5028 28.9578 23.4011 28.9578 23.2881V6.71186C28.9578 6.59887 28.9917 6.50847 29.0595 6.44068C29.1499 6.35028 29.2516 6.30509 29.3646 6.30509H33.3307C33.4437 6.30509 33.5341 6.35028 33.6019 6.44068C33.6923 6.50847 33.7375 6.59887 33.7375 6.71186V8.0339C33.7375 8.12429 33.7488 8.18079 33.7714 8.20339C33.8165 8.20339 33.8617 8.16949 33.9069 8.1017C34.5171 6.76836 35.4663 6.10169 36.7544 6.10169Z" fill="white"/>
<path d="M46.8522 6.0339C48.3889 6.0339 49.5528 6.53107 50.3437 7.52542C51.1573 8.49717 51.5641 9.8983 51.5641 11.7288V18.3051C51.5641 20.0904 51.1686 21.4915 50.3776 22.5085C49.5867 23.5028 48.4115 24 46.8522 24C45.5867 24 44.5697 23.5706 43.8014 22.7119C43.7562 22.6667 43.711 22.6554 43.6658 22.678C43.6206 22.678 43.598 22.7119 43.598 22.7797V23.322C43.598 23.435 43.5528 23.5367 43.4624 23.6271C43.3946 23.6949 43.3042 23.7288 43.1912 23.7288H39.2251C39.1121 23.7288 39.0104 23.6949 38.92 23.6271C38.8522 23.5367 38.8183 23.435 38.8183 23.322V0.40678C38.8183 0.293786 38.8522 0.203391 38.92 0.135593C39.0104 0.0451978 39.1121 0 39.2251 0H43.1912C43.3042 0 43.3946 0.0451978 43.4624 0.135593C43.5528 0.203391 43.598 0.293786 43.598 0.40678V7.28814C43.598 7.33333 43.6206 7.35593 43.6658 7.35593C43.7562 7.35593 43.8466 7.29944 43.937 7.18644C44.7053 6.41808 45.6771 6.0339 46.8522 6.0339ZM46.7844 12.0678C46.7844 11.5028 46.6375 11.0395 46.3437 10.678C46.05 10.3164 45.6658 10.1356 45.1912 10.1356C44.7844 10.1356 44.4341 10.2712 44.1403 10.5424C43.8466 10.8136 43.6658 11.1751 43.598 11.6271V18.4068C43.6658 18.8588 43.8466 19.2203 44.1403 19.4915C44.4341 19.7627 44.7844 19.8983 45.1912 19.8983C45.6658 19.8983 46.05 19.7175 46.3437 19.3559C46.6375 18.9943 46.7844 18.5311 46.7844 17.9661V12.0678Z" fill="white"/>
<path d="M58.9871 24C56.9758 24 55.3939 23.4915 54.2413 22.4746C53.1114 21.4576 52.5464 20.0678 52.5464 18.3051V11.7288C52.5464 10.0113 53.1227 8.63277 54.2752 7.59322C55.4278 6.55367 56.9984 6.0339 58.9871 6.0339C60.9984 6.0339 62.5803 6.55367 63.7329 7.59322C64.8854 8.63277 65.4617 10.0113 65.4617 11.7288V18.3051C65.4617 20.0678 64.8854 21.4576 63.7329 22.4746C62.6029 23.4915 61.021 24 58.9871 24ZM58.9871 19.8644C59.4843 19.8644 59.8911 19.6836 60.2074 19.322C60.5238 18.9604 60.682 18.4972 60.682 17.9322V12.0678C60.682 11.5028 60.5238 11.0395 60.2074 10.678C59.8911 10.3164 59.4843 10.1356 58.9871 10.1356C58.4899 10.1356 58.0831 10.3164 57.7668 10.678C57.473 11.0395 57.3261 11.5028 57.3261 12.0678V17.9322C57.3261 18.4972 57.473 18.9604 57.7668 19.322C58.0831 19.6836 58.4899 19.8644 58.9871 19.8644Z" fill="white"/>
<path d="M69.059 23.8644C68.2906 23.8644 67.6465 23.6158 67.1267 23.1186C66.6296 22.5989 66.381 21.9548 66.381 21.1864C66.381 20.3955 66.6296 19.7514 67.1267 19.2542C67.6239 18.7571 68.268 18.5085 69.059 18.5085C69.8499 18.5085 70.494 18.7571 70.9912 19.2542C71.4883 19.7514 71.7369 20.3955 71.7369 21.1864C71.7369 21.9548 71.477 22.5989 70.9573 23.1186C70.4601 23.6158 69.8273 23.8644 69.059 23.8644Z" fill="white"/>
<path d="M79.2733 6.0339C81.1942 6.0339 82.7535 6.55367 83.9513 7.59322C85.149 8.63277 85.7479 10 85.7479 11.6949V23.322C85.7479 23.435 85.7027 23.5367 85.6123 23.6271C85.5445 23.6949 85.4541 23.7288 85.3411 23.7288H81.375C81.262 23.7288 81.1603 23.6949 81.0699 23.6271C81.0021 23.5367 80.9682 23.435 80.9682 23.322V22.5763C80.9682 22.5085 80.9456 22.4633 80.9004 22.4407C80.8552 22.4181 80.81 22.4407 80.7648 22.5085C80.0191 23.4576 78.8665 23.9548 77.3072 24C75.9965 24 74.8552 23.6384 73.8835 22.9153C72.9343 22.1921 72.4597 20.8136 72.4597 18.7797C72.4597 16.678 73.036 15.2316 74.1885 14.4407C75.3637 13.6497 77.0473 13.2542 79.2394 13.2542H80.7987C80.9117 13.2542 80.9682 13.1977 80.9682 13.0847V12.2373C80.9682 11.6271 80.7987 11.1299 80.4597 10.7458C80.1433 10.339 79.7366 10.1356 79.2394 10.1356C78.8552 10.1356 78.5275 10.2599 78.2563 10.5085C78.0078 10.7345 77.8496 11.0621 77.7818 11.4915C77.7592 11.7627 77.6123 11.8983 77.3411 11.8983L73.2733 11.8644C73.0021 11.8644 72.8665 11.7288 72.8665 11.4576C72.9795 9.80791 73.6236 8.49717 74.7987 7.52542C75.9739 6.53107 77.4654 6.0339 79.2733 6.0339ZM78.9343 20.3051C79.4541 20.3051 79.9174 20.1356 80.3241 19.7966C80.7535 19.435 80.9682 18.9605 80.9682 18.3729V16.7797C80.9682 16.6667 80.9117 16.6102 80.7987 16.6102H79.4089C78.7987 16.6102 78.3015 16.791 77.9174 17.1525C77.5558 17.4915 77.375 17.9661 77.375 18.5763C77.375 19.1412 77.5106 19.5706 77.7818 19.8644C78.0755 20.1582 78.4597 20.3051 78.9343 20.3051Z" fill="white"/>
<path d="M86.6955 23.7288C86.5825 23.7288 86.4808 23.6949 86.3904 23.6271C86.3226 23.5367 86.2887 23.435 86.2887 23.322V19.661C86.2887 19.4802 86.3339 19.3107 86.4243 19.1525L91.7125 10.8136C91.7803 10.678 91.7464 10.6102 91.6108 10.6102H86.8989C86.7859 10.6102 86.6842 10.5763 86.5938 10.5085C86.526 10.4181 86.4921 10.3164 86.4921 10.2034V6.71186C86.4921 6.59887 86.526 6.50847 86.5938 6.44068C86.6842 6.35028 86.7859 6.30509 86.8989 6.30509H97.1023C97.2153 6.30509 97.3057 6.35028 97.3735 6.44068C97.4639 6.50847 97.5091 6.59887 97.5091 6.71186V10.339C97.5091 10.5198 97.4639 10.6893 97.3735 10.8475L91.882 19.1864C91.8142 19.322 91.8481 19.3898 91.9837 19.3898H97.3057C97.4187 19.3898 97.5091 19.435 97.5769 19.5254C97.6673 19.5932 97.7125 19.6836 97.7125 19.7966V23.322C97.7125 23.435 97.6673 23.5367 97.5769 23.6271C97.5091 23.6949 97.4187 23.7288 97.3057 23.7288H86.6955Z" fill="white"/>
</svg>
