<svg width="78" height="28" viewBox="0 0 78 28" fill="none" xmlns="http://www.w3.org/2000/svg">
<path d="M75.0954 11.8908C76.3451 11.871 77.218 11.4742 77.4362 10.3038C77.5552 9.60952 77.1585 9.15326 76.3451 9.11358C76.3451 9.11358 74.0241 8.99456 71.3659 8.87554C71.3659 8.87554 67.3984 8.71684 66.2875 8.697C65.2957 8.67716 64.3435 8.65732 63.669 8.67716C63.054 8.697 62.7565 9.0144 62.6176 9.51033C62.4986 10.0261 62.3796 10.7601 62.3399 11.5139C62.3002 12.0892 62.935 12.3669 63.5698 12.3272C63.5698 12.3272 64.3633 12.2876 65.5932 12.2281C67.0017 12.1685 70.8105 12.0098 70.8105 12.0098C72.1793 11.9702 73.6671 11.9305 75.0954 11.8908Z" fill="white"/>
<path d="M71.3656 8.87673C71.3656 8.87673 71.9012 5.92096 72.179 4.71087C72.3178 4.11575 72.0004 3.54047 71.2466 3.34209C70.5126 3.16356 68.8066 3.14372 68.2313 3.22307C67.7552 3.28258 67.299 3.5603 67.1799 4.05624C66.9022 5.28616 66.6245 6.77396 66.2872 8.69819C66.1087 9.57104 65.7715 11.158 65.6128 12.2491C65.3747 13.3401 64.9383 16.2364 64.7598 18.0416C64.5217 20.2039 64.4027 21.4735 64.5416 23.3382C64.978 26.6907 66.7237 28 69.5604 28C72.179 28 74.6785 26.3535 76.4638 23.358C76.8209 22.7629 77.0788 22.2471 76.8606 21.9893C76.3448 21.3941 75.3529 21.0966 75.0951 21.5727C73.9247 23.7151 72.6551 24.588 71.2863 24.588C70.1952 24.588 69.3224 23.9333 69.3224 22.0686C69.3224 19.3509 70.8499 12.0309 70.8499 12.0309C71.0284 11.1977 71.2466 10.0471 71.3656 8.87673Z" fill="white"/>
<path d="M65.6085 12.2289C65.3705 13.3199 64.9142 16.2162 64.7555 18.0214C63.6446 21.7905 61.3236 24.5479 59.3201 24.5479C58.0901 24.5479 57.3562 23.8139 57.3562 21.612C57.3562 18.557 58.0505 14.6887 59.082 10.8204C59.7763 7.26953 60.5103 3.79798 60.6888 1.91343C60.7484 1.25879 61.1649 0.346273 60.3714 0.187574C58.9431 -0.0901498 57.5942 -0.0504744 56.642 0.247087C55.789 0.504973 55.6303 1.39766 55.5113 1.87375C55.0153 4.15506 54.2218 8.20189 53.6664 11.7528C53.4879 12.9629 53.1903 14.4507 52.9324 15.9186C52.9324 15.9186 52.1389 19.9655 52.1389 22.346C52.1389 25.9564 53.6862 27.96 57.3165 27.96C60.3119 27.96 62.9106 25.8572 64.5373 23.2982C66.0648 20.7391 68.4056 12.1297 68.4056 12.1297C69.7545 12.1099 64.3786 12.2884 65.6085 12.2289Z" fill="white"/>
<path d="M69.1044 8.85621C69.1044 8.85621 69.2234 5.90044 69.5011 4.71019C69.64 4.11507 68.787 3.16288 68.2117 3.22239C67.7356 3.2819 67.2793 3.55962 67.1603 4.05556C66.8826 5.28548 66.2676 8.69751 66.2676 8.69751L65.5931 12.2484C65.5931 12.2484 64.8988 16.2357 64.7401 18.0409C63.6292 21.81 61.3083 24.5674 59.3047 24.5674C58.0748 24.5674 57.3408 23.8335 57.3408 21.6315C57.3408 18.5765 52.1235 20.0048 52.1235 22.3655C52.1235 25.9759 53.6709 27.9795 57.3011 27.9795C60.2965 27.9795 62.8953 25.8767 64.5219 23.3177C67.0214 18.6162 68.4497 12.4071 68.4497 12.4071L69.1044 8.85621Z" fill="white"/>
<path d="M57.4657 9.51183C58.9138 6.04029 57.5847 -0.0101268 56.6523 0.287434C55.7993 0.545321 56.4738 6.23866 56.3746 6.71476C55.8787 8.99606 55.5613 9.1746 53.6767 11.7931C52.427 13.3008 50.9987 14.3522 49.4513 14.6299C45.1069 15.0861 44.4523 13.0826 46.079 10.2855C48.6182 5.90142 45.2656 7.4289 43.5993 10.3053C43.1034 11.1782 42.9645 12.1899 42.9248 13.1818C42.8852 14.4315 43.0835 15.9987 44.7102 17.1691C46.4757 18.4188 47.8842 18.1808 49.1935 17.9229C50.6218 17.6253 51.8517 16.9509 52.9229 15.9788C52.9427 15.959 56.454 13.3801 57.4657 9.51183Z" fill="white"/>
<path d="M59.0828 10.8614C60.5309 7.3899 61.3641 3.5216 61.3641 1.77591C61.3641 1.12127 61.1657 0.387289 60.3722 0.22859C58.9439 -0.0491342 57.595 -0.00945876 56.6428 0.288102C55.7898 0.545989 56.8412 2.01396 56.742 2.49006C56.2461 4.77136 58.0513 14.7297 59.0828 10.8614Z" fill="white"/>
<path d="M39.8085 25.0825C38.281 25.0825 37.2693 23.7733 37.2693 21.1746C37.2693 16.1755 39.0547 10.8194 42.2287 10.8194C42.5857 10.8194 42.9031 10.8591 43.1809 10.9781C44.1926 11.3352 44.867 14.8067 44.5298 17.0484C43.8553 21.4324 41.9113 25.0825 39.8085 25.0825ZM49.4495 14.6282C49.2114 9.92674 46.4739 7.90332 42.7048 7.90332C36.0989 7.90332 31.8735 13.795 31.8735 20.4009C31.8735 25.757 34.7896 27.9986 39.0547 27.9986C44.0735 27.9986 47.8228 24.4279 49.2114 17.9014C49.4098 16.731 49.4495 15.9176 49.4495 14.6282Z" fill="white"/>
<path d="M29.4288 0.0385742C28.556 0.0385742 27.7625 0.0782509 27.3856 0.117926C26.6119 0.197275 26.354 0.931259 26.4136 1.64541C27.2269 12.06 24.9258 24.1807 22.327 24.1807C20.383 24.1807 19.8474 18.527 19.8474 13.4883C19.8474 10.5127 20.0259 7.6363 20.0854 5.11695C20.1053 4.1846 19.768 4.00606 19.0935 3.92671C18.062 3.80768 17.328 3.80768 16.2965 4.0259C15.5228 4.20443 15.3244 4.83923 14.5111 6.78329C10.4246 16.5036 6.47695 24.3196 6.47695 24.3196C5.42557 16.4838 6.77452 8.88606 7.90525 3.35142C8.06395 2.5976 7.70687 2.14134 7.07208 2.14134C5.88183 2.16118 4.07663 2.20085 3.2633 2.73646C2.48964 3.2324 2.21191 3.76801 1.9937 4.8789C0.724108 11.2269 -0.0892267 19.1817 1.18037 25.3511C1.45809 26.6802 1.75565 26.9976 2.33094 27.3349C2.88638 27.6919 5.30655 27.9895 6.23891 27.9895C7.31013 27.9895 8.28216 27.7118 9.07566 26.3231C10.7817 23.3872 12.1703 20.4513 14.7492 14.7976C15.007 22.1573 16.0584 27.93 21.236 27.93C28.0997 27.93 32.5235 10.8103 32.5235 2.55793C32.5235 0.395647 31.4324 0.0385742 29.4288 0.0385742Z" fill="white"/>
</svg>
