<svg width="68" height="22" viewBox="0 0 68 22" fill="none" xmlns="http://www.w3.org/2000/svg">
<g clip-path="url(#clip0_2419_7469)">
<path d="M7.42597 7.93985L7.78418 0.41748H3.12747L3.06777 14.0593L0.560303 21.6115H5.27671L7.66476 14.4175L16.7991 0.41748H11.5155L7.42597 7.93985Z" fill="white"/>
<path d="M7.10376 21.6115H11.9097L13.7008 17.7906H17.5216L16.8351 21.6115H21.3724L24.447 0.41748H18.0888L7.10376 21.6115ZM19.7604 4.95481L18.2082 13.7906H15.6112L19.7604 4.95481Z" fill="white"/>
<path d="M33.3934 12.5369L33.9904 0.41748H28.8561L21.8113 21.6115H26.1396L30.3486 8.9548L29.6919 21.6115H34.7068L41.7516 0.41748H37.4232L33.3934 12.5369Z" fill="white"/>
<path d="M48.1593 3.79104C48.9056 3.79104 49.2043 4.53732 49.2642 7.0448L53.4728 5.61194C53.5027 2.44776 51.9504 0 48.6372 0C44.3983 0 41.6222 3.73135 39.3237 10.388C37.0252 17.0448 38.3983 21.9702 41.9804 21.9702C43.4132 21.9702 44.3087 21.403 45.3235 20.1194L45.0551 21.6119H48.4282L52.4282 9.61193H45.9804L44.667 13.6119H46.9357L46.8459 13.8806C46.1894 15.8806 44.9953 18.1493 43.7416 18.1493C42.3983 18.1493 42.2789 16.3284 44.0699 10.9552C45.8608 5.5821 46.816 3.79104 48.1593 3.79104Z" fill="white"/>
<path d="M56.8466 21.9994C60.5479 21.9994 63.6525 18.6263 65.9211 11.8204C68.0402 5.49197 67.8316 0.0292969 62.1596 0.0292969C58.4583 0.0292969 55.3836 3.40243 53.085 10.2084C50.9361 16.5666 51.1745 21.9994 56.8466 21.9994ZM57.2941 18.2084C55.5033 18.2084 56.6671 14.4174 57.8313 10.8054C59.6225 5.25318 60.6671 3.82034 61.7121 3.82034C63.5029 3.82034 62.3391 7.6114 61.1749 11.2233C59.3836 16.7755 58.3391 18.2084 57.2941 18.2084Z" fill="white"/>
</g>
<defs>
<clipPath id="clip0_2419_7469">
<rect width="66.88" height="22" fill="white" transform="translate(0.560059)"/>
</clipPath>
</defs>
</svg>
