<svg width="32" height="32" viewBox="0 0 32 32" fill="none" xmlns="http://www.w3.org/2000/svg">
<path fill-rule="evenodd" clip-rule="evenodd" d="M15.9998 29.3332C23.3636 29.3332 29.3332 23.3636 29.3332 15.9998C29.3332 8.63604 23.3636 2.6665 15.9998 2.6665C8.63604 2.6665 2.6665 8.63604 2.6665 15.9998C2.6665 18.1327 3.16733 20.1487 4.05779 21.9365C4.29442 22.4116 4.37318 22.9546 4.236 23.4673L3.44185 26.4354C3.09711 27.7238 4.27586 28.9026 5.5643 28.5578L8.53235 27.7637C9.04508 27.6265 9.58811 27.7053 10.0632 27.9419C11.851 28.8323 13.8669 29.3332 15.9998 29.3332ZM10.6665 17.6665C10.1142 17.6665 9.6665 18.1142 9.6665 18.6665C9.6665 19.2188 10.1142 19.6665 10.6665 19.6665H17.9998C18.5521 19.6665 18.9998 19.2188 18.9998 18.6665C18.9998 18.1142 18.5521 17.6665 17.9998 17.6665H10.6665ZM9.6665 13.9998C9.6665 13.4476 10.1142 12.9998 10.6665 12.9998H21.3332C21.8855 12.9998 22.3332 13.4476 22.3332 13.9998C22.3332 14.5521 21.8855 14.9998 21.3332 14.9998H10.6665C10.1142 14.9998 9.6665 14.5521 9.6665 13.9998Z" fill="white"/>
</svg>
