<svg width="20" height="20" viewBox="0 0 20 20" fill="none" xmlns="http://www.w3.org/2000/svg">
<g clip-path="url(#clip0_2347_2707)">
<path d="M1.76121 4.33398C1.11634 5.26997 0.626264 6.32094 0.329102 7.45052H4.87791L1.76121 4.33398Z" fill="#29337A"/>
<path d="M7.19986 0.400391C6.04769 0.735934 4.98064 1.27136 4.04102 1.96972L7.19986 5.12856V0.400391Z" fill="#29337A"/>
<path d="M4.27539 18.1974C5.15675 18.8141 6.14142 19.2916 7.19931 19.5996V15.2739L4.27539 18.1974Z" fill="#29337A"/>
<path d="M0.444336 12.9526C0.774981 14.0237 1.28165 15.0173 1.92918 15.9012L4.87771 12.9526H0.444336Z" fill="#29337A"/>
<path d="M1.92608 4.10205C1.87017 4.17847 1.81507 4.25599 1.76107 4.33432L4.87777 7.45085H0.328965C0.255244 7.73142 0.195077 8.01739 0.145508 8.30729H6.13166L1.92608 4.10205Z" fill="white"/>
<path d="M4.04395 18.0322C4.12003 18.0889 4.19823 18.1428 4.27587 18.1972L7.19979 15.2736V19.5993C7.4807 19.6814 7.76599 19.7523 8.05623 19.8093V14.02L4.04395 18.0322Z" fill="white"/>
<path d="M0.22168 12.0962C0.283747 12.3864 0.357003 12.6722 0.443686 12.9526H4.8771L1.92857 15.9012C2.24925 16.3393 2.60485 16.7505 2.99123 17.1307L8.02568 12.0962H0.22168Z" fill="white"/>
<path d="M7.1999 0.400445V5.12861L4.04102 1.96994C3.60553 2.29379 3.19846 2.65332 2.82129 3.04252L8.05617 8.27741V0.19043C7.76611 0.247768 7.48081 0.318829 7.1999 0.400445Z" fill="white"/>
<path d="M7.19897 12.9224L7.16895 12.9526H7.19897V12.9224Z" fill="#D32030"/>
<path d="M8.02539 12.0961H8.05537V12.0659L8.02539 12.0961Z" fill="#D32030"/>
<path d="M11.8736 8.30664H11.8447V8.33569L11.8736 8.30664Z" fill="#D32030"/>
<path d="M7.22873 7.45058L7.19922 7.4209V7.45058H7.22873Z" fill="#D32030"/>
<path d="M8.05566 8.27734V8.3069H8.08522L8.05566 8.27734Z" fill="#D32030"/>
<path d="M12.7021 17.3858V19.6275C13.7738 19.3275 14.773 18.8546 15.6666 18.2385L13.2377 15.8096C13.0436 16.4915 12.9726 16.8441 12.7021 17.3858Z" fill="#29337A"/>
<path d="M13.2505 4.58017L15.9021 1.92863C14.9495 1.23103 13.8688 0.699404 12.7021 0.372559V2.67529C13.014 3.29977 13.0402 3.77426 13.2505 4.58017Z" fill="#29337A"/>
<path d="M18.0312 15.9594C18.699 15.0611 19.2194 14.0472 19.5574 12.9526H15.0244L18.0312 15.9594Z" fill="#29337A"/>
<path d="M19.6721 7.45068C19.3686 6.29724 18.8638 5.22656 18.1986 4.27588L15.0234 7.45068H19.6721Z" fill="#29337A"/>
<path d="M13.834 12.266L14.5212 12.9531L17.8104 16.2424C17.8851 16.1489 17.9593 16.0558 18.0307 15.9599L15.0239 12.9531H19.5569C19.6433 12.6728 19.7167 12.3869 19.7786 12.0967H13.8982C13.8886 12.2181 13.8455 12.1453 13.834 12.266Z" fill="white"/>
<path d="M13.1454 5.08173L16.1266 2.10018C16.0519 2.04225 15.9771 1.98461 15.9008 1.92871L13.2493 4.58025C13.2768 4.68509 13.1198 4.97435 13.1454 5.08173Z" fill="#E7E7E7"/>
<path d="M12.7012 2.49108V0.372438C12.4206 0.293819 12.135 0.227192 11.8447 0.172852V1.20629C12.1634 1.55176 12.449 1.98568 12.7012 2.49108Z" fill="white"/>
<path d="M13.766 8.30706H19.8543C19.8048 8.01716 19.7446 7.73135 19.6708 7.45062H15.0222L18.1973 4.27581C17.8852 3.8299 17.5383 3.41055 17.1593 3.02197L13.583 6.59797C13.6793 7.24664 13.7224 7.62335 13.766 8.30706Z" fill="white"/>
<path d="M13.0928 15.665L15.6663 18.2389C16.0944 17.9441 16.4975 17.616 16.8736 17.2598L13.4885 13.8745C13.3804 14.5006 13.2522 15.1053 13.0928 15.665Z" fill="white"/>
<path d="M11.8447 18.6756V19.8275C12.1349 19.7735 12.4204 19.7065 12.7012 19.6279V17.3862C12.4488 17.8918 12.1632 18.3306 11.8447 18.6756Z" fill="white"/>
<path d="M13.5835 6.5979L17.1595 3.0219C16.8375 2.69126 16.4924 2.38354 16.1273 2.1001L13.3174 4.91048C13.4423 5.43247 13.499 6.02997 13.5835 6.5979Z" fill="#E51D35"/>
<path d="M9.50098 0.012329C9.66759 0.00426448 9.83369 0 9.99992 0C9.83272 0 9.66632 0.00426448 9.50098 0.012329Z" fill="#E51D35"/>
<path d="M9.99963 19.9999C9.83335 19.9999 9.66725 19.9954 9.50098 19.9873C9.66632 19.9957 9.83242 19.9999 9.99963 19.9999Z" fill="#E51D35"/>
<path d="M10 20.0002C10.6309 20.0002 11.247 19.9391 11.8455 19.8271V18.6753C11.3202 19.2447 10.7057 20.0002 10 20.0002Z" fill="#E51D35"/>
<path d="M19.8543 8.30664H13.8452C13.9247 9.56082 13.9151 10.8505 13.8164 12.0961H19.7782C19.9226 11.4198 19.9999 10.7191 19.9999 10.0001C19.9999 9.42246 19.9484 8.85752 19.8543 8.30664Z" fill="#E51D35"/>
<path d="M13.8337 12.2656C13.7782 12.8565 13.5846 13.3169 13.4883 13.8743L16.8734 17.2594C17.2083 16.942 17.5214 16.6025 17.81 16.2421L14.5209 12.9526L13.8337 12.2656Z" fill="#E51D35"/>
<path d="M11.8455 1.28036V0.172733C11.2473 0.0610961 10.6311 0 10 0C10.7057 0 11.3202 0.711155 11.8455 1.28036Z" fill="#E51D35"/>
<path d="M12.7021 17.8186C12.9726 17.2767 13.2046 16.6529 13.3988 15.971L12.7021 15.2744V17.8186Z" fill="#29337A"/>
<path d="M13.4855 4.34515C13.2748 3.53925 13.014 2.8066 12.7021 2.18213V5.12813L13.4855 4.34515Z" fill="#29337A"/>
<path d="M14.0274 12.4595C14.0387 12.3389 14.049 12.2178 14.0588 12.0962H13.6641L14.0274 12.4595Z" fill="white"/>
<path d="M12.7012 5.12793V2.18176C12.4488 1.67636 12.1634 1.24214 11.8447 0.896973V6.38194L13.5647 4.662C13.5388 4.55463 13.5116 4.44946 13.4844 4.34462L12.7012 5.12793Z" fill="white"/>
<path d="M11.874 8.30657H14.0877C14.0443 7.6229 13.9751 6.95025 13.879 6.30176L11.874 8.30657Z" fill="white"/>
<path d="M11.8447 19.1027C12.1634 18.7573 12.4488 18.3233 12.7012 17.8179V15.2738L13.3978 15.9704C13.5576 15.4104 13.6916 14.8121 13.8 14.186L11.8448 12.231L11.8447 19.1027Z" fill="white"/>
<path d="M11.8453 19.1029V12.2311L13.8004 14.1863C13.8966 13.6287 13.9722 13.0505 14.0276 12.4596L13.6643 12.0962H14.059C14.1577 10.8506 14.1673 9.56088 14.0878 8.30675H11.8741L13.8789 6.30193C13.7944 5.73383 13.6899 5.18434 13.565 4.66218L11.8454 6.38211V0.897146C11.32 0.327774 10.7055 0 9.99983 0C9.83356 0 9.66746 0.00426448 9.50089 0.012329C9.00904 0.0369448 8.52669 0.0974498 8.05582 0.190297V8.27723L2.82081 3.04235C2.49916 3.37426 2.19997 3.72792 1.92615 4.10167L5.27495 7.45047L6.13169 8.30692H0.145584C0.0518071 8.85763 0 9.42256 0 10.0002C0 10.7194 0.0776896 11.4199 0.221669 12.0962H8.02584L2.99135 17.1307C3.32102 17.4546 3.67202 17.7562 4.04357 18.0321L8.05569 14.02V19.8094C8.52652 19.9023 9.00921 19.9627 9.50106 19.9874C9.66733 19.9954 9.83343 20 9.99971 20C10.7055 20 11.32 19.6722 11.8453 19.1029Z" fill="#E51D35"/>
</g>
<defs>
<clipPath id="clip0_2347_2707">
<rect width="20" height="20" fill="white"/>
</clipPath>
</defs>
</svg>
