<svg width="157" height="40" viewBox="0 0 157 40" fill="none" xmlns="http://www.w3.org/2000/svg">
<path d="M63.3963 11.6822C63.2105 11.4615 62.7592 11.3379 62.0335 11.3379H61.3433C60.8238 11.2949 60.304 11.4153 59.8566 11.6822C59.4986 12.0773 59.2648 12.5685 59.1841 13.095L57.0779 22.6756C57.0085 23.0552 56.8542 23.4144 56.6266 23.7264C56.5338 23.8242 56.4209 23.9008 56.2957 23.9511C56.1705 24.0014 56.0358 24.0242 55.901 24.0178C55.5486 24.0435 55.1974 23.9536 54.901 23.7617C54.643 23.4504 54.4747 23.075 54.4143 22.6756L52.3082 13.095C52.2305 12.5641 51.9893 12.0703 51.618 11.6822C51.1763 11.4173 50.6626 11.2969 50.149 11.3379H49.4145C48.6888 11.3379 48.2552 11.4615 48.0694 11.6822C47.8701 12.1288 47.851 12.6348 48.0163 13.095L50.3348 23.1436C50.5104 23.9729 50.7744 24.781 51.1224 25.5542C51.2896 25.941 51.5133 26.3011 51.7861 26.6226C52.1431 26.9719 52.5714 27.2402 53.0417 27.4094C53.5121 27.5785 54.0134 27.6445 54.5117 27.6028C54.9524 27.6262 55.3942 27.5815 55.8214 27.4703C55.6425 28.3078 55.2137 29.0715 54.5913 29.661C53.9689 30.2505 53.1822 30.6381 52.3347 30.7727C51.872 30.8163 51.441 31.0266 51.1224 31.3643C50.9384 31.8174 50.9384 32.3241 51.1224 32.7771V32.9273C51.16 33.4397 51.3688 33.9247 51.7153 34.3047C52.2048 34.4886 52.7388 34.5194 53.2462 34.393C54.9139 34.1891 56.4683 33.4446 57.6708 32.2738C58.938 30.8495 59.7809 29.1001 60.1044 27.2231L60.4849 25.5542L63.3521 13.095C63.5532 12.6484 63.5691 12.1405 63.3963 11.6822Z" fill="#F2F2F2"/>
<path d="M65.1836 25.439V13.1211C65.1188 12.617 65.2451 12.1068 65.5375 11.6907C65.9536 11.404 66.4601 11.2785 66.9623 11.3375H67.5375C67.7832 11.2651 68.0439 11.2602 68.2922 11.3232C68.5405 11.3862 68.7672 11.5149 68.9484 11.6957C69.1295 11.8765 69.2585 12.1026 69.3217 12.3504C69.3848 12.5981 69.3799 12.8583 69.3073 13.1035V25.4214C69.3831 25.6668 69.3903 25.9283 69.3283 26.1775C69.2663 26.4268 69.1373 26.6545 68.9553 26.8361C68.7733 27.0178 68.5451 27.1464 68.2953 27.2083C68.0455 27.2702 67.7835 27.263 67.5375 27.1874H66.9623C66.4613 27.2481 65.9552 27.1258 65.5375 26.843C65.253 26.4333 65.1272 25.9344 65.1836 25.439Z" fill="#F2F2F2"/>
<path d="M88.2716 25.4395V13.1216C88.2101 12.6189 88.3327 12.1109 88.6167 11.6912C89.0368 11.4061 89.5454 11.2808 90.0503 11.338H90.6255C91.1303 11.2808 91.6389 11.4061 92.0591 11.6912C92.3431 12.1109 92.4656 12.6189 92.4042 13.1216V25.4395C92.4799 25.685 92.4872 25.9464 92.4252 26.1957C92.3631 26.445 92.2342 26.6727 92.0522 26.8543C91.8702 27.0359 91.642 27.1646 91.3921 27.2265C91.1423 27.2883 90.8803 27.2811 90.6343 27.2055H90.0591C89.8131 27.2811 89.5511 27.2883 89.3013 27.2265C89.0515 27.1646 88.8233 27.0359 88.6413 26.8543C88.4592 26.6727 88.3303 26.445 88.2683 26.1957C88.2063 25.9464 88.2135 25.685 88.2893 25.4395H88.2716Z" fill="#F2F2F2"/>
<path d="M98.9704 17.3772V25.439C99.0334 25.9431 98.9073 26.4526 98.6164 26.8694C98.1988 27.1522 97.6927 27.2746 97.1917 27.2138H96.5811C96.3351 27.2894 96.0731 27.2966 95.8233 27.2348C95.5734 27.1729 95.3453 27.0442 95.1632 26.8626C94.9812 26.681 94.8523 26.4533 94.7903 26.204C94.7282 25.9547 94.7355 25.6933 94.8112 25.4478V17.3772C94.7535 16.5073 94.8761 15.6349 95.1715 14.8145C95.4669 13.9941 95.9287 13.2433 96.528 12.609C97.9469 11.4238 99.7702 10.8322 101.616 10.9577C103.846 10.9577 105.413 11.6377 106.333 12.9886C107.306 11.6406 108.864 10.9636 111.005 10.9577C113.294 10.9577 114.993 11.4875 116.103 12.5471C117.212 13.6067 117.76 15.2168 117.749 17.3772V25.439C117.824 25.6845 117.832 25.9459 117.77 26.1952C117.707 26.4444 117.579 26.6721 117.397 26.8537C117.215 27.0354 116.986 27.164 116.737 27.2259C116.487 27.2878 116.225 27.2806 115.979 27.205H115.377C115.131 27.2806 114.869 27.2878 114.619 27.2259C114.369 27.164 114.141 27.0354 113.959 26.8537C113.777 26.6721 113.648 26.4444 113.586 26.1952C113.524 25.9459 113.531 25.6845 113.607 25.439V17.3772C113.686 16.676 113.493 15.9712 113.067 15.4081C112.481 14.9783 111.754 14.7858 111.032 14.8694C110.273 14.7814 109.509 14.973 108.882 15.4081C108.448 15.9679 108.251 16.6745 108.333 17.3772V25.439C108.409 25.6845 108.416 25.9459 108.354 26.1952C108.292 26.4444 108.163 26.6721 107.981 26.8537C107.799 27.0354 107.571 27.164 107.321 27.2259C107.071 27.2878 106.809 27.2806 106.563 27.205H106.085C105.839 27.2806 105.577 27.2878 105.327 27.2259C105.078 27.164 104.849 27.0354 104.667 26.8537C104.485 26.6721 104.356 26.4444 104.294 26.1952C104.232 25.9459 104.24 25.6845 104.315 25.439V17.3772C104.395 16.6733 104.195 15.9661 103.758 15.4081C103.152 14.9771 102.408 14.7853 101.669 14.8694C100.937 14.7911 100.201 14.9895 99.6075 15.4257C99.3766 15.6924 99.2013 16.0023 99.0919 16.3374C98.9825 16.6725 98.9412 17.026 98.9704 17.3772Z" fill="#F2F2F2"/>
<path d="M85.9085 16.7417C85.9193 15.9031 85.7217 15.0749 85.3333 14.3311C84.0856 12.0618 81.2892 10.9757 78.7583 10.9668C76.2274 10.958 73.5107 12.0618 72.263 14.3311C71.8719 15.0742 71.6713 15.9024 71.6789 16.7417V21.8808C71.6789 25.7925 74.0328 27.7704 78.8291 27.7792C79.6072 27.7784 80.3835 27.7045 81.1476 27.5585C80.9115 28.5942 80.2755 29.4953 79.3778 30.0662C79.1824 30.2144 78.9681 30.3361 78.7406 30.4282C78.3962 30.5785 78.0374 30.6938 77.6699 30.7726C77.2059 30.8185 76.7747 31.032 76.4575 31.373C76.2735 31.8261 76.2735 32.3328 76.4575 32.7858V32.9271C76.4931 33.44 76.7021 33.9257 77.0504 34.3046C77.5379 34.4979 78.0748 34.5289 78.5814 34.3929C79.6421 34.258 80.6651 33.9127 81.5901 33.3774C82.118 33.0792 82.6007 32.7076 83.0237 32.2737C85.121 30.1192 85.7758 27.0905 85.8112 24.1854C85.8112 23.4172 85.8112 22.649 85.8112 21.8808L85.9085 16.7417ZM75.8381 21.8808V16.7417C75.8121 16.4288 75.8612 16.1143 75.9812 15.8241C76.1013 15.5339 76.2888 15.2764 76.5283 15.0728C77.2095 14.6645 78.0017 14.4792 78.7937 14.543C79.5885 14.4809 80.383 14.666 81.068 15.0728C81.3075 15.2764 81.495 15.5339 81.6151 15.8241C81.7351 16.1143 81.7842 16.4288 81.7582 16.7417V21.8808C81.788 22.2068 81.7428 22.5352 81.6263 22.8412C81.5098 23.1472 81.3249 23.4227 81.0857 23.6468C80.3997 24.0676 79.5959 24.2565 78.7937 24.1854C77.9943 24.2578 77.1929 24.0687 76.5106 23.6468C76.2698 23.4239 76.0838 23.1486 75.9672 22.8423C75.8505 22.536 75.8063 22.2069 75.8381 21.8808Z" fill="#F2F2F2"/>
<path d="M82.4308 6.47292L82.36 6.37579C82.0768 5.87248 81.8025 5.61642 81.5636 5.55461C81.1875 5.54666 80.8207 5.67177 80.5282 5.9078C80.029 6.2478 79.4494 6.45174 78.8468 6.49941C78.2096 6.49082 77.5908 6.284 77.077 5.9078C76.7814 5.67115 76.4117 5.54609 76.0328 5.55461C75.7938 5.61642 75.5195 5.87248 75.2452 6.37579L75.1656 6.47292C74.8966 6.78961 74.7437 7.18822 74.7319 7.60317C74.9031 7.97585 75.1881 8.28493 75.5461 8.48617C76.2317 9.01115 77.0132 9.39803 77.8469 9.62525C78.4735 9.78871 79.1317 9.78871 79.7583 9.62525C80.592 9.39803 81.3735 9.01115 82.0591 8.48617C82.4189 8.28448 82.7066 7.9758 82.8821 7.60317C82.8634 7.18649 82.7043 6.7883 82.4308 6.47292Z" fill="#F2F2F2"/>
<g opacity="0.6">
<path d="M121.978 19.0725V14.8783C121.978 13.6156 122.642 12.9798 123.969 12.9798C124.514 12.9363 125.054 13.1074 125.474 13.4566C125.649 13.6472 125.782 13.8719 125.866 14.1166C125.95 14.3613 125.982 14.6206 125.96 14.8783V15.7613C126 16.0188 125.979 16.282 125.898 16.5299C125.818 16.7779 125.681 17.0038 125.498 17.1897C125.315 17.3756 125.092 17.5165 124.845 17.6012C124.598 17.6858 124.334 17.7119 124.076 17.6774C123.8 17.7136 123.519 17.6696 123.268 17.5505C123.017 17.4314 122.806 17.2424 122.66 17.0063V19.1078C122.674 19.1485 122.676 19.1921 122.666 19.2339C122.656 19.2757 122.635 19.3139 122.605 19.3443C122.574 19.3746 122.536 19.3958 122.494 19.4056C122.452 19.4153 122.408 19.4131 122.368 19.3992H122.27C122.187 19.407 122.103 19.3885 122.031 19.3462C122.005 19.3064 121.986 19.2617 121.977 19.2147C121.968 19.1677 121.969 19.1194 121.978 19.0725ZM125.27 15.7348V14.8518C125.304 14.5037 125.203 14.1558 124.987 13.8805C124.698 13.6557 124.334 13.5512 123.969 13.5891C123.605 13.554 123.242 13.6581 122.952 13.8805C122.731 14.1537 122.626 14.5024 122.66 14.8518V15.7348C122.626 16.0842 122.731 16.4329 122.952 16.7061C123.242 16.9284 123.605 17.0326 123.969 16.9975C124.331 17.0348 124.693 16.9303 124.978 16.7061C125.193 16.4302 125.291 16.0818 125.252 15.7348H125.27Z" fill="#F2F2F2"/>
<path d="M130.341 14.4104V16.1764C130.359 16.3817 130.328 16.5884 130.249 16.779C130.171 16.9696 130.047 17.1385 129.889 17.2713C129.454 17.5349 128.946 17.6553 128.438 17.6157C127.99 17.6447 127.544 17.5235 127.173 17.2713C127.021 17.1509 126.902 16.9954 126.825 16.8184C126.748 16.6414 126.715 16.4483 126.73 16.2558C126.714 16.0624 126.747 15.868 126.826 15.6905C126.904 15.5131 127.027 15.3583 127.181 15.2404C127.606 15.0003 128.093 14.8926 128.58 14.9313H129.659V14.3839C129.669 14.2618 129.648 14.1393 129.596 14.028C129.545 13.9166 129.466 13.8203 129.367 13.7481C129.095 13.6051 128.789 13.5379 128.482 13.5539C128.146 13.5504 127.81 13.5859 127.482 13.6598C127.408 13.6893 127.326 13.6893 127.252 13.6598C127.227 13.631 127.209 13.5972 127.198 13.5606C127.187 13.524 127.185 13.4856 127.19 13.4479V13.3773C127.183 13.2999 127.202 13.2223 127.243 13.1565C127.307 13.107 127.384 13.0764 127.465 13.0682C127.787 12.9994 128.117 12.9668 128.447 12.9711C129.709 12.9652 130.341 13.445 130.341 14.4104ZM129.659 16.1764V15.4876H128.597C128.291 15.4681 127.985 15.5322 127.712 15.6731C127.617 15.7413 127.541 15.8336 127.493 15.9407C127.444 16.0477 127.426 16.1656 127.438 16.2823C127.438 16.7945 127.774 17.0506 128.456 17.0506C128.784 17.0786 129.112 17.0112 129.403 16.8563C129.498 16.7724 129.571 16.6666 129.615 16.5481C129.66 16.4296 129.675 16.302 129.659 16.1764Z" fill="#F2F2F2"/>
<path d="M131.712 13.377L132.597 16.5028C132.626 16.6527 132.693 16.7926 132.792 16.909C132.898 16.9809 133.026 17.0151 133.155 17.0061C133.27 17.013 133.385 16.975 133.473 16.9001C133.571 16.7877 133.636 16.65 133.659 16.5028L134.42 13.377C134.428 13.2863 134.469 13.2017 134.535 13.1385C134.614 13.0888 134.708 13.067 134.801 13.0767H134.88C135.013 13.0767 135.084 13.0767 135.119 13.1297C135.147 13.2097 135.147 13.297 135.119 13.377L134.075 17.5535C133.765 18.7721 133.19 19.4167 132.243 19.4785C132.172 19.5057 132.093 19.5057 132.022 19.4785C131.967 19.4156 131.931 19.3394 131.916 19.2578V19.1783C131.916 19.0723 131.916 19.0017 131.916 18.9752C131.982 18.9262 132.063 18.9013 132.146 18.9045C132.438 18.8829 132.71 18.7501 132.907 18.5337C133.14 18.2406 133.306 17.9 133.393 17.5359C133.253 17.6049 133.098 17.6383 132.942 17.633C132.825 17.6421 132.707 17.6255 132.597 17.5843C132.487 17.5431 132.387 17.4784 132.305 17.3946C132.115 17.1515 131.984 16.8672 131.924 16.5646L131.04 13.4123C131.011 13.3323 131.011 13.245 131.04 13.165C131.107 13.1202 131.189 13.1014 131.27 13.112H131.34C131.432 13.1048 131.524 13.1231 131.606 13.165C131.66 13.2244 131.697 13.2978 131.712 13.377Z" fill="#F2F2F2"/>
<path d="M136.597 14.7281V17.3065C136.603 17.3905 136.581 17.4742 136.535 17.5449C136.467 17.589 136.385 17.6077 136.305 17.5979H136.199C136.118 17.6063 136.037 17.5876 135.969 17.5449C135.923 17.4742 135.901 17.3905 135.907 17.3065V14.7281C135.874 14.4911 135.898 14.2498 135.976 14.0237C136.054 13.7976 136.185 13.5932 136.357 13.4271C136.53 13.261 136.739 13.1379 136.969 13.0678C137.198 12.9978 137.44 12.9827 137.677 13.0239C137.959 12.9875 138.245 13.0414 138.495 13.1779C138.745 13.3143 138.945 13.5263 139.066 13.7833C139.193 13.5275 139.397 13.3172 139.649 13.1813C139.901 13.0453 140.189 12.9904 140.473 13.0239C140.706 12.9886 140.944 13.0081 141.169 13.0809C141.393 13.1538 141.597 13.278 141.765 13.4435C141.932 13.6091 142.059 13.8115 142.134 14.0345C142.21 14.2575 142.232 14.4951 142.199 14.7281V17.3065C142.209 17.3909 142.187 17.4761 142.137 17.5449C142.069 17.589 141.987 17.6077 141.906 17.5979H141.809C141.726 17.6083 141.641 17.5896 141.57 17.5449C141.528 17.4729 141.509 17.3895 141.517 17.3065V14.7281C141.544 14.4368 141.459 14.1463 141.278 13.9157C141.132 13.7363 140.931 13.6096 140.706 13.5548C140.481 13.4999 140.244 13.5201 140.031 13.6121C139.819 13.7042 139.642 13.863 139.529 14.0645C139.415 14.266 139.371 14.4991 139.402 14.7281V17.3065C139.41 17.3895 139.391 17.4729 139.349 17.5449C139.278 17.5896 139.194 17.6083 139.11 17.5979H139.022C138.938 17.6083 138.854 17.5896 138.783 17.5449C138.74 17.4729 138.722 17.3895 138.73 17.3065V14.7281C138.757 14.4368 138.671 14.1463 138.491 13.9157C138.25 13.7544 137.967 13.6682 137.677 13.6682C137.387 13.6682 137.103 13.7544 136.862 13.9157C136.672 14.1424 136.577 14.4333 136.597 14.7281Z" fill="#F2F2F2"/>
<path d="M146.942 14.7983C146.953 14.9629 146.953 15.1281 146.942 15.2927C146.938 15.3725 146.91 15.4493 146.862 15.5135C146.787 15.5559 146.701 15.5744 146.614 15.5665H143.836V15.8402C143.822 16.0031 143.845 16.167 143.904 16.3198C143.962 16.4725 144.053 16.6104 144.172 16.7232C144.497 16.9268 144.879 17.0198 145.261 16.9881C145.677 16.9873 146.091 16.9278 146.491 16.8115C146.606 16.8115 146.676 16.8115 146.721 16.8115C146.746 16.8438 146.764 16.8807 146.775 16.9201C146.785 16.9595 146.788 17.0006 146.783 17.0411V17.1206C146.805 17.1895 146.805 17.2636 146.783 17.3325C146.717 17.3903 146.638 17.4299 146.552 17.4473C146.148 17.5684 145.727 17.6279 145.305 17.6239C144.734 17.6734 144.164 17.5132 143.703 17.1735C143.52 16.982 143.381 16.7537 143.294 16.5039C143.207 16.2542 143.174 15.9887 143.199 15.7254V14.8424C143.169 14.5891 143.197 14.3323 143.281 14.0914C143.365 13.8504 143.502 13.6313 143.682 13.4505C143.862 13.2698 144.081 13.1319 144.322 13.0473C144.563 12.9626 144.821 12.9333 145.075 12.9616C145.326 12.9445 145.578 12.9771 145.816 13.0574C146.055 13.1377 146.275 13.2642 146.464 13.4296C146.636 13.611 146.768 13.8268 146.85 14.0628C146.932 14.2987 146.964 14.5494 146.942 14.7983ZM143.836 14.7276V15.0278H146.296V14.7276C146.296 13.9859 145.889 13.615 145.066 13.615C144.243 13.615 143.836 13.9594 143.836 14.7276Z" fill="#F2F2F2"/>
<path d="M148.606 14.7281V17.3065C148.613 17.3895 148.595 17.473 148.552 17.5449C148.481 17.5896 148.397 17.6084 148.314 17.5979H148.216C148.136 17.6077 148.054 17.589 147.986 17.5449C147.936 17.4761 147.914 17.3909 147.924 17.3065V14.7281C147.924 13.589 148.561 13.0239 149.827 13.0239C150.341 12.9821 150.852 13.1333 151.26 13.4478C151.424 13.616 151.55 13.8173 151.629 14.0382C151.709 14.259 151.74 14.4943 151.72 14.7281V17.3065C151.728 17.3895 151.71 17.473 151.667 17.5449C151.596 17.5896 151.512 17.6084 151.428 17.5979H151.322C151.239 17.6084 151.154 17.5896 151.083 17.5449C151.041 17.473 151.022 17.3895 151.03 17.3065V14.7281C151.047 14.5809 151.031 14.432 150.983 14.2916C150.936 14.1513 150.858 14.023 150.756 13.9157C150.499 13.7322 150.186 13.6447 149.871 13.6685C149.536 13.6398 149.202 13.7271 148.924 13.9157C148.817 14.0212 148.733 14.148 148.678 14.288C148.623 14.428 148.598 14.578 148.606 14.7281Z" fill="#F2F2F2"/>
<path d="M152.384 13.4742V13.4301C152.375 13.3553 152.394 13.28 152.437 13.2181C152.491 13.1716 152.561 13.1465 152.632 13.1475L153.145 13.0769L153.251 12.1409C153.248 12.106 153.252 12.0707 153.262 12.0373C153.273 12.0039 153.29 11.973 153.313 11.9466C153.372 11.9043 153.445 11.8854 153.517 11.8936H153.588C153.657 11.885 153.727 11.9041 153.782 11.9466C153.782 11.9466 153.827 12.0437 153.827 12.1409V13.0769H155.304C155.344 13.0626 155.387 13.0599 155.428 13.0691C155.469 13.0782 155.506 13.0988 155.536 13.1284C155.566 13.158 155.586 13.1955 155.595 13.2364C155.605 13.2773 155.602 13.32 155.588 13.3594V13.4389C155.598 13.5165 155.579 13.5951 155.535 13.6596C155.535 13.7038 155.419 13.7214 155.304 13.7214H153.835V16.0261C153.813 16.2881 153.889 16.5491 154.048 16.759C154.13 16.8399 154.229 16.9023 154.337 16.942C154.445 16.9816 154.561 16.9975 154.676 16.9886C154.95 16.993 155.224 16.9633 155.49 16.9003C155.523 16.8839 155.56 16.8754 155.596 16.8754C155.633 16.8754 155.67 16.8839 155.703 16.9003C155.747 16.9648 155.766 17.0434 155.756 17.121V17.2093C155.761 17.281 155.742 17.3524 155.703 17.4124C155.642 17.4731 155.565 17.5158 155.481 17.536C155.22 17.5954 154.953 17.6251 154.685 17.6243C153.667 17.6243 153.154 17.0857 153.154 16.0173V13.7126H152.641C152.57 13.7204 152.499 13.7049 152.437 13.6685C152.401 13.6104 152.382 13.5428 152.384 13.4742Z" fill="#F2F2F2"/>
<path d="M121.792 25.774V25.6945C121.784 25.6157 121.806 25.5367 121.854 25.4738C121.89 25.4571 121.93 25.4485 121.969 25.4485C122.009 25.4485 122.048 25.4571 122.084 25.4738C122.521 25.5882 122.97 25.6475 123.421 25.6504C123.683 25.6696 123.946 25.6304 124.19 25.5356C124.264 25.4999 124.324 25.4426 124.364 25.3716C124.403 25.3005 124.42 25.2191 124.412 25.1382C124.416 25.074 124.408 25.0095 124.387 24.9487C124.365 24.888 124.332 24.8322 124.288 24.785C124.154 24.6579 123.998 24.5562 123.828 24.4848L122.713 23.955C122.458 23.8492 122.233 23.6824 122.058 23.4693C121.922 23.2628 121.857 23.0182 121.872 22.7718C121.855 22.6036 121.882 22.4339 121.95 22.2792C122.018 22.1245 122.126 21.99 122.261 21.8888C122.631 21.6767 123.057 21.5813 123.483 21.6151C123.873 21.6066 124.263 21.6663 124.633 21.7917C124.716 21.8134 124.792 21.8559 124.854 21.9153C124.896 21.9777 124.914 22.0526 124.907 22.1272V22.2155C124.907 22.3303 124.907 22.4009 124.836 22.4274C124.766 22.4539 124.721 22.4274 124.615 22.4274C124.246 22.3096 123.861 22.2529 123.474 22.2596C123.232 22.2421 122.989 22.2814 122.766 22.3744C122.698 22.413 122.643 22.4701 122.607 22.5389C122.571 22.6078 122.555 22.6856 122.562 22.763C122.57 22.9001 122.62 23.0316 122.705 23.1392C122.791 23.2468 122.908 23.3251 123.04 23.3634L124.199 23.8932C124.468 24.0003 124.708 24.1698 124.898 24.3877C125.051 24.5973 125.126 24.8531 125.111 25.1117C125.124 25.2832 125.091 25.455 125.017 25.61C124.942 25.765 124.828 25.8977 124.686 25.9947C124.29 26.2153 123.837 26.3136 123.385 26.2773C122.952 26.2809 122.52 26.2245 122.102 26.1095C122.014 26.0935 121.934 26.0502 121.872 25.9859C121.845 25.9577 121.824 25.9244 121.811 25.888C121.797 25.8516 121.791 25.8128 121.792 25.774Z" fill="#F2F2F2"/>
<path d="M126.403 22.0129L127.288 25.1476C127.318 25.2944 127.385 25.4311 127.483 25.5449C127.588 25.6196 127.717 25.6541 127.845 25.6421C127.964 25.6494 128.081 25.6116 128.173 25.5361C128.264 25.4229 128.328 25.2899 128.359 25.1476L129.111 22.0129C129.123 21.9234 129.164 21.84 129.226 21.7745C129.305 21.726 129.398 21.7043 129.491 21.7127H129.571C129.704 21.7127 129.783 21.7127 129.81 21.7745C129.836 21.8363 129.81 21.8893 129.81 22.0129L128.713 26.2072C128.403 27.4257 127.828 28.0703 126.881 28.1321C126.809 28.1577 126.731 28.1577 126.66 28.1321C126.601 28.0719 126.564 27.9945 126.553 27.9114V27.8319C126.553 27.7259 126.553 27.6641 126.553 27.6288C126.616 27.5798 126.695 27.5548 126.775 27.5582C127.069 27.5344 127.343 27.4022 127.544 27.1873C127.776 26.8927 127.941 26.5527 128.031 26.1895C127.888 26.2576 127.73 26.2909 127.571 26.2867C127.454 26.2957 127.336 26.2791 127.226 26.2379C127.116 26.1967 127.016 26.132 126.934 26.0483C126.75 25.8043 126.621 25.5245 126.553 25.2271L125.668 22.0659C125.668 21.9423 125.668 21.8628 125.668 21.8275C125.668 21.8275 125.775 21.7657 125.899 21.7657H125.969C126.016 21.7569 126.063 21.7578 126.109 21.7685C126.155 21.7791 126.198 21.7992 126.235 21.8275C126.273 21.8558 126.304 21.8917 126.327 21.9327C126.35 21.9738 126.363 22.0192 126.368 22.0659L126.403 22.0129Z" fill="#F2F2F2"/>
<path d="M130.456 25.774V25.6945C130.45 25.6548 130.454 25.6144 130.466 25.5763C130.479 25.5382 130.499 25.5032 130.526 25.4738C130.526 25.4738 130.641 25.4738 130.748 25.4738C131.184 25.5882 131.633 25.6475 132.084 25.6504C132.346 25.6696 132.609 25.6304 132.854 25.5356C132.929 25.5012 132.991 25.4446 133.032 25.3734C133.073 25.3022 133.091 25.2201 133.084 25.1382C133.087 25.0734 133.077 25.0087 133.054 24.948C133.031 24.8872 132.996 24.8318 132.951 24.785C132.819 24.6557 132.663 24.5537 132.491 24.4848L131.376 23.955C131.123 23.8462 130.898 23.6799 130.721 23.4693C130.586 23.2628 130.52 23.0182 130.535 22.7718C130.518 22.6036 130.545 22.4339 130.614 22.2792C130.682 22.1245 130.789 21.99 130.925 21.8888C131.295 21.6767 131.72 21.5813 132.146 21.6151C132.53 21.6058 132.913 21.6625 133.279 21.7828C133.363 21.8021 133.439 21.845 133.5 21.9064C133.541 21.9689 133.56 22.0437 133.553 22.1184V22.2067C133.553 22.3215 133.553 22.3921 133.482 22.4186C133.411 22.4451 133.367 22.4186 133.261 22.4186C132.895 22.3017 132.512 22.245 132.128 22.2508C131.883 22.2329 131.638 22.2722 131.411 22.3656C131.345 22.4057 131.291 22.4631 131.255 22.5316C131.219 22.6 131.203 22.677 131.208 22.7541C131.215 22.8913 131.265 23.0228 131.351 23.1304C131.436 23.2379 131.553 23.3163 131.686 23.3546L132.845 23.8844C133.117 23.9914 133.359 24.1608 133.553 24.3788C133.698 24.5914 133.77 24.8458 133.756 25.1029C133.769 25.2743 133.737 25.4462 133.662 25.6011C133.588 25.7561 133.474 25.8888 133.332 25.9859C132.936 26.2065 132.483 26.3048 132.031 26.2685C131.597 26.2715 131.166 26.2151 130.748 26.1007C130.661 26.0826 130.581 26.0396 130.518 25.9771C130.475 25.9179 130.454 25.8466 130.456 25.774Z" fill="#F2F2F2"/>
<path d="M134.367 22.1099V22.0657C134.36 21.9911 134.379 21.9163 134.42 21.8538C134.477 21.8123 134.544 21.7878 134.615 21.7831L135.137 21.7125L135.234 20.7765C135.232 20.7066 135.254 20.6382 135.296 20.5823C135.358 20.5394 135.434 20.5206 135.509 20.5293H135.57C135.605 20.5245 135.64 20.5268 135.673 20.5359C135.707 20.545 135.738 20.5608 135.765 20.5823C135.808 20.6375 135.827 20.7073 135.818 20.7765V21.7125H137.296C137.374 21.7024 137.453 21.7213 137.517 21.7655C137.561 21.8334 137.58 21.9147 137.57 21.9951V22.0745C137.58 22.1549 137.561 22.2362 137.517 22.3041C137.453 22.3483 137.374 22.3672 137.296 22.3571H135.818V24.6617C135.798 24.9222 135.87 25.1814 136.022 25.3946C136.106 25.4758 136.206 25.5383 136.316 25.5779C136.425 25.6174 136.542 25.6332 136.659 25.6242C136.93 25.6337 137.201 25.6039 137.464 25.5359C137.498 25.5213 137.534 25.5138 137.57 25.5138C137.607 25.5138 137.643 25.5213 137.677 25.5359C137.721 25.5359 137.739 25.6507 137.739 25.7655V25.8449C137.744 25.9207 137.722 25.9959 137.677 26.0569C137.616 26.1164 137.539 26.1564 137.455 26.1717C137.198 26.236 136.933 26.2657 136.668 26.26C135.641 26.26 135.137 25.7302 135.137 24.6529V22.3483H134.615C134.552 22.3691 134.483 22.3691 134.42 22.3483C134.394 22.315 134.376 22.2763 134.366 22.2351C134.357 22.1938 134.357 22.151 134.367 22.1099Z" fill="#F2F2F2"/>
<path d="M142.092 23.4345C142.104 23.5992 142.104 23.7644 142.092 23.929C142.088 24.013 142.057 24.0933 142.004 24.1586C141.932 24.202 141.848 24.2207 141.765 24.2116H139.013V24.4853C138.998 24.6483 139.021 24.8125 139.079 24.9655C139.137 25.1185 139.23 25.2563 139.349 25.3683C139.671 25.57 140.05 25.6629 140.429 25.6332C140.848 25.6351 141.264 25.5787 141.668 25.4654C141.783 25.4654 141.853 25.4654 141.898 25.4654C141.942 25.4654 141.96 25.5714 141.96 25.6862V25.7745C141.965 25.845 141.95 25.9157 141.915 25.9776C141.849 26.0404 141.766 26.0832 141.676 26.1012C141.272 26.2204 140.851 26.277 140.429 26.269C139.861 26.3171 139.294 26.157 138.836 25.8186C138.653 25.6274 138.513 25.3992 138.426 25.1493C138.339 24.8995 138.307 24.6339 138.331 24.3705V23.4875C138.295 23.2273 138.319 22.9621 138.402 22.7128C138.486 22.4636 138.626 22.2371 138.812 22.0512C138.999 21.8654 139.226 21.7253 139.475 21.6421C139.725 21.5588 139.991 21.5346 140.252 21.5714C140.757 21.5355 141.257 21.7005 141.641 22.0306C141.813 22.2183 141.943 22.441 142.021 22.6833C142.098 22.9256 142.123 23.1819 142.092 23.4345ZM138.986 23.3374V23.6376H141.446V23.3374C141.446 22.5957 141.03 22.2337 140.216 22.2337C139.402 22.2337 138.986 22.5957 138.986 23.3374Z" fill="#F2F2F2"/>
<path d="M143.756 23.3197V25.8981C143.77 25.9387 143.772 25.9823 143.762 26.0241C143.753 26.0659 143.731 26.1041 143.701 26.1345C143.671 26.1648 143.632 26.1861 143.59 26.1958C143.549 26.2055 143.505 26.2033 143.464 26.1894H143.367C143.284 26.1973 143.2 26.1787 143.128 26.1365C143.083 26.0655 143.064 25.9813 143.075 25.8981V23.3197C143.041 23.083 143.065 22.8418 143.143 22.616C143.222 22.3901 143.353 22.1861 143.525 22.0205C143.698 21.855 143.908 21.7328 144.137 21.6639C144.367 21.595 144.609 21.5815 144.845 21.6243C145.127 21.5852 145.415 21.6369 145.667 21.7718C145.918 21.9067 146.12 22.1179 146.243 22.3749C146.369 22.1206 146.571 21.9117 146.822 21.7772C147.073 21.6428 147.359 21.5893 147.641 21.6243C147.877 21.5815 148.119 21.595 148.348 21.6639C148.578 21.7328 148.787 21.855 148.96 22.0205C149.133 22.1861 149.264 22.3901 149.342 22.616C149.421 22.8418 149.444 23.083 149.411 23.3197V25.8981C149.421 25.9813 149.403 26.0655 149.358 26.1365C149.286 26.1787 149.202 26.1973 149.119 26.1894H149.021C148.938 26.1985 148.854 26.1799 148.783 26.1365C148.738 26.0655 148.719 25.9813 148.729 25.8981V23.3197C148.756 23.0284 148.671 22.7378 148.49 22.5073C148.379 22.4168 148.25 22.3491 148.112 22.3082C147.973 22.2673 147.829 22.2539 147.685 22.2689C147.387 22.2373 147.089 22.3228 146.853 22.5073C146.678 22.7403 146.596 23.0298 146.623 23.3197V25.8981C146.623 26.0217 146.623 26.1011 146.561 26.1365C146.493 26.1806 146.412 26.1993 146.331 26.1894H146.234C146.153 26.1993 146.072 26.1806 146.004 26.1365C145.959 26.0655 145.94 25.9813 145.951 25.8981V23.3197C145.975 23.0273 145.887 22.7366 145.703 22.5073C145.46 22.3514 145.178 22.2685 144.889 22.2685C144.6 22.2685 144.318 22.3514 144.075 22.5073C143.866 22.7257 143.751 23.0176 143.756 23.3197Z" fill="#F2F2F2"/>
</g>
<path d="M39.6802 15.9729C38.7678 11.5618 36.3904 7.58679 32.9329 4.69118C29.4753 1.79558 25.1398 0.148727 20.6277 0.0170898C20.2826 0.0170898 19.9375 0.0170898 19.5835 0.0170898C19.3977 0.0170898 19.1941 0.0170898 18.9995 0.0170898C15.9542 0.176579 12.9857 1.02791 10.3203 2.50615C7.65484 3.98439 5.36296 6.0505 3.61942 8.54689C3.54024 8.62714 3.47451 8.71956 3.42473 8.82062C1.63624 11.4779 0.512765 14.5246 0.148642 17.7049C-0.215481 20.8851 0.190377 24.1062 1.33213 27.0975C2.47389 30.0888 4.31822 32.7632 6.71027 34.896C9.10233 37.0289 11.9723 38.5579 15.0792 39.3548H15.2297C15.6013 39.452 15.9818 39.5314 16.3624 39.6021C17.4971 39.8198 18.6492 39.9351 19.8047 39.9464H20.0437C20.5835 39.9464 21.1233 39.9465 21.6719 39.8846C26.0136 39.5196 30.1185 37.7552 33.3671 34.8578C36.6156 31.9604 38.8314 28.0872 39.6802 23.8228C39.9299 22.5637 40.0544 21.283 40.0519 19.9994C40.0596 18.6484 39.9351 17.2998 39.6802 15.9729ZM24.4683 34.878L23.8931 35.037C24.5471 33.7811 25.0236 32.441 25.309 31.0546L25.7603 29.0679L29.1761 14.2158C29.3773 13.6671 29.355 13.0617 29.1142 12.5292C28.907 12.3369 28.6432 12.2161 28.362 12.1849C27.5109 12.1148 26.6556 12.1148 25.8045 12.1849C25.4853 12.2297 25.1818 12.3509 24.9196 12.5381L24.8311 12.6352L24.7072 12.7765C24.4348 13.2128 24.243 13.6943 24.1409 14.1981L21.6277 25.6771C21.5488 26.1315 21.3639 26.5611 21.0879 26.931C20.96 27.0677 20.7982 27.1682 20.6189 27.2224H20.3622H20.2118C19.7917 27.2515 19.3733 27.1463 19.0171 26.9222C18.7129 26.5484 18.5143 26.1002 18.4419 25.6242L15.9199 14.1451C15.8319 13.51 15.5437 12.9193 15.0969 12.4586C14.5632 12.144 13.9449 12.0021 13.3271 12.0524H12.4421C11.8755 11.9734 11.3005 12.1192 10.8404 12.4586C10.7604 12.5704 10.7116 12.7015 10.6988 12.8383C10.6897 12.8879 10.6897 12.9388 10.6988 12.9884C10.6855 13.1235 10.6855 13.2595 10.6988 13.3946C10.691 13.5151 10.691 13.6361 10.6988 13.7566C10.6988 13.8802 10.7431 14.0127 10.7696 14.1451L13.6014 26.2069C13.8112 27.1969 14.1256 28.1618 14.5394 29.0855C14.6014 29.2356 14.6722 29.3769 14.7429 29.5094L14.8137 29.6418L14.9199 29.8008C15.0427 29.9975 15.1819 30.1836 15.3358 30.357C15.4427 30.48 15.5613 30.5924 15.6898 30.6926C15.8192 30.7997 15.9584 30.8943 16.1057 30.9751C16.5506 31.2269 17.0407 31.3889 17.5482 31.452H17.7871C18.0546 31.4806 18.3234 31.4954 18.5924 31.4961C18.8844 31.4961 19.141 31.4961 19.3534 31.4961H19.5658C19.752 31.4806 19.9359 31.445 20.1145 31.3902C19.9302 32.2832 19.502 33.1079 18.8773 33.7733C18.2527 34.4387 17.4558 34.9188 16.5747 35.1606C12.8962 34.3115 9.65324 32.1551 7.45187 29.0942C5.2505 26.0333 4.24131 22.2774 4.61285 18.5282C4.98439 14.779 6.71124 11.293 9.47076 8.72157C12.2303 6.15015 15.8337 4.66922 19.6076 4.55549C23.3816 4.44176 27.068 5.703 29.978 8.10356C32.888 10.5041 34.8226 13.8798 35.4202 17.5998C36.0178 21.3198 35.2376 25.1296 33.2253 28.3175C31.2131 31.5054 28.1065 33.8531 24.486 34.9222L24.4683 34.878Z" fill="#FFC404"/>
</svg>
