<svg width="25" height="24" viewBox="0 0 25 24" fill="none" xmlns="http://www.w3.org/2000/svg">
<path d="M10.6665 13.229C10.8081 13.4609 10.9762 13.6804 11.1707 13.8828C12.3782 15.1395 14.2187 15.336 15.6241 14.4722C15.8845 14.3121 16.1299 14.1157 16.3537 13.8828L19.5931 10.5114C21.0243 9.02184 21.0243 6.60676 19.5931 5.11718C18.1618 3.6276 15.8413 3.62761 14.41 5.11718L13.6965 5.85978" stroke="#1E1E1E" stroke-width="1.8" stroke-linecap="round"/>
<path d="M11.6368 18.14L10.923 18.8828C9.49177 20.3724 7.17122 20.3724 5.73996 18.8828C4.30869 17.3932 4.30869 14.9782 5.73996 13.4886L8.97938 10.1172C10.4106 8.62761 12.7312 8.6276 14.1624 10.1172C14.3569 10.3195 14.5249 10.539 14.6665 10.7708" stroke="#1E1E1E" stroke-width="1.8" stroke-linecap="round"/>
</svg>
