<svg width="25" height="24" viewBox="0 0 25 24" fill="none" xmlns="http://www.w3.org/2000/svg">
<path d="M7 9.5H2.5V22H7V9.5Z" fill="white"/>
<path d="M7 4.25C7 5.49264 5.99264 6.5 4.75 6.5C3.50736 6.5 2.5 5.49264 2.5 4.25C2.5 3.00736 3.50736 2 4.75 2C5.99264 2 7 3.00736 7 4.25Z" fill="white"/>
<path d="M14.5001 9.5H10V22H14.5001V15.7502C14.5001 14.7837 15.2835 14.0002 16.25 14.0002C17.2165 14.0002 18 14.7837 18 15.7502V22H22.4987L22.5001 14.0002C22.5001 11.515 20.1364 9.50024 17.7968 9.50024C16.4649 9.50024 15.2767 10.1531 14.5001 11.174V9.5Z" fill="white"/>
</svg>
