<svg width="25" height="24" viewBox="0 0 25 24" fill="none" xmlns="http://www.w3.org/2000/svg">
<path d="M3.3335 6C3.3335 4.58579 3.3335 3.87868 3.77284 3.43934C4.21218 3 4.91929 3 6.3335 3C7.74771 3 8.45482 3 8.89416 3.43934C9.3335 3.87868 9.3335 4.58579 9.3335 6C9.3335 7.41421 9.3335 8.12132 8.89416 8.56066C8.45482 9 7.74771 9 6.3335 9C4.91929 9 4.21218 9 3.77284 8.56066C3.3335 8.12132 3.3335 7.41421 3.3335 6Z" stroke="#1E1E1E" stroke-width="1.5"/>
<path d="M3.3335 18C3.3335 16.5858 3.3335 15.8787 3.77284 15.4393C4.21218 15 4.91929 15 6.3335 15C7.74771 15 8.45482 15 8.89416 15.4393C9.3335 15.8787 9.3335 16.5858 9.3335 18C9.3335 19.4142 9.3335 20.1213 8.89416 20.5607C8.45482 21 7.74771 21 6.3335 21C4.91929 21 4.21218 21 3.77284 20.5607C3.3335 20.1213 3.3335 19.4142 3.3335 18Z" stroke="#1E1E1E" stroke-width="1.5"/>
<path d="M3.3335 12H9.3335" stroke="#1E1E1E" stroke-width="1.5" stroke-linecap="round" stroke-linejoin="round"/>
<path d="M12.3335 3V8" stroke="#1E1E1E" stroke-width="1.5" stroke-linecap="round" stroke-linejoin="round"/>
<path d="M15.3335 6C15.3335 4.58579 15.3335 3.87868 15.7728 3.43934C16.2122 3 16.9193 3 18.3335 3C19.7477 3 20.4548 3 20.8942 3.43934C21.3335 3.87868 21.3335 4.58579 21.3335 6C21.3335 7.41421 21.3335 8.12132 20.8942 8.56066C20.4548 9 19.7477 9 18.3335 9C16.9193 9 16.2122 9 15.7728 8.56066C15.3335 8.12132 15.3335 7.41421 15.3335 6Z" stroke="#1E1E1E" stroke-width="1.5"/>
<path d="M21.3335 12H15.3335C13.9193 12 13.2122 12 12.7728 12.4393C12.3335 12.8787 12.3335 13.5858 12.3335 15M12.3335 17.7692V20.5385M15.3335 15V16.5C15.3335 17.9464 16.1172 18 17.3335 18C17.8858 18 18.3335 18.4477 18.3335 19M16.3335 21H15.3335M18.3335 15C19.7477 15 20.4548 15 20.8942 15.44C21.3335 15.8799 21.3335 16.5881 21.3335 18.0043C21.3335 19.4206 21.3335 20.1287 20.8942 20.5687C20.5735 20.8898 20.1102 20.9766 19.3335 21" stroke="#1E1E1E" stroke-width="1.5" stroke-linecap="round"/>
</svg>
