<svg width="25" height="24" viewBox="0 0 25 24" fill="none" xmlns="http://www.w3.org/2000/svg">
<path d="M12.6665 16.5V14.5" stroke="#1E1E1E" stroke-width="1.5" stroke-linecap="round"/>
<path d="M4.93431 18.8447C5.15919 20.515 6.54263 21.8235 8.22616 21.9009C9.64277 21.966 11.0818 22 12.6665 22C14.2512 22 15.6902 21.966 17.1068 21.9009C18.7904 21.8235 20.1738 20.515 20.3987 18.8447C20.5454 17.7547 20.6665 16.6376 20.6665 15.5C20.6665 14.3624 20.5454 13.2453 20.3987 12.1553C20.1738 10.485 18.7904 9.17649 17.1068 9.09909C15.6902 9.03397 14.2512 9 12.6665 9C11.0818 9 9.64277 9.03397 8.22616 9.09909C6.54263 9.17649 5.15919 10.485 4.93431 12.1553C4.78755 13.2453 4.6665 14.3624 4.6665 15.5C4.6665 16.6376 4.78755 17.7547 4.93431 18.8447Z" stroke="#1E1E1E" stroke-width="1.5"/>
<path d="M8.1665 9V6.5C8.1665 4.01472 10.1812 2 12.6665 2C15.1518 2 17.1665 4.01472 17.1665 6.5V9" stroke="#1E1E1E" stroke-width="1.5" stroke-linecap="round" stroke-linejoin="round"/>
</svg>
