<svg width="25" height="24" viewBox="0 0 25 24" fill="none" xmlns="http://www.w3.org/2000/svg">
<path fill-rule="evenodd" clip-rule="evenodd" d="M12.5 3.25C10.0263 3.25 7.67304 3.40962 5.54751 3.69767C3.28476 4.0043 1.75 5.99235 1.75 8.19868V15.8013C1.75 18.0076 3.28476 19.9957 5.54751 20.3023C7.67304 20.5904 10.0263 20.75 12.5 20.75C14.9737 20.75 17.327 20.5904 19.4525 20.3023C21.7152 19.9957 23.25 18.0076 23.25 15.8013V8.19869C23.25 5.99235 21.7152 4.0043 19.4525 3.69767C17.327 3.40962 14.9737 3.25 12.5 3.25ZM10.8859 8.35688C10.6542 8.21786 10.3656 8.21422 10.1305 8.34735C9.89534 8.48048 9.75 8.7298 9.75 9V15C9.75 15.2702 9.89534 15.5195 10.1305 15.6526C10.3656 15.7858 10.6542 15.7821 10.8859 15.6431L15.8859 12.6431C16.1118 12.5076 16.25 12.2634 16.25 12C16.25 11.7366 16.1118 11.4924 15.8859 11.3569L10.8859 8.35688Z" fill="white"/>
</svg>
